<svg xmlns="http://www.w3.org/2000/svg" viewBox="0 0 1200 392" width="1200" height="392">
<rect width="1200" height="392" fill="#0a0a0a"/>
<g stroke="#565b64" stroke-width="2"><line x1="14" y1="14" x2="38" y2="14"/><line x1="14" y1="14" x2="14" y2="38"/><line x1="1186" y1="14" x2="1162" y2="14"/><line x1="1186" y1="14" x2="1186" y2="38"/><line x1="14" y1="378" x2="38" y2="378"/><line x1="14" y1="378" x2="14" y2="354"/><line x1="1186" y1="378" x2="1162" y2="378"/><line x1="1186" y1="378" x2="1186" y2="354"/></g>
<rect x="28" y="28" width="1144" height="336" fill="none" stroke="#2f343b" stroke-width="2"/>
<rect x="64" y="54" width="10" height="10" fill="#ededed"/>
<path d="M50 350V50H100V150H150V200H100V350ZM100 50V0H250V50ZM100 400V350H250V400ZM250 350V300H200V250H250V50H300V350ZM150 250V200H200V250Z" fill="#ededed" fill-opacity="1" transform="translate(86.00 64.00) scale(0.02727 -0.02727)"/><path d="M150 300V50H50V0H300V50H200V400H150V350H50V300Z" fill="#ededed" fill-opacity="1" transform="translate(98.55 64.00) scale(0.02727 -0.02727)"/><path d="M200 350V250H250V350ZM50 50V-50H100V50ZM100 150V50H150V150ZM150 250V150H200V250ZM250 450V350H300V450Z" fill="#ededed" fill-opacity="1" transform="translate(123.64 64.00) scale(0.02727 -0.02727)"/><path d="M50 300V0H100V150H250V0H300V300H250V200H100V300ZM150 400V350H200V400ZM100 350V300H150V350ZM200 350V300H250V350Z" fill="#ededed" fill-opacity="1" transform="translate(148.73 64.00) scale(0.02727 -0.02727)"/><path d="M50 400V0H250V50H100V200H250V250H100V350H250V400ZM250 200V50H300V200ZM250 350V250H300V350Z" fill="#ededed" fill-opacity="1" transform="translate(161.27 64.00) scale(0.02727 -0.02727)"/><path d="M50 350V50H100V350ZM100 50V0H250V50ZM250 350V50H300V350ZM100 400V350H250V400Z" fill="#ededed" fill-opacity="1" transform="translate(173.82 64.00) scale(0.02727 -0.02727)"/><path d="M50 400V50H100V400ZM100 50V0H250V50ZM250 400V50H300V400Z" fill="#ededed" fill-opacity="1" transform="translate(186.36 64.00) scale(0.02727 -0.02727)"/><path d="M50 400V350H150V0H200V350H300V400Z" fill="#ededed" fill-opacity="1" transform="translate(198.91 64.00) scale(0.02727 -0.02727)"/>
<line x1="64" y1="80" x2="1136" y2="80" stroke="#2f343b" stroke-width="1.5"/>
<path d="M150 50H50V0H300V50H200V350H300V400H50V350H150Z" fill="#ededed" fill-opacity="1" transform="translate(64.00 106.00) scale(0.03273 -0.03273)"/><path d="M250 50H100V0H250ZM100 50V100H50V50ZM250 300H100V250H250ZM50 250V200H100V250ZM100 200V150H250V200ZM250 150V50H300V150ZM250 250V200H300V250Z" fill="#ededed" fill-opacity="1" transform="translate(86.91 106.00) scale(0.03273 -0.03273)"/><path d="M50 400V0H100V200H150V250H100V400ZM250 250V0H300V250ZM150 300V250H250V300Z" fill="#ededed" fill-opacity="1" transform="translate(98.36 106.00) scale(0.03273 -0.03273)"/><path d="M150 250V50H50V0H300V50H200V300H50V250ZM150 400V350H200V400Z" fill="#ededed" fill-opacity="1" transform="translate(109.82 106.00) scale(0.03273 -0.03273)"/><path d="M50 300V-100H100V50H150V100H100V200H150V250H100V300ZM150 300V250H250V300ZM250 250V50H300V250ZM150 50V0H250V50Z" fill="#ededed" fill-opacity="1" transform="translate(121.27 106.00) scale(0.03273 -0.03273)"/><path d="M50 300V-100H100V50H150V100H100V200H150V250H100V300ZM150 300V250H250V300ZM250 250V50H300V250ZM150 50V0H250V50Z" fill="#ededed" fill-opacity="1" transform="translate(144.18 106.00) scale(0.03273 -0.03273)"/><path d="M150 300H50V250H100V50H50V0H250V50H150V200H200V250H150ZM300 300H200V250H300Z" fill="#ededed" fill-opacity="1" transform="translate(155.64 106.00) scale(0.03273 -0.03273)"/><path d="M100 300V250H250V300ZM250 250V50H300V250ZM50 250V50H100V250ZM100 50V0H250V50Z" fill="#ededed" fill-opacity="1" transform="translate(167.09 106.00) scale(0.03273 -0.03273)"/><path d="M250 400V250H200V200H250V100H200V50H250V0H300V400ZM200 50H100V0H200ZM100 50V250H50V50ZM200 250V300H100V250Z" fill="#ededed" fill-opacity="1" transform="translate(178.55 106.00) scale(0.03273 -0.03273)"/><path d="M50 300V50H100V300ZM100 50V0H200V50ZM250 300V100H200V50H250V0H300V300Z" fill="#ededed" fill-opacity="1" transform="translate(190.00 106.00) scale(0.03273 -0.03273)"/><path d="M100 300V250H250V300ZM50 250V50H100V250ZM100 50V0H250V50ZM250 250V200H300V250ZM250 100V50H300V100Z" fill="#ededed" fill-opacity="1" transform="translate(201.45 106.00) scale(0.03273 -0.03273)"/><path d="M100 400V300H50V250H100V50H150V250H300V300H150V400ZM150 50V0H250V50ZM250 100V50H300V100Z" fill="#ededed" fill-opacity="1" transform="translate(212.91 106.00) scale(0.03273 -0.03273)"/><path d="M150 100V0H200V100ZM100 0V-50H150V0Z" fill="#ededed" fill-opacity="1" transform="translate(224.36 106.00) scale(0.03273 -0.03273)"/><path d="M100 300V250H250V300ZM50 250V50H100V150H300V250H250V200H100V250ZM100 50V0H250V50ZM250 100V50H300V100Z" fill="#ededed" fill-opacity="1" transform="translate(247.27 106.00) scale(0.03273 -0.03273)"/><path d="M50 300V0H100V200H150V250H100V300ZM150 300V250H250V300ZM250 250V0H300V250Z" fill="#ededed" fill-opacity="1" transform="translate(258.73 106.00) scale(0.03273 -0.03273)"/><path d="M250 400V250H200V200H250V100H200V50H250V0H300V400ZM200 50H100V0H200ZM100 50V250H50V50ZM200 250V300H100V250Z" fill="#ededed" fill-opacity="1" transform="translate(270.18 106.00) scale(0.03273 -0.03273)"/><path d="M100 400V300H50V250H100V50H150V250H300V300H150V400ZM150 50V0H250V50ZM250 100V50H300V100Z" fill="#ededed" fill-opacity="1" transform="translate(293.09 106.00) scale(0.03273 -0.03273)"/><path d="M100 300V250H250V300ZM250 250V50H300V250ZM50 250V50H100V250ZM100 50V0H250V50Z" fill="#ededed" fill-opacity="1" transform="translate(304.55 106.00) scale(0.03273 -0.03273)"/><path d="M100 300V250H250V300ZM50 250V50H100V150H300V250H250V200H100V250ZM100 50V0H250V50ZM250 100V50H300V100Z" fill="#ededed" fill-opacity="1" transform="translate(327.45 106.00) scale(0.03273 -0.03273)"/><path d="M50 300V0H100V200H150V250H100V300ZM150 300V250H250V300ZM250 250V0H300V250Z" fill="#ededed" fill-opacity="1" transform="translate(338.91 106.00) scale(0.03273 -0.03273)"/><path d="M250 400V250H200V200H250V100H200V50H250V0H300V400ZM200 50H100V0H200ZM100 50V250H50V50ZM200 250V300H100V250Z" fill="#ededed" fill-opacity="1" transform="translate(350.36 106.00) scale(0.03273 -0.03273)"/><path d="M150 100V0H200V100Z" fill="#ededed" fill-opacity="1" transform="translate(361.82 106.00) scale(0.03273 -0.03273)"/>
<path d="M50 400V0H100V250H150V300H100V400ZM250 250V0H300V400H250V300H200V250ZM150 250V150H200V250Z" fill="#ededed" fill-opacity="1" transform="translate(64.00 136.00) scale(0.03273 -0.03273)"/><path d="M100 300V250H250V300ZM250 250V50H300V250ZM50 250V50H100V250ZM100 50V0H250V50Z" fill="#ededed" fill-opacity="1" transform="translate(75.45 136.00) scale(0.03273 -0.03273)"/><path d="M50 400V0H100V50H150V100H100V200H150V250H100V400ZM150 50V0H250V50ZM250 250V50H300V250ZM150 300V250H250V300Z" fill="#ededed" fill-opacity="1" transform="translate(86.91 136.00) scale(0.03273 -0.03273)"/><path d="M150 250V50H50V0H300V50H200V300H50V250ZM150 400V350H200V400Z" fill="#ededed" fill-opacity="1" transform="translate(98.36 136.00) scale(0.03273 -0.03273)"/><path d="M150 350V50H50V0H300V50H200V400H50V350Z" fill="#ededed" fill-opacity="1" transform="translate(109.82 136.00) scale(0.03273 -0.03273)"/><path d="M100 300V250H250V300ZM50 250V50H100V150H300V250H250V200H100V250ZM100 50V0H250V50ZM250 100V50H300V100Z" fill="#ededed" fill-opacity="1" transform="translate(121.27 136.00) scale(0.03273 -0.03273)"/><path d="M250 200H100V150H250Z" fill="#ededed" fill-opacity="1" transform="translate(144.18 136.00) scale(0.03273 -0.03273)"/><path d="M50 400V0H100V150H200V100H250V200H100V350H250V400ZM250 350V200H300V350ZM250 100V0H300V100Z" fill="#ededed" fill-opacity="1" transform="translate(167.09 136.00) scale(0.03273 -0.03273)"/><path d="M100 300V250H250V300ZM50 250V50H100V150H300V250H250V200H100V250ZM100 50V0H250V50ZM250 100V50H300V100Z" fill="#ededed" fill-opacity="1" transform="translate(178.55 136.00) scale(0.03273 -0.03273)"/><path d="M50 150V50H100V150ZM100 50V0H200V50ZM200 100V50H250V0H300V250H250V200H100V150H250V100ZM100 300V250H250V300Z" fill="#ededed" fill-opacity="1" transform="translate(190.00 136.00) scale(0.03273 -0.03273)"/><path d="M100 300V250H250V300ZM50 250V50H100V250ZM100 50V0H250V50ZM250 250V200H300V250ZM250 100V50H300V100Z" fill="#ededed" fill-opacity="1" transform="translate(201.45 136.00) scale(0.03273 -0.03273)"/><path d="M100 400V300H50V250H100V50H150V250H300V300H150V400ZM150 50V0H250V50ZM250 100V50H300V100Z" fill="#ededed" fill-opacity="1" transform="translate(212.91 136.00) scale(0.03273 -0.03273)"/><path d="M50 400V0H100V250H150V300H100V400ZM250 150V0H300V400H250V200H200V150ZM200 200V250H150V200Z" fill="#ededed" fill-opacity="1" transform="translate(235.82 136.00) scale(0.03273 -0.03273)"/><path d="M50 150V50H100V150ZM100 50V0H200V50ZM200 100V50H250V0H300V250H250V200H100V150H250V100ZM100 300V250H250V300Z" fill="#ededed" fill-opacity="1" transform="translate(247.27 136.00) scale(0.03273 -0.03273)"/><path d="M100 400V300H50V250H100V50H150V250H300V300H150V400ZM150 50V0H250V50ZM250 100V50H300V100Z" fill="#ededed" fill-opacity="1" transform="translate(258.73 136.00) scale(0.03273 -0.03273)"/><path d="M150 250V50H50V0H300V50H200V300H50V250ZM150 400V350H200V400Z" fill="#ededed" fill-opacity="1" transform="translate(270.18 136.00) scale(0.03273 -0.03273)"/><path d="M50 300V150H100V300ZM250 300V150H300V300ZM150 50V150H100V50ZM150 50V0H200V50ZM200 150V50H250V150Z" fill="#ededed" fill-opacity="1" transform="translate(281.64 136.00) scale(0.03273 -0.03273)"/><path d="M100 300V250H250V300ZM50 250V50H100V150H300V250H250V200H100V250ZM100 50V0H250V50ZM250 100V50H300V100Z" fill="#ededed" fill-opacity="1" transform="translate(293.09 136.00) scale(0.03273 -0.03273)"/><path d="M150 250V150H200V250Z" fill="#ededed" fill-opacity="1" transform="translate(316.00 136.00) scale(0.03273 -0.03273)"/><path d="M50 400V0H300V50H100V200H250V250H100V350H300V400Z" fill="#ededed" fill-opacity="1" transform="translate(338.91 136.00) scale(0.03273 -0.03273)"/><path d="M50 300V250H100V300ZM250 300V250H300V300ZM50 100V0H100V100ZM200 250V200H250V250ZM100 250V200H150V250ZM150 200V150H200V200ZM100 150V100H150V150ZM200 150V100H250V150ZM250 100V0H300V100Z" fill="#ededed" fill-opacity="1" transform="translate(350.36 136.00) scale(0.03273 -0.03273)"/><path d="M50 300V-100H100V50H150V100H100V200H150V250H100V300ZM150 300V250H250V300ZM250 250V50H300V250ZM150 50V0H250V50Z" fill="#ededed" fill-opacity="1" transform="translate(361.82 136.00) scale(0.03273 -0.03273)"/><path d="M100 300V250H250V300ZM250 250V50H300V250ZM50 250V50H100V250ZM100 50V0H250V50Z" fill="#ededed" fill-opacity="1" transform="translate(373.27 136.00) scale(0.03273 -0.03273)"/><path d="M150 100V0H200V100Z" fill="#ededed" fill-opacity="1" transform="translate(384.73 136.00) scale(0.03273 -0.03273)"/><path d="M50 400V150H100V400ZM100 150V0H150V150ZM250 400V150H300V400ZM200 150V0H250V150ZM150 250V150H200V250Z" fill="#ededed" fill-opacity="1" transform="translate(430.55 136.00) scale(0.03273 -0.03273)"/><path d="M100 300V250H250V300ZM50 250V50H100V150H300V250H250V200H100V250ZM100 50V0H250V50ZM250 100V50H300V100Z" fill="#ededed" fill-opacity="1" transform="translate(442.00 136.00) scale(0.03273 -0.03273)"/><path d="M50 400V0H100V50H150V100H100V200H150V250H100V400ZM150 50V0H250V50ZM250 250V50H300V250ZM150 300V250H250V300Z" fill="#ededed" fill-opacity="1" transform="translate(453.45 136.00) scale(0.03273 -0.03273)"/><path d="M250 200H100V150H250Z" fill="#ededed" fill-opacity="1" transform="translate(476.36 136.00) scale(0.03273 -0.03273)"/><path d="M50 400V0H100V250H150V300H100V400ZM250 150V0H300V400H250V200H200V150ZM200 200V250H150V200Z" fill="#ededed" fill-opacity="1" transform="translate(499.27 136.00) scale(0.03273 -0.03273)"/><path d="M100 300V250H250V300ZM50 250V50H100V150H300V250H250V200H100V250ZM100 50V0H250V50ZM250 100V50H300V100Z" fill="#ededed" fill-opacity="1" transform="translate(510.73 136.00) scale(0.03273 -0.03273)"/><path d="M50 300V250H100V300ZM250 300V250H300V300ZM50 100V0H100V100ZM200 250V200H250V250ZM100 250V200H150V250ZM150 200V150H200V200ZM100 150V100H150V150ZM200 150V100H250V150ZM250 100V0H300V100Z" fill="#ededed" fill-opacity="1" transform="translate(522.18 136.00) scale(0.03273 -0.03273)"/><path d="M100 400V300H50V250H100V50H150V250H300V300H150V400ZM150 50V0H250V50ZM250 100V50H300V100Z" fill="#ededed" fill-opacity="1" transform="translate(533.64 136.00) scale(0.03273 -0.03273)"/><path d="M150 100V0H200V100Z" fill="#ededed" fill-opacity="1" transform="translate(545.09 136.00) scale(0.03273 -0.03273)"/><path d="M200 400V350H250V400ZM200 250V-50H250V300H100V250ZM200 -50H100V-100H200ZM100 -50V0H50V-50Z" fill="#ededed" fill-opacity="1" transform="translate(556.55 136.00) scale(0.03273 -0.03273)"/><path d="M250 50H100V0H250ZM100 50V100H50V50ZM250 300H100V250H250ZM50 250V200H100V250ZM100 200V150H250V200ZM250 150V50H300V150ZM250 250V200H300V250Z" fill="#ededed" fill-opacity="1" transform="translate(568.00 136.00) scale(0.03273 -0.03273)"/><path d="M150 100V0H200V100Z" fill="#ededed" fill-opacity="1" transform="translate(579.45 136.00) scale(0.03273 -0.03273)"/>
<path d="M50 350V50H100V350ZM100 50V0H250V50ZM250 100V50H300V100ZM100 400V350H250V400ZM250 350V300H300V350Z" fill="#ededed" fill-opacity="1" transform="translate(64.00 166.00) scale(0.03273 -0.03273)"/><path d="M150 350V50H50V0H300V50H200V400H50V350Z" fill="#ededed" fill-opacity="1" transform="translate(75.45 166.00) scale(0.03273 -0.03273)"/><path d="M100 300V250H250V300ZM50 250V50H100V150H300V250H250V200H100V250ZM100 50V0H250V50ZM250 100V50H300V100Z" fill="#ededed" fill-opacity="1" transform="translate(86.91 166.00) scale(0.03273 -0.03273)"/><path d="M50 150V50H100V150ZM100 50V0H200V50ZM200 100V50H250V0H300V250H250V200H100V150H250V100ZM100 300V250H250V300Z" fill="#ededed" fill-opacity="1" transform="translate(98.36 166.00) scale(0.03273 -0.03273)"/><path d="M50 300V0H100V200H150V250H100V300ZM150 300V250H250V300ZM250 250V0H300V250Z" fill="#ededed" fill-opacity="1" transform="translate(109.82 166.00) scale(0.03273 -0.03273)"/><path d="M50 150V50H100V150ZM100 50V0H200V50ZM200 100V50H250V0H300V250H250V200H100V150H250V100ZM100 300V250H250V300Z" fill="#ededed" fill-opacity="1" transform="translate(132.73 166.00) scale(0.03273 -0.03273)"/><path d="M150 300H50V250H100V50H50V0H250V50H150V200H200V250H150ZM300 300H200V250H300Z" fill="#ededed" fill-opacity="1" transform="translate(144.18 166.00) scale(0.03273 -0.03273)"/><path d="M100 300V250H250V300ZM50 250V50H100V250ZM100 50V0H250V50ZM250 250V200H300V250ZM250 100V50H300V100Z" fill="#ededed" fill-opacity="1" transform="translate(155.64 166.00) scale(0.03273 -0.03273)"/><path d="M50 400V0H100V200H150V250H100V400ZM250 250V0H300V250ZM150 300V250H250V300Z" fill="#ededed" fill-opacity="1" transform="translate(167.09 166.00) scale(0.03273 -0.03273)"/><path d="M150 250V50H50V0H300V50H200V300H50V250ZM150 400V350H200V400Z" fill="#ededed" fill-opacity="1" transform="translate(178.55 166.00) scale(0.03273 -0.03273)"/><path d="M100 400V300H50V250H100V50H150V250H300V300H150V400ZM150 50V0H250V50ZM250 100V50H300V100Z" fill="#ededed" fill-opacity="1" transform="translate(190.00 166.00) scale(0.03273 -0.03273)"/><path d="M100 300V250H250V300ZM50 250V50H100V150H300V250H250V200H100V250ZM100 50V0H250V50ZM250 100V50H300V100Z" fill="#ededed" fill-opacity="1" transform="translate(201.45 166.00) scale(0.03273 -0.03273)"/><path d="M100 300V250H250V300ZM50 250V50H100V250ZM100 50V0H250V50ZM250 250V200H300V250ZM250 100V50H300V100Z" fill="#ededed" fill-opacity="1" transform="translate(212.91 166.00) scale(0.03273 -0.03273)"/><path d="M100 400V300H50V250H100V50H150V250H300V300H150V400ZM150 50V0H250V50ZM250 100V50H300V100Z" fill="#ededed" fill-opacity="1" transform="translate(224.36 166.00) scale(0.03273 -0.03273)"/><path d="M50 300V50H100V300ZM100 50V0H200V50ZM250 300V100H200V50H250V0H300V300Z" fill="#ededed" fill-opacity="1" transform="translate(235.82 166.00) scale(0.03273 -0.03273)"/><path d="M150 300H50V250H100V50H50V0H250V50H150V200H200V250H150ZM300 300H200V250H300Z" fill="#ededed" fill-opacity="1" transform="translate(247.27 166.00) scale(0.03273 -0.03273)"/><path d="M100 300V250H250V300ZM50 250V50H100V150H300V250H250V200H100V250ZM100 50V0H250V50ZM250 100V50H300V100Z" fill="#ededed" fill-opacity="1" transform="translate(258.73 166.00) scale(0.03273 -0.03273)"/><path d="M150 100V0H200V100ZM100 0V-50H150V0Z" fill="#ededed" fill-opacity="1" transform="translate(270.18 166.00) scale(0.03273 -0.03273)"/><path d="M250 50H100V0H250ZM100 50V100H50V50ZM250 300H100V250H250ZM50 250V200H100V250ZM100 200V150H250V200ZM250 150V50H300V150ZM250 250V200H300V250Z" fill="#ededed" fill-opacity="1" transform="translate(293.09 166.00) scale(0.03273 -0.03273)"/><path d="M50 400V0H100V200H150V250H100V400ZM250 250V0H300V250ZM150 300V250H250V300Z" fill="#ededed" fill-opacity="1" transform="translate(304.55 166.00) scale(0.03273 -0.03273)"/><path d="M50 150V50H100V150ZM100 50V0H200V50ZM200 100V50H250V0H300V250H250V200H100V150H250V100ZM100 300V250H250V300Z" fill="#ededed" fill-opacity="1" transform="translate(316.00 166.00) scale(0.03273 -0.03273)"/><path d="M150 300H50V250H100V50H50V0H250V50H150V200H200V250H150ZM300 300H200V250H300Z" fill="#ededed" fill-opacity="1" transform="translate(327.45 166.00) scale(0.03273 -0.03273)"/><path d="M50 300V-100H100V50H150V100H100V200H150V250H100V300ZM150 300V250H250V300ZM250 250V50H300V250ZM150 50V0H250V50Z" fill="#ededed" fill-opacity="1" transform="translate(338.91 166.00) scale(0.03273 -0.03273)"/><path d="M50 400V0H250V50H100V350H250V400ZM250 350V50H300V350Z" fill="#ededed" fill-opacity="1" transform="translate(361.82 166.00) scale(0.03273 -0.03273)"/><path d="M250 150V0H300V150ZM50 150V0H100V150ZM150 250V300H100V250ZM150 250V200H200V250ZM200 300V250H250V300ZM100 300V400H50V300ZM100 200V150H150V200ZM250 400V300H300V400ZM200 200V150H250V200Z" fill="#ededed" fill-opacity="1" transform="translate(373.27 166.00) scale(0.03273 -0.03273)"/><path d="M150 100V0H200V100ZM100 0V-50H150V0Z" fill="#ededed" fill-opacity="1" transform="translate(384.73 166.00) scale(0.03273 -0.03273)"/><path d="M50 400V50H100V400ZM100 50V0H250V50ZM250 400V50H300V400Z" fill="#ededed" fill-opacity="1" transform="translate(407.64 166.00) scale(0.03273 -0.03273)"/><path d="M150 50H50V0H300V50H200V350H300V400H50V350H150Z" fill="#ededed" fill-opacity="1" transform="translate(419.09 166.00) scale(0.03273 -0.03273)"/><path d="M100 400V300H50V250H100V50H150V250H300V300H150V400ZM150 50V0H250V50ZM250 100V50H300V100Z" fill="#ededed" fill-opacity="1" transform="translate(442.00 166.00) scale(0.03273 -0.03273)"/><path d="M50 400V0H100V200H150V250H100V400ZM250 250V0H300V250ZM150 300V250H250V300Z" fill="#ededed" fill-opacity="1" transform="translate(453.45 166.00) scale(0.03273 -0.03273)"/><path d="M50 150V50H100V150ZM100 50V0H200V50ZM200 100V50H250V0H300V250H250V200H100V150H250V100ZM100 300V250H250V300Z" fill="#ededed" fill-opacity="1" transform="translate(464.91 166.00) scale(0.03273 -0.03273)"/><path d="M100 400V300H50V250H100V50H150V250H300V300H150V400ZM150 50V0H250V50ZM250 100V50H300V100Z" fill="#ededed" fill-opacity="1" transform="translate(476.36 166.00) scale(0.03273 -0.03273)"/><path d="M200 400V350H250V400ZM200 250V-50H250V300H100V250ZM200 -50H100V-100H200ZM100 -50V0H50V-50Z" fill="#ededed" fill-opacity="1" transform="translate(499.27 166.00) scale(0.03273 -0.03273)"/><path d="M50 300V50H100V300ZM100 50V0H200V50ZM250 300V100H200V50H250V0H300V300Z" fill="#ededed" fill-opacity="1" transform="translate(510.73 166.00) scale(0.03273 -0.03273)"/><path d="M250 50H100V0H250ZM100 50V100H50V50ZM250 300H100V250H250ZM50 250V200H100V250ZM100 200V150H250V200ZM250 150V50H300V150ZM250 250V200H300V250Z" fill="#ededed" fill-opacity="1" transform="translate(522.18 166.00) scale(0.03273 -0.03273)"/><path d="M100 400V300H50V250H100V50H150V250H300V300H150V400ZM150 50V0H250V50ZM250 100V50H300V100Z" fill="#ededed" fill-opacity="1" transform="translate(533.64 166.00) scale(0.03273 -0.03273)"/><path d="M50 300V50H100V300ZM250 300V50H200V0H300V300ZM200 50V300H150V50ZM100 50V0H150V50Z" fill="#ededed" fill-opacity="1" transform="translate(556.55 166.00) scale(0.03273 -0.03273)"/><path d="M100 300V250H250V300ZM250 250V50H300V250ZM50 250V50H100V250ZM100 50V0H250V50Z" fill="#ededed" fill-opacity="1" transform="translate(568.00 166.00) scale(0.03273 -0.03273)"/><path d="M150 300H50V250H100V50H50V0H250V50H150V200H200V250H150ZM300 300H200V250H300Z" fill="#ededed" fill-opacity="1" transform="translate(579.45 166.00) scale(0.03273 -0.03273)"/><path d="M50 400V0H100V100H200V200H150V150H100V400ZM250 300V250H300V300ZM200 250V200H250V250ZM200 100V50H250V100ZM250 50V0H300V50Z" fill="#ededed" fill-opacity="1" transform="translate(590.91 166.00) scale(0.03273 -0.03273)"/><path d="M250 50H100V0H250ZM100 50V100H50V50ZM250 300H100V250H250ZM50 250V200H100V250ZM100 200V150H250V200ZM250 150V50H300V150ZM250 250V200H300V250Z" fill="#ededed" fill-opacity="1" transform="translate(602.36 166.00) scale(0.03273 -0.03273)"/><path d="M150 100V0H200V100Z" fill="#ededed" fill-opacity="1" transform="translate(613.82 166.00) scale(0.03273 -0.03273)"/>
<path d="M50 400V0H250V50H100V350H250V400ZM250 350V50H300V350Z" fill="#ededed" fill-opacity="1" transform="translate(64.00 196.00) scale(0.03273 -0.03273)"/><path d="M100 300V250H250V300ZM50 250V50H100V150H300V250H250V200H100V250ZM100 50V0H250V50ZM250 100V50H300V100Z" fill="#ededed" fill-opacity="1" transform="translate(75.45 196.00) scale(0.03273 -0.03273)"/><path d="M50 300V150H100V300ZM250 300V150H300V300ZM150 50V150H100V50ZM150 50V0H200V50ZM200 150V50H250V150Z" fill="#ededed" fill-opacity="1" transform="translate(86.91 196.00) scale(0.03273 -0.03273)"/><path d="M100 400V300H50V250H100V50H150V250H300V300H150V400ZM150 50V0H250V50ZM250 100V50H300V100Z" fill="#ededed" fill-opacity="1" transform="translate(109.82 196.00) scale(0.03273 -0.03273)"/><path d="M100 300V250H250V300ZM250 250V50H300V250ZM50 250V50H100V250ZM100 50V0H250V50Z" fill="#ededed" fill-opacity="1" transform="translate(121.27 196.00) scale(0.03273 -0.03273)"/><path d="M100 300V250H250V300ZM250 250V50H300V250ZM50 250V50H100V250ZM100 50V0H250V50Z" fill="#ededed" fill-opacity="1" transform="translate(132.73 196.00) scale(0.03273 -0.03273)"/><path d="M150 350V50H50V0H300V50H200V400H50V350Z" fill="#ededed" fill-opacity="1" transform="translate(144.18 196.00) scale(0.03273 -0.03273)"/><path d="M150 250V50H50V0H300V50H200V300H50V250ZM150 400V350H200V400Z" fill="#ededed" fill-opacity="1" transform="translate(155.64 196.00) scale(0.03273 -0.03273)"/><path d="M50 300V0H100V200H150V250H100V300ZM150 300V250H250V300ZM250 250V0H300V250Z" fill="#ededed" fill-opacity="1" transform="translate(167.09 196.00) scale(0.03273 -0.03273)"/><path d="M100 300V250H200V300ZM50 250V50H100V250ZM100 50V0H200V50ZM100 -50V-100H250V-50ZM200 100V50H250V-50H300V300H250V250H200V200H250V100Z" fill="#ededed" fill-opacity="1" transform="translate(178.55 196.00) scale(0.03273 -0.03273)"/><path d="M100 250V350H50V250ZM100 250V200H150V250ZM100 50V200H50V50ZM100 50V0H200V50ZM100 400V350H200V400ZM300 200H200V50H250V150H300ZM200 350V300H250V350ZM300 250V200H350V250Z" fill="#ededed" fill-opacity="1" transform="translate(201.45 196.00) scale(0.03273 -0.03273)"/><path d="M50 300V0H100V150H250V0H300V300H250V200H100V300ZM150 400V350H200V400ZM100 350V300H150V350ZM200 350V300H250V350Z" fill="#ededed" fill-opacity="1" transform="translate(224.36 196.00) scale(0.03273 -0.03273)"/><path d="M150 50H50V0H300V50H200V350H300V400H50V350H150Z" fill="#ededed" fill-opacity="1" transform="translate(235.82 196.00) scale(0.03273 -0.03273)"/><path d="M100 300V250H250V300ZM250 250V50H300V250ZM50 250V50H100V250ZM100 50V0H250V50Z" fill="#ededed" fill-opacity="1" transform="translate(258.73 196.00) scale(0.03273 -0.03273)"/><path d="M50 300V0H100V200H150V250H100V300ZM150 300V250H250V300ZM250 250V0H300V250Z" fill="#ededed" fill-opacity="1" transform="translate(270.18 196.00) scale(0.03273 -0.03273)"/><path d="M100 400V300H50V250H100V50H150V250H300V300H150V400ZM150 50V0H250V50ZM250 100V50H300V100Z" fill="#ededed" fill-opacity="1" transform="translate(293.09 196.00) scale(0.03273 -0.03273)"/><path d="M50 400V0H100V200H150V250H100V400ZM250 250V0H300V250ZM150 300V250H250V300Z" fill="#ededed" fill-opacity="1" transform="translate(304.55 196.00) scale(0.03273 -0.03273)"/><path d="M100 300V250H250V300ZM50 250V50H100V150H300V250H250V200H100V250ZM100 50V0H250V50ZM250 100V50H300V100Z" fill="#ededed" fill-opacity="1" transform="translate(316.00 196.00) scale(0.03273 -0.03273)"/><path d="M250 50H100V0H250ZM100 50V100H50V50ZM250 300H100V250H250ZM50 250V200H100V250ZM100 200V150H250V200ZM250 150V50H300V150ZM250 250V200H300V250Z" fill="#ededed" fill-opacity="1" transform="translate(338.91 196.00) scale(0.03273 -0.03273)"/><path d="M150 250V50H50V0H300V50H200V300H50V250ZM150 400V350H200V400Z" fill="#ededed" fill-opacity="1" transform="translate(350.36 196.00) scale(0.03273 -0.03273)"/><path d="M250 400V250H200V200H250V100H200V50H250V0H300V400ZM200 50H100V0H200ZM100 50V250H50V50ZM200 250V300H100V250Z" fill="#ededed" fill-opacity="1" transform="translate(361.82 196.00) scale(0.03273 -0.03273)"/><path d="M100 300V250H250V300ZM50 250V50H100V150H300V250H250V200H100V250ZM100 50V0H250V50ZM250 100V50H300V100Z" fill="#ededed" fill-opacity="1" transform="translate(373.27 196.00) scale(0.03273 -0.03273)"/><path d="M150 100V0H200V100Z" fill="#ededed" fill-opacity="1" transform="translate(384.73 196.00) scale(0.03273 -0.03273)"/><path d="M50 400V0H100V250H150V300H100V400ZM250 250V0H300V400H250V300H200V250ZM150 250V150H200V250Z" fill="#ededed" fill-opacity="1" transform="translate(407.64 196.00) scale(0.03273 -0.03273)"/><path d="M100 300V250H250V300ZM250 250V50H300V250ZM50 250V50H100V250ZM100 50V0H250V50Z" fill="#ededed" fill-opacity="1" transform="translate(419.09 196.00) scale(0.03273 -0.03273)"/><path d="M50 300V50H100V300ZM100 50V0H200V50ZM250 300V100H200V50H250V0H300V300Z" fill="#ededed" fill-opacity="1" transform="translate(430.55 196.00) scale(0.03273 -0.03273)"/><path d="M50 300V0H100V200H150V250H100V300ZM150 300V250H250V300ZM250 250V0H300V250Z" fill="#ededed" fill-opacity="1" transform="translate(442.00 196.00) scale(0.03273 -0.03273)"/><path d="M100 400V300H50V250H100V50H150V250H300V300H150V400ZM150 50V0H250V50ZM250 100V50H300V100Z" fill="#ededed" fill-opacity="1" transform="translate(453.45 196.00) scale(0.03273 -0.03273)"/><path d="M50 150V50H100V150ZM100 50V0H200V50ZM200 100V50H250V0H300V250H250V200H100V150H250V100ZM100 300V250H250V300Z" fill="#ededed" fill-opacity="1" transform="translate(464.91 196.00) scale(0.03273 -0.03273)"/><path d="M150 250V50H50V0H300V50H200V300H50V250ZM150 400V350H200V400Z" fill="#ededed" fill-opacity="1" transform="translate(476.36 196.00) scale(0.03273 -0.03273)"/><path d="M50 300V0H100V200H150V250H100V300ZM150 300V250H250V300ZM250 250V0H300V250Z" fill="#ededed" fill-opacity="1" transform="translate(487.82 196.00) scale(0.03273 -0.03273)"/><path d="M250 50H100V0H250ZM100 50V100H50V50ZM250 300H100V250H250ZM50 250V200H100V250ZM100 200V150H250V200ZM250 150V50H300V150ZM250 250V200H300V250Z" fill="#ededed" fill-opacity="1" transform="translate(499.27 196.00) scale(0.03273 -0.03273)"/><path d="M100 300V250H250V300ZM250 250V50H300V250ZM50 250V50H100V250ZM100 50V0H250V50Z" fill="#ededed" fill-opacity="1" transform="translate(522.18 196.00) scale(0.03273 -0.03273)"/><path d="M100 250V50H50V0H250V50H150V250H300V300H150V350H100V300H50V250ZM150 400V350H300V400Z" fill="#ededed" fill-opacity="1" transform="translate(533.64 196.00) scale(0.03273 -0.03273)"/><path d="M100 250V50H50V0H250V50H150V250H300V300H150V350H100V300H50V250ZM150 400V350H300V400Z" fill="#ededed" fill-opacity="1" transform="translate(545.09 196.00) scale(0.03273 -0.03273)"/><path d="M250 200H100V150H250Z" fill="#ededed" fill-opacity="1" transform="translate(556.55 196.00) scale(0.03273 -0.03273)"/><path d="M250 50H100V0H250ZM100 50V100H50V50ZM250 300H100V250H250ZM50 250V200H100V250ZM100 200V150H250V200ZM250 150V50H300V150ZM250 250V200H300V250Z" fill="#ededed" fill-opacity="1" transform="translate(568.00 196.00) scale(0.03273 -0.03273)"/><path d="M100 300V250H250V300ZM50 250V50H100V250ZM100 50V0H250V50ZM250 250V200H300V250ZM250 100V50H300V100Z" fill="#ededed" fill-opacity="1" transform="translate(579.45 196.00) scale(0.03273 -0.03273)"/><path d="M150 300H50V250H100V50H50V0H250V50H150V200H200V250H150ZM300 300H200V250H300Z" fill="#ededed" fill-opacity="1" transform="translate(590.91 196.00) scale(0.03273 -0.03273)"/><path d="M100 300V250H250V300ZM50 250V50H100V150H300V250H250V200H100V250ZM100 50V0H250V50ZM250 100V50H300V100Z" fill="#ededed" fill-opacity="1" transform="translate(602.36 196.00) scale(0.03273 -0.03273)"/><path d="M100 300V250H250V300ZM50 250V50H100V150H300V250H250V200H100V250ZM100 50V0H250V50ZM250 100V50H300V100Z" fill="#ededed" fill-opacity="1" transform="translate(613.82 196.00) scale(0.03273 -0.03273)"/><path d="M50 300V0H100V200H150V250H100V300ZM150 300V250H250V300ZM250 250V0H300V250Z" fill="#ededed" fill-opacity="1" transform="translate(625.27 196.00) scale(0.03273 -0.03273)"/><path d="M150 100V0H200V100Z" fill="#ededed" fill-opacity="1" transform="translate(636.73 196.00) scale(0.03273 -0.03273)"/>
<path d="M50 400V0H300V50H100V200H250V250H100V350H300V400Z" fill="#7d828c" fill-opacity="1" transform="translate(64.00 256.00) scale(0.03273 -0.03273)"/><path d="M50 350V250H100V350ZM100 250V200H250V250ZM250 50H100V0H250ZM100 50V100H50V50ZM250 200V50H300V200ZM100 400V350H250V400ZM250 350V300H300V350Z" fill="#7d828c" fill-opacity="1" transform="translate(75.45 256.00) scale(0.03273 -0.03273)"/><path d="M150 250V150H200V250Z" fill="#7d828c" fill-opacity="1" transform="translate(98.36 256.00) scale(0.03273 -0.03273)"/><path d="M50 400V0H100V150H250V200H100V350H250V400ZM250 350V200H300V350Z" fill="#7d828c" fill-opacity="1" transform="translate(121.27 256.00) scale(0.03273 -0.03273)"/><path d="M150 300H50V250H100V50H50V0H250V50H150V200H200V250H150ZM300 300H200V250H300Z" fill="#7d828c" fill-opacity="1" transform="translate(132.73 256.00) scale(0.03273 -0.03273)"/><path d="M100 300V250H250V300ZM250 250V50H300V250ZM50 250V50H100V250ZM100 50V0H250V50Z" fill="#7d828c" fill-opacity="1" transform="translate(144.18 256.00) scale(0.03273 -0.03273)"/><path d="M250 400V250H200V200H250V100H200V50H250V0H300V400ZM200 50H100V0H200ZM100 50V250H50V50ZM200 250V300H100V250Z" fill="#7d828c" fill-opacity="1" transform="translate(155.64 256.00) scale(0.03273 -0.03273)"/><path d="M50 300V50H100V300ZM100 50V0H200V50ZM250 300V100H200V50H250V0H300V300Z" fill="#7d828c" fill-opacity="1" transform="translate(167.09 256.00) scale(0.03273 -0.03273)"/><path d="M100 300V250H250V300ZM50 250V50H100V250ZM100 50V0H250V50ZM250 250V200H300V250ZM250 100V50H300V100Z" fill="#7d828c" fill-opacity="1" transform="translate(178.55 256.00) scale(0.03273 -0.03273)"/><path d="M100 400V300H50V250H100V50H150V250H300V300H150V400ZM150 50V0H250V50ZM250 100V50H300V100Z" fill="#7d828c" fill-opacity="1" transform="translate(190.00 256.00) scale(0.03273 -0.03273)"/><path d="M100 300V250H250V300ZM250 250V50H300V250ZM50 250V50H100V250ZM100 50V0H250V50Z" fill="#7d828c" fill-opacity="1" transform="translate(201.45 256.00) scale(0.03273 -0.03273)"/><path d="M250 400V250H200V200H250V100H200V50H250V0H300V400ZM200 50H100V0H200ZM100 50V250H50V50ZM200 250V300H100V250Z" fill="#7d828c" fill-opacity="1" transform="translate(224.36 256.00) scale(0.03273 -0.03273)"/><path d="M100 300V250H250V300ZM50 250V50H100V150H300V250H250V200H100V250ZM100 50V0H250V50ZM250 100V50H300V100Z" fill="#7d828c" fill-opacity="1" transform="translate(235.82 256.00) scale(0.03273 -0.03273)"/><path d="M50 300V-100H100V50H150V100H100V200H150V250H100V300ZM150 300V250H250V300ZM250 250V50H300V250ZM150 50V0H250V50Z" fill="#7d828c" fill-opacity="1" transform="translate(258.73 256.00) scale(0.03273 -0.03273)"/><path d="M50 300V50H100V300ZM100 50V0H200V50ZM250 300V100H200V50H250V0H300V300Z" fill="#7d828c" fill-opacity="1" transform="translate(270.18 256.00) scale(0.03273 -0.03273)"/><path d="M50 300V0H100V200H150V250H100V300ZM150 300V250H250V300ZM250 250V0H300V250Z" fill="#7d828c" fill-opacity="1" transform="translate(281.64 256.00) scale(0.03273 -0.03273)"/><path d="M100 400V300H50V250H100V50H150V250H300V300H150V400ZM150 50V0H250V50ZM250 100V50H300V100Z" fill="#7d828c" fill-opacity="1" transform="translate(293.09 256.00) scale(0.03273 -0.03273)"/><path d="M50 150V50H100V150ZM100 50V0H200V50ZM200 100V50H250V0H300V250H250V200H100V150H250V100ZM100 300V250H250V300Z" fill="#7d828c" fill-opacity="1" transform="translate(304.55 256.00) scale(0.03273 -0.03273)"/><path d="M50 150V50H100V150ZM100 50V0H200V50ZM200 100V50H250V0H300V250H250V200H100V150H250V100ZM100 300V250H250V300Z" fill="#7d828c" fill-opacity="1" transform="translate(327.45 256.00) scale(0.03273 -0.03273)"/><path d="M50 300V-100H100V50H150V100H100V200H150V250H100V300ZM150 300V250H250V300ZM250 250V50H300V250ZM150 50V0H250V50Z" fill="#7d828c" fill-opacity="1" transform="translate(350.36 256.00) scale(0.03273 -0.03273)"/><path d="M50 300V50H100V300ZM100 50V0H200V50ZM250 300V100H200V50H250V0H300V300Z" fill="#7d828c" fill-opacity="1" transform="translate(361.82 256.00) scale(0.03273 -0.03273)"/><path d="M50 300V0H100V200H150V250H100V300ZM150 300V250H250V300ZM250 250V0H300V250Z" fill="#7d828c" fill-opacity="1" transform="translate(373.27 256.00) scale(0.03273 -0.03273)"/><path d="M100 400V300H50V250H100V50H150V250H300V300H150V400ZM150 50V0H250V50ZM250 100V50H300V100Z" fill="#7d828c" fill-opacity="1" transform="translate(384.73 256.00) scale(0.03273 -0.03273)"/><path d="M50 150V50H100V150ZM100 50V0H200V50ZM200 100V50H250V0H300V250H250V200H100V150H250V100ZM100 300V250H250V300Z" fill="#7d828c" fill-opacity="1" transform="translate(396.18 256.00) scale(0.03273 -0.03273)"/><path d="M150 100V0H200V100Z" fill="#7d828c" fill-opacity="1" transform="translate(407.64 256.00) scale(0.03273 -0.03273)"/><path d="M50 400V0H100V250H150V300H100V400ZM250 250V0H300V400H250V300H200V250ZM150 250V150H200V250Z" fill="#7d828c" fill-opacity="1" transform="translate(430.55 256.00) scale(0.03273 -0.03273)"/><path d="M100 300V250H250V300ZM250 250V50H300V250ZM50 250V50H100V250ZM100 50V0H250V50Z" fill="#7d828c" fill-opacity="1" transform="translate(442.00 256.00) scale(0.03273 -0.03273)"/><path d="M50 400V0H100V50H150V100H100V200H150V250H100V400ZM150 50V0H250V50ZM250 250V50H300V250ZM150 300V250H250V300Z" fill="#7d828c" fill-opacity="1" transform="translate(453.45 256.00) scale(0.03273 -0.03273)"/><path d="M150 250V50H50V0H300V50H200V300H50V250ZM150 400V350H200V400Z" fill="#7d828c" fill-opacity="1" transform="translate(464.91 256.00) scale(0.03273 -0.03273)"/><path d="M150 350V50H50V0H300V50H200V400H50V350Z" fill="#7d828c" fill-opacity="1" transform="translate(476.36 256.00) scale(0.03273 -0.03273)"/><path d="M100 300V250H250V300ZM50 250V50H100V150H300V250H250V200H100V250ZM100 50V0H250V50ZM250 100V50H300V100Z" fill="#7d828c" fill-opacity="1" transform="translate(487.82 256.00) scale(0.03273 -0.03273)"/><path d="M50 300V150H100V300ZM250 300V150H300V300ZM150 50V-50H200V50ZM150 -50H50V-100H150ZM200 150V50H250V150ZM100 150V50H150V150Z" fill="#7d828c" fill-opacity="1" transform="translate(510.73 256.00) scale(0.03273 -0.03273)"/><path d="M50 300V50H100V300ZM250 300V50H200V0H300V300ZM200 50V300H150V50ZM100 50V0H150V50Z" fill="#7d828c" fill-opacity="1" transform="translate(533.64 256.00) scale(0.03273 -0.03273)"/><path d="M100 300V250H250V300ZM50 250V50H100V150H300V250H250V200H100V250ZM100 50V0H250V50ZM250 100V50H300V100Z" fill="#7d828c" fill-opacity="1" transform="translate(545.09 256.00) scale(0.03273 -0.03273)"/><path d="M50 400V0H100V50H150V100H100V200H150V250H100V400ZM150 50V0H250V50ZM250 250V50H300V250ZM150 300V250H250V300Z" fill="#7d828c" fill-opacity="1" transform="translate(556.55 256.00) scale(0.03273 -0.03273)"/><path d="M150 100V0H200V100Z" fill="#7d828c" fill-opacity="1" transform="translate(568.00 256.00) scale(0.03273 -0.03273)"/>
<path d="M50 300V0H100V150H250V0H300V300H250V200H100V300ZM150 400V350H200V400ZM100 350V300H150V350ZM200 350V300H250V350Z" fill="#7d828c" fill-opacity="1" transform="translate(64.00 286.00) scale(0.03273 -0.03273)"/><path d="M150 300H50V250H100V50H50V0H250V50H150V200H200V250H150ZM300 300H200V250H300Z" fill="#7d828c" fill-opacity="1" transform="translate(75.45 286.00) scale(0.03273 -0.03273)"/><path d="M100 300V250H200V300ZM200 250V200H250V100H200V50H250V-100H300V300H250V250ZM50 250V50H100V250ZM100 50V0H200V50Z" fill="#7d828c" fill-opacity="1" transform="translate(86.91 286.00) scale(0.03273 -0.03273)"/><path d="M50 300V50H100V300ZM100 50V0H200V50ZM250 300V100H200V50H250V0H300V300Z" fill="#7d828c" fill-opacity="1" transform="translate(98.36 286.00) scale(0.03273 -0.03273)"/><path d="M150 250V50H50V0H300V50H200V300H50V250ZM150 400V350H200V400Z" fill="#7d828c" fill-opacity="1" transform="translate(109.82 286.00) scale(0.03273 -0.03273)"/><path d="M100 400V300H50V250H100V50H150V250H300V300H150V400ZM150 50V0H250V50ZM250 100V50H300V100Z" fill="#7d828c" fill-opacity="1" transform="translate(121.27 286.00) scale(0.03273 -0.03273)"/><path d="M100 300V250H250V300ZM50 250V50H100V150H300V250H250V200H100V250ZM100 50V0H250V50ZM250 100V50H300V100Z" fill="#7d828c" fill-opacity="1" transform="translate(132.73 286.00) scale(0.03273 -0.03273)"/><path d="M100 300V250H250V300ZM50 250V50H100V250ZM100 50V0H250V50ZM250 250V200H300V250ZM250 100V50H300V100Z" fill="#7d828c" fill-opacity="1" transform="translate(144.18 286.00) scale(0.03273 -0.03273)"/><path d="M100 400V300H50V250H100V50H150V250H300V300H150V400ZM150 50V0H250V50ZM250 100V50H300V100Z" fill="#7d828c" fill-opacity="1" transform="translate(155.64 286.00) scale(0.03273 -0.03273)"/><path d="M50 300V50H100V300ZM100 50V0H200V50ZM250 300V100H200V50H250V0H300V300Z" fill="#7d828c" fill-opacity="1" transform="translate(167.09 286.00) scale(0.03273 -0.03273)"/><path d="M150 300H50V250H100V50H50V0H250V50H150V200H200V250H150ZM300 300H200V250H300Z" fill="#7d828c" fill-opacity="1" transform="translate(178.55 286.00) scale(0.03273 -0.03273)"/><path d="M50 150V50H100V150ZM100 50V0H200V50ZM200 100V50H250V0H300V250H250V200H100V150H250V100ZM100 300V250H250V300Z" fill="#7d828c" fill-opacity="1" transform="translate(190.00 286.00) scale(0.03273 -0.03273)"/><path d="M150 350V50H50V0H300V50H200V400H50V350Z" fill="#7d828c" fill-opacity="1" transform="translate(212.91 286.00) scale(0.03273 -0.03273)"/><path d="M150 250V50H50V0H300V50H200V300H50V250ZM150 400V350H200V400Z" fill="#7d828c" fill-opacity="1" transform="translate(224.36 286.00) scale(0.03273 -0.03273)"/><path d="M50 300V0H100V250H150V300ZM150 250V0H200V250ZM250 250V300H200V250ZM250 250V0H300V250Z" fill="#7d828c" fill-opacity="1" transform="translate(235.82 286.00) scale(0.03273 -0.03273)"/><path d="M50 300V-100H100V50H150V100H100V200H150V250H100V300ZM150 300V250H250V300ZM250 250V50H300V250ZM150 50V0H250V50Z" fill="#7d828c" fill-opacity="1" transform="translate(247.27 286.00) scale(0.03273 -0.03273)"/><path d="M150 250V50H50V0H300V50H200V300H50V250ZM150 400V350H200V400Z" fill="#7d828c" fill-opacity="1" transform="translate(258.73 286.00) scale(0.03273 -0.03273)"/><path d="M50 150V50H100V150ZM100 50V0H200V50ZM200 100V50H250V0H300V250H250V200H100V150H250V100ZM100 300V250H250V300Z" fill="#7d828c" fill-opacity="1" transform="translate(270.18 286.00) scale(0.03273 -0.03273)"/><path d="M150 100V0H200V100ZM100 0V-50H150V0Z" fill="#7d828c" fill-opacity="1" transform="translate(281.64 286.00) scale(0.03273 -0.03273)"/><path d="M50 400V0H100V50H150V100H100V200H150V250H100V400ZM150 50V0H250V50ZM250 250V50H300V250ZM150 300V250H250V300Z" fill="#7d828c" fill-opacity="1" transform="translate(304.55 286.00) scale(0.03273 -0.03273)"/><path d="M50 300V50H100V300ZM100 50V0H200V50ZM250 300V100H200V50H250V0H300V300Z" fill="#7d828c" fill-opacity="1" transform="translate(316.00 286.00) scale(0.03273 -0.03273)"/><path d="M100 300V250H250V300ZM50 250V50H100V150H300V250H250V200H100V250ZM100 50V0H250V50ZM250 100V50H300V100Z" fill="#7d828c" fill-opacity="1" transform="translate(327.45 286.00) scale(0.03273 -0.03273)"/><path d="M50 300V0H100V200H150V250H100V300ZM150 300V250H250V300ZM250 250V0H300V250Z" fill="#7d828c" fill-opacity="1" transform="translate(338.91 286.00) scale(0.03273 -0.03273)"/><path d="M50 150V50H100V150ZM100 50V0H200V50ZM200 100V50H250V0H300V250H250V200H100V150H250V100ZM100 300V250H250V300Z" fill="#7d828c" fill-opacity="1" transform="translate(350.36 286.00) scale(0.03273 -0.03273)"/><path d="M50 400V0H250V50H100V350H250V400ZM250 350V50H300V350Z" fill="#7d828c" fill-opacity="1" transform="translate(373.27 286.00) scale(0.03273 -0.03273)"/><path d="M250 150V0H300V150ZM50 150V0H100V150ZM150 250V300H100V250ZM150 250V200H200V250ZM200 300V250H250V300ZM100 300V400H50V300ZM100 200V150H150V200ZM250 400V300H300V400ZM200 200V150H250V200Z" fill="#7d828c" fill-opacity="1" transform="translate(384.73 286.00) scale(0.03273 -0.03273)"/><path d="M150 100V0H200V100ZM100 0V-50H150V0Z" fill="#7d828c" fill-opacity="1" transform="translate(396.18 286.00) scale(0.03273 -0.03273)"/><path d="M50 400V50H100V400ZM100 50V0H250V50ZM250 400V50H300V400Z" fill="#7d828c" fill-opacity="1" transform="translate(419.09 286.00) scale(0.03273 -0.03273)"/><path d="M150 50H50V0H300V50H200V350H300V400H50V350H150Z" fill="#7d828c" fill-opacity="1" transform="translate(430.55 286.00) scale(0.03273 -0.03273)"/><path d="M100 300V250H200V300ZM200 250V200H250V100H200V50H250V-100H300V300H250V250ZM50 250V50H100V250ZM100 50V0H200V50Z" fill="#7d828c" fill-opacity="1" transform="translate(453.45 286.00) scale(0.03273 -0.03273)"/><path d="M50 300V50H100V300ZM100 50V0H200V50ZM250 300V100H200V50H250V0H300V300Z" fill="#7d828c" fill-opacity="1" transform="translate(464.91 286.00) scale(0.03273 -0.03273)"/><path d="M100 300V250H250V300ZM50 250V50H100V150H300V250H250V200H100V250ZM100 50V0H250V50ZM250 100V50H300V100Z" fill="#7d828c" fill-opacity="1" transform="translate(476.36 286.00) scale(0.03273 -0.03273)"/><path d="M100 250V50H50V0H250V50H150V250H300V300H150V350H100V300H50V250ZM150 400V350H300V400Z" fill="#7d828c" fill-opacity="1" transform="translate(499.27 286.00) scale(0.03273 -0.03273)"/><path d="M50 300V50H100V300ZM100 50V0H200V50ZM250 300V100H200V50H250V0H300V300Z" fill="#7d828c" fill-opacity="1" transform="translate(510.73 286.00) scale(0.03273 -0.03273)"/><path d="M50 300V0H100V200H150V250H100V300ZM150 300V250H250V300ZM250 250V0H300V250Z" fill="#7d828c" fill-opacity="1" transform="translate(522.18 286.00) scale(0.03273 -0.03273)"/><path d="M100 300V250H250V300ZM50 250V50H100V250ZM100 50V0H250V50ZM250 250V200H300V250ZM250 100V50H300V100Z" fill="#7d828c" fill-opacity="1" transform="translate(533.64 286.00) scale(0.03273 -0.03273)"/><path d="M150 250V50H50V0H300V50H200V300H50V250ZM150 400V350H200V400Z" fill="#7d828c" fill-opacity="1" transform="translate(545.09 286.00) scale(0.03273 -0.03273)"/><path d="M100 300V250H250V300ZM250 250V50H300V250ZM50 250V50H100V250ZM100 50V0H250V50Z" fill="#7d828c" fill-opacity="1" transform="translate(556.55 286.00) scale(0.03273 -0.03273)"/><path d="M50 300V0H100V200H150V250H100V300ZM150 300V250H250V300ZM250 250V0H300V250Z" fill="#7d828c" fill-opacity="1" transform="translate(568.00 286.00) scale(0.03273 -0.03273)"/><path d="M50 150V50H100V150ZM100 50V0H200V50ZM200 100V50H250V0H300V250H250V200H100V150H250V100ZM100 300V250H250V300Z" fill="#7d828c" fill-opacity="1" transform="translate(579.45 286.00) scale(0.03273 -0.03273)"/><path d="M150 100V0H200V100Z" fill="#7d828c" fill-opacity="1" transform="translate(590.91 286.00) scale(0.03273 -0.03273)"/>
<path d="M50 400V350H150V0H200V350H300V400Z" fill="#7d828c" fill-opacity="1" transform="translate(64.00 316.00) scale(0.03273 -0.03273)"/><path d="M100 300V250H250V300ZM250 250V50H300V250ZM50 250V50H100V250ZM100 50V0H250V50Z" fill="#7d828c" fill-opacity="1" transform="translate(75.45 316.00) scale(0.03273 -0.03273)"/><path d="M100 300V250H250V300ZM250 250V50H300V250ZM50 250V50H100V250ZM100 50V0H250V50Z" fill="#7d828c" fill-opacity="1" transform="translate(86.91 316.00) scale(0.03273 -0.03273)"/><path d="M150 350V50H50V0H300V50H200V400H50V350Z" fill="#7d828c" fill-opacity="1" transform="translate(98.36 316.00) scale(0.03273 -0.03273)"/><path d="M150 250V50H50V0H300V50H200V300H50V250ZM150 400V350H200V400Z" fill="#7d828c" fill-opacity="1" transform="translate(109.82 316.00) scale(0.03273 -0.03273)"/><path d="M50 300V0H100V200H150V250H100V300ZM150 300V250H250V300ZM250 250V0H300V250Z" fill="#7d828c" fill-opacity="1" transform="translate(121.27 316.00) scale(0.03273 -0.03273)"/><path d="M100 300V250H200V300ZM50 250V50H100V250ZM100 50V0H200V50ZM100 -50V-100H250V-50ZM200 100V50H250V-50H300V300H250V250H200V200H250V100Z" fill="#7d828c" fill-opacity="1" transform="translate(132.73 316.00) scale(0.03273 -0.03273)"/><path d="M50 300V150H100V300ZM250 300V150H300V300ZM150 50V-50H200V50ZM150 -50H50V-100H150ZM200 150V50H250V150ZM100 150V50H150V150Z" fill="#7d828c" fill-opacity="1" transform="translate(155.64 316.00) scale(0.03273 -0.03273)"/><path d="M50 300V0H100V150H250V0H300V300H250V200H100V300ZM150 400V350H200V400ZM100 350V300H150V350ZM200 350V300H250V350Z" fill="#7d828c" fill-opacity="1" transform="translate(178.55 316.00) scale(0.03273 -0.03273)"/><path d="M150 50H50V0H300V50H200V350H300V400H50V350H150Z" fill="#7d828c" fill-opacity="1" transform="translate(190.00 316.00) scale(0.03273 -0.03273)"/><path d="M50 150V50H100V150ZM100 50V0H200V50ZM200 100V50H250V0H300V250H250V200H100V150H250V100ZM100 300V250H250V300Z" fill="#7d828c" fill-opacity="1" transform="translate(212.91 316.00) scale(0.03273 -0.03273)"/><path d="M150 350V50H50V0H300V50H200V400H50V350Z" fill="#7d828c" fill-opacity="1" transform="translate(224.36 316.00) scale(0.03273 -0.03273)"/><path d="M100 300V250H250V300ZM50 250V50H100V250ZM100 50V0H250V50ZM250 250V200H300V250ZM250 100V50H300V100Z" fill="#7d828c" fill-opacity="1" transform="translate(247.27 316.00) scale(0.03273 -0.03273)"/><path d="M100 300V250H250V300ZM250 250V50H300V250ZM50 250V50H100V250ZM100 50V0H250V50Z" fill="#7d828c" fill-opacity="1" transform="translate(258.73 316.00) scale(0.03273 -0.03273)"/><path d="M250 50H100V0H250ZM100 50V100H50V50ZM250 300H100V250H250ZM50 250V200H100V250ZM100 200V150H250V200ZM250 150V50H300V150ZM250 250V200H300V250Z" fill="#7d828c" fill-opacity="1" transform="translate(270.18 316.00) scale(0.03273 -0.03273)"/><path d="M100 400V300H50V250H100V50H150V250H300V300H150V400ZM150 50V0H250V50ZM250 100V50H300V100Z" fill="#7d828c" fill-opacity="1" transform="translate(281.64 316.00) scale(0.03273 -0.03273)"/><path d="M50 150V50H100V150ZM100 50V0H200V50ZM200 100V50H250V0H300V250H250V200H100V150H250V100ZM100 300V250H250V300Z" fill="#7d828c" fill-opacity="1" transform="translate(293.09 316.00) scale(0.03273 -0.03273)"/><path d="M250 400V250H200V200H250V100H200V50H250V0H300V400ZM200 50H100V0H200ZM100 50V250H50V50ZM200 250V300H100V250Z" fill="#7d828c" fill-opacity="1" transform="translate(304.55 316.00) scale(0.03273 -0.03273)"/><path d="M100 300V250H250V300ZM250 250V50H300V250ZM50 250V50H100V250ZM100 50V0H250V50Z" fill="#7d828c" fill-opacity="1" transform="translate(316.00 316.00) scale(0.03273 -0.03273)"/><path d="M150 100V0H200V100Z" fill="#7d828c" fill-opacity="1" transform="translate(327.45 316.00) scale(0.03273 -0.03273)"/><path d="M50 400V0H100V250H150V300H100V400ZM250 250V0H300V400H250V300H200V250ZM150 250V150H200V250Z" fill="#7d828c" fill-opacity="1" transform="translate(350.36 316.00) scale(0.03273 -0.03273)"/><path d="M100 300V250H250V300ZM250 250V50H300V250ZM50 250V50H100V250ZM100 50V0H250V50Z" fill="#7d828c" fill-opacity="1" transform="translate(361.82 316.00) scale(0.03273 -0.03273)"/><path d="M50 300V0H100V200H150V250H100V300ZM150 300V250H250V300ZM250 250V0H300V250Z" fill="#7d828c" fill-opacity="1" transform="translate(373.27 316.00) scale(0.03273 -0.03273)"/><path d="M100 400V300H50V250H100V50H150V250H300V300H150V400ZM150 50V0H250V50ZM250 100V50H300V100Z" fill="#7d828c" fill-opacity="1" transform="translate(384.73 316.00) scale(0.03273 -0.03273)"/><path d="M50 150V50H100V150ZM100 50V0H200V50ZM200 100V50H250V0H300V250H250V200H100V150H250V100ZM100 300V250H250V300Z" fill="#7d828c" fill-opacity="1" transform="translate(396.18 316.00) scale(0.03273 -0.03273)"/><path d="M50 300V0H100V200H150V250H100V300ZM150 300V250H250V300ZM250 250V0H300V250ZM100 400V350H150V400ZM150 450V400H200V450ZM200 400V350H250V400ZM250 450V400H300V450Z" fill="#7d828c" fill-opacity="1" transform="translate(407.64 316.00) scale(0.03273 -0.03273)"/><path d="M50 150V50H100V150ZM100 50V0H200V50ZM200 100V50H250V0H300V250H250V200H100V150H250V100ZM100 300V250H250V300Z" fill="#7d828c" fill-opacity="1" transform="translate(419.09 316.00) scale(0.03273 -0.03273)"/><path d="M250 50H100V0H250ZM100 50V100H50V50ZM250 300H100V250H250ZM50 250V200H100V250ZM100 200V150H250V200ZM250 150V50H300V150ZM250 250V200H300V250Z" fill="#7d828c" fill-opacity="1" transform="translate(430.55 316.00) scale(0.03273 -0.03273)"/><path d="M100 250V50H50V0H250V50H150V250H300V300H150V350H100V300H50V250ZM150 400V350H300V400Z" fill="#7d828c" fill-opacity="1" transform="translate(453.45 316.00) scale(0.03273 -0.03273)"/><path d="M50 300V50H100V300ZM100 50V0H200V50ZM250 300V100H200V50H250V0H300V300Z" fill="#7d828c" fill-opacity="1" transform="translate(464.91 316.00) scale(0.03273 -0.03273)"/><path d="M100 300V250H250V300ZM50 250V50H100V150H300V250H250V200H100V250ZM100 50V0H250V50ZM250 100V50H300V100Z" fill="#7d828c" fill-opacity="1" transform="translate(476.36 316.00) scale(0.03273 -0.03273)"/><path d="M150 300H50V250H100V50H50V0H250V50H150V200H200V250H150ZM300 300H200V250H300Z" fill="#7d828c" fill-opacity="1" transform="translate(487.82 316.00) scale(0.03273 -0.03273)"/><path d="M50 150V50H100V150ZM100 50V0H200V50ZM200 100V50H250V0H300V250H250V200H100V150H250V100ZM100 300V250H250V300Z" fill="#7d828c" fill-opacity="1" transform="translate(499.27 316.00) scale(0.03273 -0.03273)"/><path d="M250 400V250H200V200H250V100H200V50H250V0H300V400ZM200 50H100V0H200ZM100 50V250H50V50ZM200 250V300H100V250Z" fill="#7d828c" fill-opacity="1" transform="translate(522.18 316.00) scale(0.03273 -0.03273)"/><path d="M100 300V250H250V300ZM50 250V50H100V150H300V250H250V200H100V250ZM100 50V0H250V50ZM250 100V50H300V100Z" fill="#7d828c" fill-opacity="1" transform="translate(533.64 316.00) scale(0.03273 -0.03273)"/><path d="M50 300V-100H100V50H150V100H100V200H150V250H100V300ZM150 300V250H250V300ZM250 250V50H300V250ZM150 50V0H250V50Z" fill="#7d828c" fill-opacity="1" transform="translate(556.55 316.00) scale(0.03273 -0.03273)"/><path d="M50 150V50H100V150ZM100 50V0H200V50ZM200 100V50H250V0H300V250H250V200H100V150H250V100ZM100 300V250H250V300Z" fill="#7d828c" fill-opacity="1" transform="translate(568.00 316.00) scale(0.03273 -0.03273)"/><path d="M50 300V0H100V200H150V250H100V300ZM150 300V250H250V300ZM250 250V0H300V250Z" fill="#7d828c" fill-opacity="1" transform="translate(579.45 316.00) scale(0.03273 -0.03273)"/><path d="M100 400V300H50V250H100V50H150V250H300V300H150V400ZM150 50V0H250V50ZM250 100V50H300V100Z" fill="#7d828c" fill-opacity="1" transform="translate(590.91 316.00) scale(0.03273 -0.03273)"/><path d="M50 150V50H100V150ZM100 50V0H200V50ZM200 100V50H250V0H300V250H250V200H100V150H250V100ZM100 300V250H250V300Z" fill="#7d828c" fill-opacity="1" transform="translate(602.36 316.00) scale(0.03273 -0.03273)"/><path d="M150 350V50H50V0H300V50H200V400H50V350Z" fill="#7d828c" fill-opacity="1" transform="translate(613.82 316.00) scale(0.03273 -0.03273)"/><path d="M150 350V50H50V0H300V50H200V400H50V350Z" fill="#7d828c" fill-opacity="1" transform="translate(625.27 316.00) scale(0.03273 -0.03273)"/><path d="M50 150V50H100V150ZM100 50V0H200V50ZM200 100V50H250V0H300V250H250V200H100V150H250V100ZM100 300V250H250V300Z" fill="#7d828c" fill-opacity="1" transform="translate(636.73 316.00) scale(0.03273 -0.03273)"/><path d="M150 100V0H200V100Z" fill="#7d828c" fill-opacity="1" transform="translate(648.18 316.00) scale(0.03273 -0.03273)"/>
</svg>