<svg xmlns="http://www.w3.org/2000/svg" viewBox="0 0 708 374" width="708" height="374">
  <rect width="708" height="374" fill="#0d1117"/>
  <g transform="translate(101.0,31.5)">
    <polygon points="-11.0,-2.0 0.0,3.5 0.0,5.5 -11.0,0.0" fill="#0c1118"/>
<polygon points="0.0,3.5 11.0,-2.0 11.0,0.0 0.0,5.5" fill="#0f171f"/>
<polygon points="0.0,-7.5 11.0,-2.0 0.0,3.5 -11.0,-2.0" fill="#16202c"/>
<polygon points="-22.0,3.5 -11.0,9.0 -11.0,11.0 -22.0,5.5" fill="#0c1118"/>
<polygon points="-11.0,9.0 0.0,3.5 0.0,5.5 -11.0,11.0" fill="#0f171f"/>
<polygon points="-11.0,-2.0 0.0,3.5 -11.0,9.0 -22.0,3.5" fill="#16202c"/>
<polygon points="0.0,3.5 11.0,9.0 11.0,11.0 0.0,5.5" fill="#0c1118"/>
<polygon points="11.0,9.0 22.0,3.5 22.0,5.5 11.0,11.0" fill="#0f171f"/>
<polygon points="11.0,-2.0 22.0,3.5 11.0,9.0 0.0,3.5" fill="#16202c"/>
<polygon points="-33.0,9.0 -22.0,14.5 -22.0,16.5 -33.0,11.0" fill="#0c1118"/>
<polygon points="-22.0,14.5 -11.0,9.0 -11.0,11.0 -22.0,16.5" fill="#0f171f"/>
<polygon points="-22.0,3.5 -11.0,9.0 -22.0,14.5 -33.0,9.0" fill="#16202c"/>
<polygon points="-11.0,9.0 0.0,14.5 0.0,16.5 -11.0,11.0" fill="#0c1118"/>
<polygon points="0.0,14.5 11.0,9.0 11.0,11.0 0.0,16.5" fill="#0f171f"/>
<polygon points="0.0,3.5 11.0,9.0 0.0,14.5 -11.0,9.0" fill="#16202c"/>
<polygon points="11.0,9.0 22.0,14.5 22.0,16.5 11.0,11.0" fill="#0c1118"/>
<polygon points="22.0,14.5 33.0,9.0 33.0,11.0 22.0,16.5" fill="#0f171f"/>
<polygon points="22.0,3.5 33.0,9.0 22.0,14.5 11.0,9.0" fill="#16202c"/>
<polygon points="-44.0,14.5 -33.0,20.0 -33.0,22.0 -44.0,16.5" fill="#0c1118"/>
<polygon points="-33.0,20.0 -22.0,14.5 -22.0,16.5 -33.0,22.0" fill="#0f171f"/>
<polygon points="-33.0,9.0 -22.0,14.5 -33.0,20.0 -44.0,14.5" fill="#16202c"/>
<polygon points="-22.0,14.5 -11.0,20.0 -11.0,22.0 -22.0,16.5" fill="#0c1118"/>
<polygon points="-11.0,20.0 0.0,14.5 0.0,16.5 -11.0,22.0" fill="#0f171f"/>
<polygon points="-11.0,9.0 0.0,14.5 -11.0,20.0 -22.0,14.5" fill="#16202c"/>
<polygon points="0.0,14.5 11.0,20.0 11.0,22.0 0.0,16.5" fill="#0c1118"/>
<polygon points="11.0,20.0 22.0,14.5 22.0,16.5 11.0,22.0" fill="#0f171f"/>
<polygon points="11.0,9.0 22.0,14.5 11.0,20.0 0.0,14.5" fill="#16202c"/>
<polygon points="22.0,14.5 33.0,20.0 33.0,22.0 22.0,16.5" fill="#0c1118"/>
<polygon points="33.0,20.0 44.0,14.5 44.0,16.5 33.0,22.0" fill="#0f171f"/>
<polygon points="33.0,9.0 44.0,14.5 33.0,20.0 22.0,14.5" fill="#16202c"/>
<polygon points="-55.0,20.0 -44.0,25.5 -44.0,27.5 -55.0,22.0" fill="#0c1118"/>
<polygon points="-44.0,25.5 -33.0,20.0 -33.0,22.0 -44.0,27.5" fill="#0f171f"/>
<polygon points="-44.0,14.5 -33.0,20.0 -44.0,25.5 -55.0,20.0" fill="#16202c"/>
<polygon points="-33.0,20.0 -22.0,25.5 -22.0,27.5 -33.0,22.0" fill="#0c1118"/>
<polygon points="-22.0,25.5 -11.0,20.0 -11.0,22.0 -22.0,27.5" fill="#0f171f"/>
<polygon points="-22.0,14.5 -11.0,20.0 -22.0,25.5 -33.0,20.0" fill="#16202c"/>
<polygon points="-11.0,20.0 0.0,25.5 0.0,27.5 -11.0,22.0" fill="#0c1118"/>
<polygon points="0.0,25.5 11.0,20.0 11.0,22.0 0.0,27.5" fill="#0f171f"/>
<polygon points="0.0,14.5 11.0,20.0 0.0,25.5 -11.0,20.0" fill="#16202c"/>
<polygon points="11.0,20.0 22.0,25.5 22.0,27.5 11.0,22.0" fill="#0c1118"/>
<polygon points="22.0,25.5 33.0,20.0 33.0,22.0 22.0,27.5" fill="#0f171f"/>
<polygon points="22.0,14.5 33.0,20.0 22.0,25.5 11.0,20.0" fill="#16202c"/>
<polygon points="33.0,20.0 44.0,25.5 44.0,27.5 33.0,22.0" fill="#0c1118"/>
<polygon points="44.0,25.5 55.0,20.0 55.0,22.0 44.0,27.5" fill="#0f171f"/>
<polygon points="44.0,14.5 55.0,20.0 44.0,25.5 33.0,20.0" fill="#16202c"/>
<polygon points="-66.0,25.5 -55.0,31.0 -55.0,33.0 -66.0,27.5" fill="#0c1118"/>
<polygon points="-55.0,31.0 -44.0,25.5 -44.0,27.5 -55.0,33.0" fill="#0f171f"/>
<polygon points="-55.0,20.0 -44.0,25.5 -55.0,31.0 -66.0,25.5" fill="#16202c"/>
<polygon points="-44.0,25.5 -33.0,31.0 -33.0,33.0 -44.0,27.5" fill="#0c1118"/>
<polygon points="-33.0,31.0 -22.0,25.5 -22.0,27.5 -33.0,33.0" fill="#0f171f"/>
<polygon points="-33.0,20.0 -22.0,25.5 -33.0,31.0 -44.0,25.5" fill="#16202c"/>
<polygon points="-22.0,25.5 -11.0,31.0 -11.0,33.0 -22.0,27.5" fill="#0c1118"/>
<polygon points="-11.0,31.0 0.0,25.5 0.0,27.5 -11.0,33.0" fill="#0f171f"/>
<polygon points="-11.0,20.0 0.0,25.5 -11.0,31.0 -22.0,25.5" fill="#16202c"/>
<polygon points="0.0,25.5 11.0,31.0 11.0,33.0 0.0,27.5" fill="#0c1118"/>
<polygon points="11.0,31.0 22.0,25.5 22.0,27.5 11.0,33.0" fill="#0f171f"/>
<polygon points="11.0,20.0 22.0,25.5 11.0,31.0 0.0,25.5" fill="#16202c"/>
<polygon points="22.0,25.5 33.0,31.0 33.0,33.0 22.0,27.5" fill="#0c1118"/>
<polygon points="33.0,31.0 44.0,25.5 44.0,27.5 33.0,33.0" fill="#0f171f"/>
<polygon points="33.0,20.0 44.0,25.5 33.0,31.0 22.0,25.5" fill="#16202c"/>
<polygon points="44.0,25.5 55.0,31.0 55.0,33.0 44.0,27.5" fill="#0c1118"/>
<polygon points="55.0,31.0 66.0,25.5 66.0,27.5 55.0,33.0" fill="#0f171f"/>
<polygon points="55.0,20.0 66.0,25.5 55.0,31.0 44.0,25.5" fill="#16202c"/>
<polygon points="-77.0,31.0 -66.0,36.5 -66.0,38.5 -77.0,33.0" fill="#0c1118"/>
<polygon points="-66.0,36.5 -55.0,31.0 -55.0,33.0 -66.0,38.5" fill="#0f171f"/>
<polygon points="-66.0,25.5 -55.0,31.0 -66.0,36.5 -77.0,31.0" fill="#16202c"/>
<polygon points="-55.0,31.0 -44.0,36.5 -44.0,38.5 -55.0,33.0" fill="#0c1118"/>
<polygon points="-44.0,36.5 -33.0,31.0 -33.0,33.0 -44.0,38.5" fill="#0f171f"/>
<polygon points="-44.0,25.5 -33.0,31.0 -44.0,36.5 -55.0,31.0" fill="#16202c"/>
<polygon points="-33.0,31.0 -22.0,36.5 -22.0,38.5 -33.0,33.0" fill="#0c1118"/>
<polygon points="-22.0,36.5 -11.0,31.0 -11.0,33.0 -22.0,38.5" fill="#0f171f"/>
<polygon points="-22.0,25.5 -11.0,31.0 -22.0,36.5 -33.0,31.0" fill="#16202c"/>
<polygon points="-11.0,31.0 0.0,36.5 0.0,38.5 -11.0,33.0" fill="#0c1118"/>
<polygon points="0.0,36.5 11.0,31.0 11.0,33.0 0.0,38.5" fill="#0f171f"/>
<polygon points="0.0,25.5 11.0,31.0 0.0,36.5 -11.0,31.0" fill="#16202c"/>
<polygon points="11.0,31.0 22.0,36.5 22.0,38.5 11.0,33.0" fill="#0c1118"/>
<polygon points="22.0,36.5 33.0,31.0 33.0,33.0 22.0,38.5" fill="#0f171f"/>
<polygon points="22.0,25.5 33.0,31.0 22.0,36.5 11.0,31.0" fill="#16202c"/>
<polygon points="33.0,31.0 44.0,36.5 44.0,38.5 33.0,33.0" fill="#0c1118"/>
<polygon points="44.0,36.5 55.0,31.0 55.0,33.0 44.0,38.5" fill="#0f171f"/>
<polygon points="44.0,25.5 55.0,31.0 44.0,36.5 33.0,31.0" fill="#16202c"/>
<polygon points="55.0,31.0 66.0,36.5 66.0,38.5 55.0,33.0" fill="#0c1118"/>
<polygon points="66.0,36.5 77.0,31.0 77.0,33.0 66.0,38.5" fill="#0f171f"/>
<polygon points="66.0,25.5 77.0,31.0 66.0,36.5 55.0,31.0" fill="#16202c"/>
<polygon points="-66.0,36.5 -55.0,42.0 -55.0,44.0 -66.0,38.5" fill="#0c1118"/>
<polygon points="-55.0,42.0 -44.0,36.5 -44.0,38.5 -55.0,44.0" fill="#0f171f"/>
<polygon points="-55.0,31.0 -44.0,36.5 -55.0,42.0 -66.0,36.5" fill="#16202c"/>
<polygon points="-44.0,36.5 -33.0,42.0 -33.0,44.0 -44.0,38.5" fill="#0c1118"/>
<polygon points="-33.0,42.0 -22.0,36.5 -22.0,38.5 -33.0,44.0" fill="#0f171f"/>
<polygon points="-33.0,31.0 -22.0,36.5 -33.0,42.0 -44.0,36.5" fill="#16202c"/>
<polygon points="-22.0,36.5 -11.0,42.0 -11.0,44.0 -22.0,38.5" fill="#0c1118"/>
<polygon points="-11.0,42.0 0.0,36.5 0.0,38.5 -11.0,44.0" fill="#0f171f"/>
<polygon points="-11.0,31.0 0.0,36.5 -11.0,42.0 -22.0,36.5" fill="#16202c"/>
<polygon points="0.0,36.5 11.0,42.0 11.0,44.0 0.0,38.5" fill="#0c1118"/>
<polygon points="11.0,42.0 22.0,36.5 22.0,38.5 11.0,44.0" fill="#0f171f"/>
<polygon points="11.0,31.0 22.0,36.5 11.0,42.0 0.0,36.5" fill="#16202c"/>
<polygon points="22.0,36.5 33.0,42.0 33.0,44.0 22.0,38.5" fill="#0c1118"/>
<polygon points="33.0,42.0 44.0,36.5 44.0,38.5 33.0,44.0" fill="#0f171f"/>
<polygon points="33.0,31.0 44.0,36.5 33.0,42.0 22.0,36.5" fill="#16202c"/>
<polygon points="44.0,36.5 55.0,42.0 55.0,44.0 44.0,38.5" fill="#0c1118"/>
<polygon points="55.0,42.0 66.0,36.5 66.0,38.5 55.0,44.0" fill="#0f171f"/>
<polygon points="55.0,31.0 66.0,36.5 55.0,42.0 44.0,36.5" fill="#16202c"/>
<polygon points="66.0,36.5 77.0,42.0 77.0,44.0 66.0,38.5" fill="#0c1118"/>
<polygon points="77.0,42.0 88.0,36.5 88.0,38.5 77.0,44.0" fill="#0f171f"/>
<polygon points="77.0,31.0 88.0,36.5 77.0,42.0 66.0,36.5" fill="#16202c"/>
<polygon points="-55.0,42.0 -44.0,47.5 -44.0,49.5 -55.0,44.0" fill="#0c1118"/>
<polygon points="-44.0,47.5 -33.0,42.0 -33.0,44.0 -44.0,49.5" fill="#0f171f"/>
<polygon points="-44.0,36.5 -33.0,42.0 -44.0,47.5 -55.0,42.0" fill="#16202c"/>
<polygon points="-33.0,42.0 -22.0,47.5 -22.0,49.5 -33.0,44.0" fill="#0c1118"/>
<polygon points="-22.0,47.5 -11.0,42.0 -11.0,44.0 -22.0,49.5" fill="#0f171f"/>
<polygon points="-22.0,36.5 -11.0,42.0 -22.0,47.5 -33.0,42.0" fill="#16202c"/>
<polygon points="-11.0,42.0 0.0,47.5 0.0,49.5 -11.0,44.0" fill="#0c1118"/>
<polygon points="0.0,47.5 11.0,42.0 11.0,44.0 0.0,49.5" fill="#0f171f"/>
<polygon points="0.0,36.5 11.0,42.0 0.0,47.5 -11.0,42.0" fill="#16202c"/>
<polygon points="11.0,42.0 22.0,47.5 22.0,49.5 11.0,44.0" fill="#0c1118"/>
<polygon points="22.0,47.5 33.0,42.0 33.0,44.0 22.0,49.5" fill="#0f171f"/>
<polygon points="22.0,36.5 33.0,42.0 22.0,47.5 11.0,42.0" fill="#16202c"/>
<polygon points="33.0,42.0 44.0,47.5 44.0,49.5 33.0,44.0" fill="#0c1118"/>
<polygon points="44.0,47.5 55.0,42.0 55.0,44.0 44.0,49.5" fill="#0f171f"/>
<polygon points="44.0,36.5 55.0,42.0 44.0,47.5 33.0,42.0" fill="#16202c"/>
<polygon points="55.0,42.0 66.0,47.5 66.0,49.5 55.0,44.0" fill="#0c1118"/>
<polygon points="66.0,47.5 77.0,42.0 77.0,44.0 66.0,49.5" fill="#0f171f"/>
<polygon points="66.0,36.5 77.0,42.0 66.0,47.5 55.0,42.0" fill="#16202c"/>
<polygon points="77.0,42.0 88.0,47.5 88.0,49.5 77.0,44.0" fill="#0c1118"/>
<polygon points="88.0,47.5 99.0,42.0 99.0,44.0 88.0,49.5" fill="#0f171f"/>
<polygon points="88.0,36.5 99.0,42.0 88.0,47.5 77.0,42.0" fill="#16202c"/>
<polygon points="-44.0,47.5 -33.0,53.0 -33.0,55.0 -44.0,49.5" fill="#0c1118"/>
<polygon points="-33.0,53.0 -22.0,47.5 -22.0,49.5 -33.0,55.0" fill="#0f171f"/>
<polygon points="-33.0,42.0 -22.0,47.5 -33.0,53.0 -44.0,47.5" fill="#16202c"/>
<polygon points="-22.0,47.5 -11.0,53.0 -11.0,55.0 -22.0,49.5" fill="#0c1118"/>
<polygon points="-11.0,53.0 0.0,47.5 0.0,49.5 -11.0,55.0" fill="#0f171f"/>
<polygon points="-11.0,42.0 0.0,47.5 -11.0,53.0 -22.0,47.5" fill="#16202c"/>
<polygon points="0.0,47.5 11.0,53.0 11.0,55.0 0.0,49.5" fill="#0c1118"/>
<polygon points="11.0,53.0 22.0,47.5 22.0,49.5 11.0,55.0" fill="#0f171f"/>
<polygon points="11.0,42.0 22.0,47.5 11.0,53.0 0.0,47.5" fill="#16202c"/>
<polygon points="22.0,47.5 33.0,53.0 33.0,55.0 22.0,49.5" fill="#0c1118"/>
<polygon points="33.0,53.0 44.0,47.5 44.0,49.5 33.0,55.0" fill="#0f171f"/>
<polygon points="33.0,42.0 44.0,47.5 33.0,53.0 22.0,47.5" fill="#16202c"/>
<polygon points="44.0,47.5 55.0,53.0 55.0,55.0 44.0,49.5" fill="#0c1118"/>
<polygon points="55.0,53.0 66.0,47.5 66.0,49.5 55.0,55.0" fill="#0f171f"/>
<polygon points="55.0,42.0 66.0,47.5 55.0,53.0 44.0,47.5" fill="#16202c"/>
<polygon points="66.0,47.5 77.0,53.0 77.0,55.0 66.0,49.5" fill="#0c1118"/>
<polygon points="77.0,53.0 88.0,47.5 88.0,49.5 77.0,55.0" fill="#0f171f"/>
<polygon points="77.0,42.0 88.0,47.5 77.0,53.0 66.0,47.5" fill="#16202c"/>
<polygon points="88.0,47.5 99.0,53.0 99.0,55.0 88.0,49.5" fill="#0c1118"/>
<polygon points="99.0,53.0 110.0,47.5 110.0,49.5 99.0,55.0" fill="#0f171f"/>
<polygon points="99.0,42.0 110.0,47.5 99.0,53.0 88.0,47.5" fill="#16202c"/>
<polygon points="-33.0,53.0 -22.0,58.5 -22.0,60.5 -33.0,55.0" fill="#0c1118"/>
<polygon points="-22.0,58.5 -11.0,53.0 -11.0,55.0 -22.0,60.5" fill="#0f171f"/>
<polygon points="-22.0,47.5 -11.0,53.0 -22.0,58.5 -33.0,53.0" fill="#16202c"/>
<polygon points="-11.0,53.0 0.0,58.5 0.0,60.5 -11.0,55.0" fill="#0c1118"/>
<polygon points="0.0,58.5 11.0,53.0 11.0,55.0 0.0,60.5" fill="#0f171f"/>
<polygon points="0.0,47.5 11.0,53.0 0.0,58.5 -11.0,53.0" fill="#16202c"/>
<polygon points="11.0,53.0 22.0,58.5 22.0,60.5 11.0,55.0" fill="#0c1118"/>
<polygon points="22.0,58.5 33.0,53.0 33.0,55.0 22.0,60.5" fill="#0f171f"/>
<polygon points="22.0,47.5 33.0,53.0 22.0,58.5 11.0,53.0" fill="#16202c"/>
<polygon points="33.0,53.0 44.0,58.5 44.0,60.5 33.0,55.0" fill="#0c1118"/>
<polygon points="44.0,58.5 55.0,53.0 55.0,55.0 44.0,60.5" fill="#0f171f"/>
<polygon points="44.0,47.5 55.0,53.0 44.0,58.5 33.0,53.0" fill="#16202c"/>
<polygon points="55.0,53.0 66.0,58.5 66.0,60.5 55.0,55.0" fill="#0c1118"/>
<polygon points="66.0,58.5 77.0,53.0 77.0,55.0 66.0,60.5" fill="#0f171f"/>
<polygon points="66.0,47.5 77.0,53.0 66.0,58.5 55.0,53.0" fill="#16202c"/>
<polygon points="77.0,53.0 88.0,58.5 88.0,60.5 77.0,55.0" fill="#0c1118"/>
<polygon points="88.0,58.5 99.0,53.0 99.0,55.0 88.0,60.5" fill="#0f171f"/>
<polygon points="88.0,47.5 99.0,53.0 88.0,58.5 77.0,53.0" fill="#16202c"/>
<polygon points="99.0,53.0 110.0,58.5 110.0,60.5 99.0,55.0" fill="#0c1118"/>
<polygon points="110.0,58.5 121.0,53.0 121.0,55.0 110.0,60.5" fill="#0f171f"/>
<polygon points="110.0,47.5 121.0,53.0 110.0,58.5 99.0,53.0" fill="#16202c"/>
<polygon points="-22.0,58.5 -11.0,64.0 -11.0,66.0 -22.0,60.5" fill="#0c1118"/>
<polygon points="-11.0,64.0 0.0,58.5 0.0,60.5 -11.0,66.0" fill="#0f171f"/>
<polygon points="-11.0,53.0 0.0,58.5 -11.0,64.0 -22.0,58.5" fill="#16202c"/>
<polygon points="0.0,58.5 11.0,64.0 11.0,66.0 0.0,60.5" fill="#0c1118"/>
<polygon points="11.0,64.0 22.0,58.5 22.0,60.5 11.0,66.0" fill="#0f171f"/>
<polygon points="11.0,53.0 22.0,58.5 11.0,64.0 0.0,58.5" fill="#16202c"/>
<polygon points="22.0,58.5 33.0,64.0 33.0,66.0 22.0,60.5" fill="#0c1118"/>
<polygon points="33.0,64.0 44.0,58.5 44.0,60.5 33.0,66.0" fill="#0f171f"/>
<polygon points="33.0,53.0 44.0,58.5 33.0,64.0 22.0,58.5" fill="#16202c"/>
<polygon points="44.0,58.5 55.0,64.0 55.0,66.0 44.0,60.5" fill="#0c1118"/>
<polygon points="55.0,64.0 66.0,58.5 66.0,60.5 55.0,66.0" fill="#0f171f"/>
<polygon points="55.0,53.0 66.0,58.5 55.0,64.0 44.0,58.5" fill="#16202c"/>
<polygon points="66.0,58.5 77.0,64.0 77.0,66.0 66.0,60.5" fill="#0c1118"/>
<polygon points="77.0,64.0 88.0,58.5 88.0,60.5 77.0,66.0" fill="#0f171f"/>
<polygon points="77.0,53.0 88.0,58.5 77.0,64.0 66.0,58.5" fill="#16202c"/>
<polygon points="88.0,58.5 99.0,64.0 99.0,66.0 88.0,60.5" fill="#0c1118"/>
<polygon points="99.0,64.0 110.0,58.5 110.0,60.5 99.0,66.0" fill="#0f171f"/>
<polygon points="99.0,53.0 110.0,58.5 99.0,64.0 88.0,58.5" fill="#16202c"/>
<polygon points="110.0,58.5 121.0,64.0 121.0,66.0 110.0,60.5" fill="#0c1118"/>
<polygon points="121.0,64.0 132.0,58.5 132.0,60.5 121.0,66.0" fill="#0f171f"/>
<polygon points="121.0,53.0 132.0,58.5 121.0,64.0 110.0,58.5" fill="#16202c"/>
<polygon points="-11.0,64.0 0.0,69.5 0.0,71.5 -11.0,66.0" fill="#0c1118"/>
<polygon points="0.0,69.5 11.0,64.0 11.0,66.0 0.0,71.5" fill="#0f171f"/>
<polygon points="0.0,58.5 11.0,64.0 0.0,69.5 -11.0,64.0" fill="#16202c"/>
<polygon points="11.0,64.0 22.0,69.5 22.0,71.5 11.0,66.0" fill="#0c1118"/>
<polygon points="22.0,69.5 33.0,64.0 33.0,66.0 22.0,71.5" fill="#0f171f"/>
<polygon points="22.0,58.5 33.0,64.0 22.0,69.5 11.0,64.0" fill="#16202c"/>
<polygon points="33.0,64.0 44.0,69.5 44.0,71.5 33.0,66.0" fill="#0c1118"/>
<polygon points="44.0,69.5 55.0,64.0 55.0,66.0 44.0,71.5" fill="#0f171f"/>
<polygon points="44.0,58.5 55.0,64.0 44.0,69.5 33.0,64.0" fill="#16202c"/>
<polygon points="55.0,64.0 66.0,69.5 66.0,71.5 55.0,66.0" fill="#0c1118"/>
<polygon points="66.0,69.5 77.0,64.0 77.0,66.0 66.0,71.5" fill="#0f171f"/>
<polygon points="66.0,58.5 77.0,64.0 66.0,69.5 55.0,64.0" fill="#16202c"/>
<polygon points="77.0,64.0 88.0,69.5 88.0,71.5 77.0,66.0" fill="#0c1118"/>
<polygon points="88.0,69.5 99.0,64.0 99.0,66.0 88.0,71.5" fill="#0f171f"/>
<polygon points="88.0,58.5 99.0,64.0 88.0,69.5 77.0,64.0" fill="#16202c"/>
<polygon points="99.0,64.0 110.0,69.5 110.0,71.5 99.0,66.0" fill="#0c1118"/>
<polygon points="110.0,69.5 121.0,64.0 121.0,66.0 110.0,71.5" fill="#0f171f"/>
<polygon points="110.0,58.5 121.0,64.0 110.0,69.5 99.0,64.0" fill="#16202c"/>
<polygon points="121.0,64.0 132.0,69.5 132.0,71.5 121.0,66.0" fill="#0c1118"/>
<polygon points="132.0,69.5 143.0,64.0 143.0,66.0 132.0,71.5" fill="#0f171f"/>
<polygon points="132.0,58.5 143.0,64.0 132.0,69.5 121.0,64.0" fill="#16202c"/>
<polygon points="0.0,69.5 11.0,75.0 11.0,77.0 0.0,71.5" fill="#0c1118"/>
<polygon points="11.0,75.0 22.0,69.5 22.0,71.5 11.0,77.0" fill="#0f171f"/>
<polygon points="11.0,64.0 22.0,69.5 11.0,75.0 0.0,69.5" fill="#16202c"/>
<polygon points="22.0,69.5 33.0,75.0 33.0,77.0 22.0,71.5" fill="#0c1118"/>
<polygon points="33.0,75.0 44.0,69.5 44.0,71.5 33.0,77.0" fill="#0f171f"/>
<polygon points="33.0,64.0 44.0,69.5 33.0,75.0 22.0,69.5" fill="#16202c"/>
<polygon points="44.0,69.5 55.0,75.0 55.0,77.0 44.0,71.5" fill="#0c1118"/>
<polygon points="55.0,75.0 66.0,69.5 66.0,71.5 55.0,77.0" fill="#0f171f"/>
<polygon points="55.0,64.0 66.0,69.5 55.0,75.0 44.0,69.5" fill="#16202c"/>
<polygon points="66.0,69.5 77.0,75.0 77.0,77.0 66.0,71.5" fill="#0c1118"/>
<polygon points="77.0,75.0 88.0,69.5 88.0,71.5 77.0,77.0" fill="#0f171f"/>
<polygon points="77.0,64.0 88.0,69.5 77.0,75.0 66.0,69.5" fill="#16202c"/>
<polygon points="88.0,69.5 99.0,75.0 99.0,77.0 88.0,71.5" fill="#0c1118"/>
<polygon points="99.0,75.0 110.0,69.5 110.0,71.5 99.0,77.0" fill="#0f171f"/>
<polygon points="99.0,64.0 110.0,69.5 99.0,75.0 88.0,69.5" fill="#16202c"/>
<polygon points="110.0,69.5 121.0,75.0 121.0,77.0 110.0,71.5" fill="#0c1118"/>
<polygon points="121.0,75.0 132.0,69.5 132.0,71.5 121.0,77.0" fill="#0f171f"/>
<polygon points="121.0,64.0 132.0,69.5 121.0,75.0 110.0,69.5" fill="#16202c"/>
<polygon points="132.0,69.5 143.0,75.0 143.0,77.0 132.0,71.5" fill="#0c1118"/>
<polygon points="143.0,75.0 154.0,69.5 154.0,71.5 143.0,77.0" fill="#0f171f"/>
<polygon points="143.0,64.0 154.0,69.5 143.0,75.0 132.0,69.5" fill="#16202c"/>
<polygon points="11.0,75.0 22.0,80.5 22.0,82.5 11.0,77.0" fill="#0c1118"/>
<polygon points="22.0,80.5 33.0,75.0 33.0,77.0 22.0,82.5" fill="#0f171f"/>
<polygon points="22.0,69.5 33.0,75.0 22.0,80.5 11.0,75.0" fill="#16202c"/>
<polygon points="33.0,75.0 44.0,80.5 44.0,82.5 33.0,77.0" fill="#0c1118"/>
<polygon points="44.0,80.5 55.0,75.0 55.0,77.0 44.0,82.5" fill="#0f171f"/>
<polygon points="44.0,69.5 55.0,75.0 44.0,80.5 33.0,75.0" fill="#16202c"/>
<polygon points="55.0,75.0 66.0,80.5 66.0,82.5 55.0,77.0" fill="#0c1118"/>
<polygon points="66.0,80.5 77.0,75.0 77.0,77.0 66.0,82.5" fill="#0f171f"/>
<polygon points="66.0,69.5 77.0,75.0 66.0,80.5 55.0,75.0" fill="#16202c"/>
<polygon points="77.0,75.0 88.0,80.5 88.0,82.5 77.0,77.0" fill="#0c1118"/>
<polygon points="88.0,80.5 99.0,75.0 99.0,77.0 88.0,82.5" fill="#0f171f"/>
<polygon points="88.0,69.5 99.0,75.0 88.0,80.5 77.0,75.0" fill="#16202c"/>
<polygon points="99.0,75.0 110.0,80.5 110.0,82.5 99.0,77.0" fill="#0c1118"/>
<polygon points="110.0,80.5 121.0,75.0 121.0,77.0 110.0,82.5" fill="#0f171f"/>
<polygon points="110.0,69.5 121.0,75.0 110.0,80.5 99.0,75.0" fill="#16202c"/>
<polygon points="121.0,75.0 132.0,80.5 132.0,82.5 121.0,77.0" fill="#0c1118"/>
<polygon points="132.0,80.5 143.0,75.0 143.0,77.0 132.0,82.5" fill="#0f171f"/>
<polygon points="132.0,69.5 143.0,75.0 132.0,80.5 121.0,75.0" fill="#16202c"/>
<polygon points="143.0,75.0 154.0,80.5 154.0,82.5 143.0,77.0" fill="#0c1118"/>
<polygon points="154.0,80.5 165.0,75.0 165.0,77.0 154.0,82.5" fill="#0f171f"/>
<polygon points="154.0,69.5 165.0,75.0 154.0,80.5 143.0,75.0" fill="#16202c"/>
<polygon points="22.0,80.5 33.0,86.0 33.0,88.0 22.0,82.5" fill="#0c1118"/>
<polygon points="33.0,86.0 44.0,80.5 44.0,82.5 33.0,88.0" fill="#0f171f"/>
<polygon points="33.0,75.0 44.0,80.5 33.0,86.0 22.0,80.5" fill="#16202c"/>
<polygon points="44.0,80.5 55.0,86.0 55.0,88.0 44.0,82.5" fill="#0c1118"/>
<polygon points="55.0,86.0 66.0,80.5 66.0,82.5 55.0,88.0" fill="#0f171f"/>
<polygon points="55.0,75.0 66.0,80.5 55.0,86.0 44.0,80.5" fill="#16202c"/>
<polygon points="66.0,80.5 77.0,86.0 77.0,88.0 66.0,82.5" fill="#0c1118"/>
<polygon points="77.0,86.0 88.0,80.5 88.0,82.5 77.0,88.0" fill="#0f171f"/>
<polygon points="77.0,75.0 88.0,80.5 77.0,86.0 66.0,80.5" fill="#16202c"/>
<polygon points="88.0,80.5 99.0,86.0 99.0,88.0 88.0,82.5" fill="#0c1118"/>
<polygon points="99.0,86.0 110.0,80.5 110.0,82.5 99.0,88.0" fill="#0f171f"/>
<polygon points="99.0,75.0 110.0,80.5 99.0,86.0 88.0,80.5" fill="#16202c"/>
<polygon points="110.0,80.5 121.0,86.0 121.0,88.0 110.0,82.5" fill="#0c1118"/>
<polygon points="121.0,86.0 132.0,80.5 132.0,82.5 121.0,88.0" fill="#0f171f"/>
<polygon points="121.0,75.0 132.0,80.5 121.0,86.0 110.0,80.5" fill="#16202c"/>
<polygon points="132.0,80.5 143.0,86.0 143.0,88.0 132.0,82.5" fill="#0c1118"/>
<polygon points="143.0,86.0 154.0,80.5 154.0,82.5 143.0,88.0" fill="#0f171f"/>
<polygon points="143.0,75.0 154.0,80.5 143.0,86.0 132.0,80.5" fill="#16202c"/>
<polygon points="154.0,80.5 165.0,86.0 165.0,88.0 154.0,82.5" fill="#0c1118"/>
<polygon points="165.0,86.0 176.0,80.5 176.0,82.5 165.0,88.0" fill="#0f171f"/>
<polygon points="165.0,75.0 176.0,80.5 165.0,86.0 154.0,80.5" fill="#16202c"/>
<polygon points="33.0,86.0 44.0,91.5 44.0,93.5 33.0,88.0" fill="#0c1118"/>
<polygon points="44.0,91.5 55.0,86.0 55.0,88.0 44.0,93.5" fill="#0f171f"/>
<polygon points="44.0,80.5 55.0,86.0 44.0,91.5 33.0,86.0" fill="#16202c"/>
<polygon points="55.0,86.0 66.0,91.5 66.0,93.5 55.0,88.0" fill="#0c1118"/>
<polygon points="66.0,91.5 77.0,86.0 77.0,88.0 66.0,93.5" fill="#0f171f"/>
<polygon points="66.0,80.5 77.0,86.0 66.0,91.5 55.0,86.0" fill="#16202c"/>
<polygon points="77.0,86.0 88.0,91.5 88.0,93.5 77.0,88.0" fill="#0c1118"/>
<polygon points="88.0,91.5 99.0,86.0 99.0,88.0 88.0,93.5" fill="#0f171f"/>
<polygon points="88.0,80.5 99.0,86.0 88.0,91.5 77.0,86.0" fill="#16202c"/>
<polygon points="99.0,86.0 110.0,91.5 110.0,93.5 99.0,88.0" fill="#0c1118"/>
<polygon points="110.0,91.5 121.0,86.0 121.0,88.0 110.0,93.5" fill="#0f171f"/>
<polygon points="110.0,80.5 121.0,86.0 110.0,91.5 99.0,86.0" fill="#16202c"/>
<polygon points="121.0,86.0 132.0,91.5 132.0,93.5 121.0,88.0" fill="#0c1118"/>
<polygon points="132.0,91.5 143.0,86.0 143.0,88.0 132.0,93.5" fill="#0f171f"/>
<polygon points="132.0,80.5 143.0,86.0 132.0,91.5 121.0,86.0" fill="#16202c"/>
<polygon points="143.0,86.0 154.0,91.5 154.0,93.5 143.0,88.0" fill="#0c1118"/>
<polygon points="154.0,91.5 165.0,86.0 165.0,88.0 154.0,93.5" fill="#0f171f"/>
<polygon points="154.0,80.5 165.0,86.0 154.0,91.5 143.0,86.0" fill="#16202c"/>
<polygon points="165.0,86.0 176.0,91.5 176.0,93.5 165.0,88.0" fill="#0c1118"/>
<polygon points="176.0,91.5 187.0,86.0 187.0,88.0 176.0,93.5" fill="#0f171f"/>
<polygon points="176.0,80.5 187.0,86.0 176.0,91.5 165.0,86.0" fill="#16202c"/>
<polygon points="44.0,91.5 55.0,97.0 55.0,99.0 44.0,93.5" fill="#0c1118"/>
<polygon points="55.0,97.0 66.0,91.5 66.0,93.5 55.0,99.0" fill="#0f171f"/>
<polygon points="55.0,86.0 66.0,91.5 55.0,97.0 44.0,91.5" fill="#16202c"/>
<polygon points="66.0,91.5 77.0,97.0 77.0,99.0 66.0,93.5" fill="#0c1118"/>
<polygon points="77.0,97.0 88.0,91.5 88.0,93.5 77.0,99.0" fill="#0f171f"/>
<polygon points="77.0,86.0 88.0,91.5 77.0,97.0 66.0,91.5" fill="#16202c"/>
<polygon points="88.0,91.5 99.0,97.0 99.0,99.0 88.0,93.5" fill="#0c1118"/>
<polygon points="99.0,97.0 110.0,91.5 110.0,93.5 99.0,99.0" fill="#0f171f"/>
<polygon points="99.0,86.0 110.0,91.5 99.0,97.0 88.0,91.5" fill="#16202c"/>
<polygon points="110.0,91.5 121.0,97.0 121.0,99.0 110.0,93.5" fill="#0c1118"/>
<polygon points="121.0,97.0 132.0,91.5 132.0,93.5 121.0,99.0" fill="#0f171f"/>
<polygon points="121.0,86.0 132.0,91.5 121.0,97.0 110.0,91.5" fill="#16202c"/>
<polygon points="132.0,91.5 143.0,97.0 143.0,99.0 132.0,93.5" fill="#0c1118"/>
<polygon points="143.0,97.0 154.0,91.5 154.0,93.5 143.0,99.0" fill="#0f171f"/>
<polygon points="143.0,86.0 154.0,91.5 143.0,97.0 132.0,91.5" fill="#16202c"/>
<polygon points="154.0,91.5 165.0,97.0 165.0,99.0 154.0,93.5" fill="#0c1118"/>
<polygon points="165.0,97.0 176.0,91.5 176.0,93.5 165.0,99.0" fill="#0f171f"/>
<polygon points="165.0,86.0 176.0,91.5 165.0,97.0 154.0,91.5" fill="#16202c"/>
<polygon points="176.0,91.5 187.0,97.0 187.0,99.0 176.0,93.5" fill="#0c1118"/>
<polygon points="187.0,97.0 198.0,91.5 198.0,93.5 187.0,99.0" fill="#0f171f"/>
<polygon points="187.0,86.0 198.0,91.5 187.0,97.0 176.0,91.5" fill="#16202c"/>
<polygon points="55.0,97.0 66.0,102.5 66.0,104.5 55.0,99.0" fill="#0c1118"/>
<polygon points="66.0,102.5 77.0,97.0 77.0,99.0 66.0,104.5" fill="#0f171f"/>
<polygon points="66.0,91.5 77.0,97.0 66.0,102.5 55.0,97.0" fill="#16202c"/>
<polygon points="77.0,97.0 88.0,102.5 88.0,104.5 77.0,99.0" fill="#0c1118"/>
<polygon points="88.0,102.5 99.0,97.0 99.0,99.0 88.0,104.5" fill="#0f171f"/>
<polygon points="88.0,91.5 99.0,97.0 88.0,102.5 77.0,97.0" fill="#16202c"/>
<polygon points="99.0,97.0 110.0,102.5 110.0,104.5 99.0,99.0" fill="#0c1118"/>
<polygon points="110.0,102.5 121.0,97.0 121.0,99.0 110.0,104.5" fill="#0f171f"/>
<polygon points="110.0,91.5 121.0,97.0 110.0,102.5 99.0,97.0" fill="#16202c"/>
<polygon points="121.0,97.0 132.0,102.5 132.0,104.5 121.0,99.0" fill="#0c1118"/>
<polygon points="132.0,102.5 143.0,97.0 143.0,99.0 132.0,104.5" fill="#0f171f"/>
<polygon points="132.0,91.5 143.0,97.0 132.0,102.5 121.0,97.0" fill="#16202c"/>
<polygon points="143.0,97.0 154.0,102.5 154.0,104.5 143.0,99.0" fill="#0c1118"/>
<polygon points="154.0,102.5 165.0,97.0 165.0,99.0 154.0,104.5" fill="#0f171f"/>
<polygon points="154.0,91.5 165.0,97.0 154.0,102.5 143.0,97.0" fill="#16202c"/>
<polygon points="165.0,97.0 176.0,102.5 176.0,104.5 165.0,99.0" fill="#0c1118"/>
<polygon points="176.0,102.5 187.0,97.0 187.0,99.0 176.0,104.5" fill="#0f171f"/>
<polygon points="176.0,91.5 187.0,97.0 176.0,102.5 165.0,97.0" fill="#16202c"/>
<polygon points="187.0,97.0 198.0,102.5 198.0,104.5 187.0,99.0" fill="#0c1118"/>
<polygon points="198.0,102.5 209.0,97.0 209.0,99.0 198.0,104.5" fill="#0f171f"/>
<polygon points="198.0,91.5 209.0,97.0 198.0,102.5 187.0,97.0" fill="#16202c"/>
<polygon points="66.0,102.5 77.0,108.0 77.0,110.0 66.0,104.5" fill="#0c1118"/>
<polygon points="77.0,108.0 88.0,102.5 88.0,104.5 77.0,110.0" fill="#0f171f"/>
<polygon points="77.0,97.0 88.0,102.5 77.0,108.0 66.0,102.5" fill="#16202c"/>
<polygon points="88.0,102.5 99.0,108.0 99.0,110.0 88.0,104.5" fill="#0c1118"/>
<polygon points="99.0,108.0 110.0,102.5 110.0,104.5 99.0,110.0" fill="#0f171f"/>
<polygon points="99.0,97.0 110.0,102.5 99.0,108.0 88.0,102.5" fill="#16202c"/>
<polygon points="110.0,102.5 121.0,108.0 121.0,110.0 110.0,104.5" fill="#0c1118"/>
<polygon points="121.0,108.0 132.0,102.5 132.0,104.5 121.0,110.0" fill="#0f171f"/>
<polygon points="121.0,97.0 132.0,102.5 121.0,108.0 110.0,102.5" fill="#16202c"/>
<polygon points="132.0,102.5 143.0,108.0 143.0,110.0 132.0,104.5" fill="#0c1118"/>
<polygon points="143.0,108.0 154.0,102.5 154.0,104.5 143.0,110.0" fill="#0f171f"/>
<polygon points="143.0,97.0 154.0,102.5 143.0,108.0 132.0,102.5" fill="#16202c"/>
<polygon points="154.0,102.5 165.0,108.0 165.0,110.0 154.0,104.5" fill="#0c1118"/>
<polygon points="165.0,108.0 176.0,102.5 176.0,104.5 165.0,110.0" fill="#0f171f"/>
<polygon points="165.0,97.0 176.0,102.5 165.0,108.0 154.0,102.5" fill="#16202c"/>
<polygon points="176.0,102.5 187.0,108.0 187.0,110.0 176.0,104.5" fill="#0c1118"/>
<polygon points="187.0,108.0 198.0,102.5 198.0,104.5 187.0,110.0" fill="#0f171f"/>
<polygon points="187.0,97.0 198.0,102.5 187.0,108.0 176.0,102.5" fill="#16202c"/>
<polygon points="198.0,102.5 209.0,108.0 209.0,110.0 198.0,104.5" fill="#0c1118"/>
<polygon points="209.0,108.0 220.0,102.5 220.0,104.5 209.0,110.0" fill="#0f171f"/>
<polygon points="209.0,97.0 220.0,102.5 209.0,108.0 198.0,102.5" fill="#16202c"/>
<polygon points="77.0,108.0 88.0,113.5 88.0,115.5 77.0,110.0" fill="#0c1118"/>
<polygon points="88.0,113.5 99.0,108.0 99.0,110.0 88.0,115.5" fill="#0f171f"/>
<polygon points="88.0,102.5 99.0,108.0 88.0,113.5 77.0,108.0" fill="#16202c"/>
<polygon points="99.0,108.0 110.0,113.5 110.0,115.5 99.0,110.0" fill="#0c1118"/>
<polygon points="110.0,113.5 121.0,108.0 121.0,110.0 110.0,115.5" fill="#0f171f"/>
<polygon points="110.0,102.5 121.0,108.0 110.0,113.5 99.0,108.0" fill="#16202c"/>
<polygon points="121.0,108.0 132.0,113.5 132.0,115.5 121.0,110.0" fill="#0c1118"/>
<polygon points="132.0,113.5 143.0,108.0 143.0,110.0 132.0,115.5" fill="#0f171f"/>
<polygon points="132.0,102.5 143.0,108.0 132.0,113.5 121.0,108.0" fill="#16202c"/>
<polygon points="143.0,108.0 154.0,113.5 154.0,115.5 143.0,110.0" fill="#0c1118"/>
<polygon points="154.0,113.5 165.0,108.0 165.0,110.0 154.0,115.5" fill="#0f171f"/>
<polygon points="154.0,102.5 165.0,108.0 154.0,113.5 143.0,108.0" fill="#16202c"/>
<polygon points="165.0,108.0 176.0,113.5 176.0,115.5 165.0,110.0" fill="#0c1118"/>
<polygon points="176.0,113.5 187.0,108.0 187.0,110.0 176.0,115.5" fill="#0f171f"/>
<polygon points="176.0,102.5 187.0,108.0 176.0,113.5 165.0,108.0" fill="#16202c"/>
<polygon points="187.0,108.0 198.0,113.5 198.0,115.5 187.0,110.0" fill="#0c1118"/>
<polygon points="198.0,113.5 209.0,108.0 209.0,110.0 198.0,115.5" fill="#0f171f"/>
<polygon points="198.0,102.5 209.0,108.0 198.0,113.5 187.0,108.0" fill="#16202c"/>
<polygon points="209.0,108.0 220.0,113.5 220.0,115.5 209.0,110.0" fill="#0c1118"/>
<polygon points="220.0,113.5 231.0,108.0 231.0,110.0 220.0,115.5" fill="#0f171f"/>
<polygon points="220.0,102.5 231.0,108.0 220.0,113.5 209.0,108.0" fill="#16202c"/>
<polygon points="88.0,113.5 99.0,119.0 99.0,121.0 88.0,115.5" fill="#0c1118"/>
<polygon points="99.0,119.0 110.0,113.5 110.0,115.5 99.0,121.0" fill="#0f171f"/>
<polygon points="99.0,108.0 110.0,113.5 99.0,119.0 88.0,113.5" fill="#16202c"/>
<polygon points="110.0,113.5 121.0,119.0 121.0,121.0 110.0,115.5" fill="#0c1118"/>
<polygon points="121.0,119.0 132.0,113.5 132.0,115.5 121.0,121.0" fill="#0f171f"/>
<polygon points="121.0,108.0 132.0,113.5 121.0,119.0 110.0,113.5" fill="#16202c"/>
<polygon points="132.0,113.5 143.0,119.0 143.0,121.0 132.0,115.5" fill="#0c1118"/>
<polygon points="143.0,119.0 154.0,113.5 154.0,115.5 143.0,121.0" fill="#0f171f"/>
<polygon points="143.0,108.0 154.0,113.5 143.0,119.0 132.0,113.5" fill="#16202c"/>
<polygon points="154.0,113.5 165.0,119.0 165.0,121.0 154.0,115.5" fill="#0c1118"/>
<polygon points="165.0,119.0 176.0,113.5 176.0,115.5 165.0,121.0" fill="#0f171f"/>
<polygon points="165.0,108.0 176.0,113.5 165.0,119.0 154.0,113.5" fill="#16202c"/>
<polygon points="176.0,113.5 187.0,119.0 187.0,121.0 176.0,115.5" fill="#0c1118"/>
<polygon points="187.0,119.0 198.0,113.5 198.0,115.5 187.0,121.0" fill="#0f171f"/>
<polygon points="187.0,108.0 198.0,113.5 187.0,119.0 176.0,113.5" fill="#16202c"/>
<polygon points="198.0,113.5 209.0,119.0 209.0,121.0 198.0,115.5" fill="#0c1118"/>
<polygon points="209.0,119.0 220.0,113.5 220.0,115.5 209.0,121.0" fill="#0f171f"/>
<polygon points="209.0,108.0 220.0,113.5 209.0,119.0 198.0,113.5" fill="#16202c"/>
<polygon points="220.0,113.5 231.0,119.0 231.0,121.0 220.0,115.5" fill="#0c1118"/>
<polygon points="231.0,119.0 242.0,113.5 242.0,115.5 231.0,121.0" fill="#0f171f"/>
<polygon points="231.0,108.0 242.0,113.5 231.0,119.0 220.0,113.5" fill="#16202c"/>
<polygon points="99.0,119.0 110.0,124.5 110.0,126.5 99.0,121.0" fill="#0c1118"/>
<polygon points="110.0,124.5 121.0,119.0 121.0,121.0 110.0,126.5" fill="#0f171f"/>
<polygon points="110.0,113.5 121.0,119.0 110.0,124.5 99.0,119.0" fill="#16202c"/>
<polygon points="121.0,119.0 132.0,124.5 132.0,126.5 121.0,121.0" fill="#0c1118"/>
<polygon points="132.0,124.5 143.0,119.0 143.0,121.0 132.0,126.5" fill="#0f171f"/>
<polygon points="132.0,113.5 143.0,119.0 132.0,124.5 121.0,119.0" fill="#16202c"/>
<polygon points="143.0,119.0 154.0,124.5 154.0,126.5 143.0,121.0" fill="#0c1118"/>
<polygon points="154.0,124.5 165.0,119.0 165.0,121.0 154.0,126.5" fill="#0f171f"/>
<polygon points="154.0,113.5 165.0,119.0 154.0,124.5 143.0,119.0" fill="#16202c"/>
<polygon points="165.0,119.0 176.0,124.5 176.0,126.5 165.0,121.0" fill="#0c1118"/>
<polygon points="176.0,124.5 187.0,119.0 187.0,121.0 176.0,126.5" fill="#0f171f"/>
<polygon points="176.0,113.5 187.0,119.0 176.0,124.5 165.0,119.0" fill="#16202c"/>
<polygon points="187.0,119.0 198.0,124.5 198.0,126.5 187.0,121.0" fill="#0c1118"/>
<polygon points="198.0,124.5 209.0,119.0 209.0,121.0 198.0,126.5" fill="#0f171f"/>
<polygon points="198.0,113.5 209.0,119.0 198.0,124.5 187.0,119.0" fill="#16202c"/>
<polygon points="209.0,119.0 220.0,124.5 220.0,126.5 209.0,121.0" fill="#0c1118"/>
<polygon points="220.0,124.5 231.0,119.0 231.0,121.0 220.0,126.5" fill="#0f171f"/>
<polygon points="220.0,113.5 231.0,119.0 220.0,124.5 209.0,119.0" fill="#16202c"/>
<polygon points="231.0,119.0 242.0,124.5 242.0,126.5 231.0,121.0" fill="#0c1118"/>
<polygon points="242.0,124.5 253.0,119.0 253.0,121.0 242.0,126.5" fill="#0f171f"/>
<polygon points="242.0,113.5 253.0,119.0 242.0,124.5 231.0,119.0" fill="#16202c"/>
<polygon points="110.0,124.5 121.0,130.0 121.0,132.0 110.0,126.5" fill="#0c1118"/>
<polygon points="121.0,130.0 132.0,124.5 132.0,126.5 121.0,132.0" fill="#0f171f"/>
<polygon points="121.0,119.0 132.0,124.5 121.0,130.0 110.0,124.5" fill="#16202c"/>
<polygon points="132.0,124.5 143.0,130.0 143.0,132.0 132.0,126.5" fill="#0c1118"/>
<polygon points="143.0,130.0 154.0,124.5 154.0,126.5 143.0,132.0" fill="#0f171f"/>
<polygon points="143.0,119.0 154.0,124.5 143.0,130.0 132.0,124.5" fill="#16202c"/>
<polygon points="154.0,124.5 165.0,130.0 165.0,132.0 154.0,126.5" fill="#0c1118"/>
<polygon points="165.0,130.0 176.0,124.5 176.0,126.5 165.0,132.0" fill="#0f171f"/>
<polygon points="165.0,119.0 176.0,124.5 165.0,130.0 154.0,124.5" fill="#16202c"/>
<polygon points="176.0,124.5 187.0,130.0 187.0,132.0 176.0,126.5" fill="#0c1118"/>
<polygon points="187.0,130.0 198.0,124.5 198.0,126.5 187.0,132.0" fill="#0f171f"/>
<polygon points="187.0,119.0 198.0,124.5 187.0,130.0 176.0,124.5" fill="#16202c"/>
<polygon points="198.0,122.3 209.0,127.8 209.0,132.0 198.0,126.5" fill="#122631"/>
<polygon points="209.0,127.8 220.0,122.3 220.0,126.5 209.0,132.0" fill="#173240"/>
<polygon points="209.0,116.8 220.0,122.3 209.0,127.8 198.0,122.3" fill="#21465a"/>
<polygon points="220.0,121.8 231.0,127.3 231.0,132.0 220.0,126.5" fill="#122631"/>
<polygon points="231.0,127.3 242.0,121.8 242.0,126.5 231.0,132.0" fill="#173240"/>
<polygon points="231.0,116.3 242.0,121.8 231.0,127.3 220.0,121.8" fill="#21465a"/>
<polygon points="242.0,124.5 253.0,130.0 253.0,132.0 242.0,126.5" fill="#0c1118"/>
<polygon points="253.0,130.0 264.0,124.5 264.0,126.5 253.0,132.0" fill="#0f171f"/>
<polygon points="253.0,119.0 264.0,124.5 253.0,130.0 242.0,124.5" fill="#16202c"/>
<polygon points="121.0,130.0 132.0,135.5 132.0,137.5 121.0,132.0" fill="#0c1118"/>
<polygon points="132.0,135.5 143.0,130.0 143.0,132.0 132.0,137.5" fill="#0f171f"/>
<polygon points="132.0,124.5 143.0,130.0 132.0,135.5 121.0,130.0" fill="#16202c"/>
<polygon points="143.0,130.0 154.0,135.5 154.0,137.5 143.0,132.0" fill="#0c1118"/>
<polygon points="154.0,135.5 165.0,130.0 165.0,132.0 154.0,137.5" fill="#0f171f"/>
<polygon points="154.0,124.5 165.0,130.0 154.0,135.5 143.0,130.0" fill="#16202c"/>
<polygon points="165.0,130.0 176.0,135.5 176.0,137.5 165.0,132.0" fill="#0c1118"/>
<polygon points="176.0,135.5 187.0,130.0 187.0,132.0 176.0,137.5" fill="#0f171f"/>
<polygon points="176.0,124.5 187.0,130.0 176.0,135.5 165.0,130.0" fill="#16202c"/>
<polygon points="187.0,112.0 198.0,117.5 198.0,137.5 187.0,132.0" fill="#5b818c"/>
<polygon points="198.0,117.5 209.0,112.0 209.0,132.0 198.0,137.5" fill="#77a9b7"/>
<polygon points="198.0,106.5 209.0,112.0 198.0,117.5 187.0,112.0" fill="#a6ecff"/>
<polygon points="209.0,119.7 220.0,125.2 220.0,137.5 209.0,132.0" fill="#5b818c"/>
<polygon points="220.0,125.2 231.0,119.7 231.0,132.0 220.0,137.5" fill="#77a9b7"/>
<polygon points="220.0,114.2 231.0,119.7 220.0,125.2 209.0,119.7" fill="#a6ecff"/>
<polygon points="231.0,130.0 242.0,135.5 242.0,137.5 231.0,132.0" fill="#0c1118"/>
<polygon points="242.0,135.5 253.0,130.0 253.0,132.0 242.0,137.5" fill="#0f171f"/>
<polygon points="242.0,124.5 253.0,130.0 242.0,135.5 231.0,130.0" fill="#16202c"/>
<polygon points="253.0,130.0 264.0,135.5 264.0,137.5 253.0,132.0" fill="#0c1118"/>
<polygon points="264.0,135.5 275.0,130.0 275.0,132.0 264.0,137.5" fill="#0f171f"/>
<polygon points="264.0,124.5 275.0,130.0 264.0,135.5 253.0,130.0" fill="#16202c"/>
<polygon points="132.0,135.5 143.0,141.0 143.0,143.0 132.0,137.5" fill="#0c1118"/>
<polygon points="143.0,141.0 154.0,135.5 154.0,137.5 143.0,143.0" fill="#0f171f"/>
<polygon points="143.0,130.0 154.0,135.5 143.0,141.0 132.0,135.5" fill="#16202c"/>
<polygon points="154.0,135.5 165.0,141.0 165.0,143.0 154.0,137.5" fill="#0c1118"/>
<polygon points="165.0,141.0 176.0,135.5 176.0,137.5 165.0,143.0" fill="#0f171f"/>
<polygon points="165.0,130.0 176.0,135.5 165.0,141.0 154.0,135.5" fill="#16202c"/>
<polygon points="176.0,132.3 187.0,137.8 187.0,143.0 176.0,137.5" fill="#122631"/>
<polygon points="187.0,137.8 198.0,132.3 198.0,137.5 187.0,143.0" fill="#173240"/>
<polygon points="187.0,126.8 198.0,132.3 187.0,137.8 176.0,132.3" fill="#21465a"/>
<polygon points="198.0,135.5 209.0,141.0 209.0,143.0 198.0,137.5" fill="#0c1118"/>
<polygon points="209.0,141.0 220.0,135.5 220.0,137.5 209.0,143.0" fill="#0f171f"/>
<polygon points="209.0,130.0 220.0,135.5 209.0,141.0 198.0,135.5" fill="#16202c"/>
<polygon points="220.0,135.5 231.0,141.0 231.0,143.0 220.0,137.5" fill="#0c1118"/>
<polygon points="231.0,141.0 242.0,135.5 242.0,137.5 231.0,143.0" fill="#0f171f"/>
<polygon points="231.0,130.0 242.0,135.5 231.0,141.0 220.0,135.5" fill="#16202c"/>
<polygon points="242.0,135.5 253.0,141.0 253.0,143.0 242.0,137.5" fill="#0c1118"/>
<polygon points="253.0,141.0 264.0,135.5 264.0,137.5 253.0,143.0" fill="#0f171f"/>
<polygon points="253.0,130.0 264.0,135.5 253.0,141.0 242.0,135.5" fill="#16202c"/>
<polygon points="264.0,135.5 275.0,141.0 275.0,143.0 264.0,137.5" fill="#0c1118"/>
<polygon points="275.0,141.0 286.0,135.5 286.0,137.5 275.0,143.0" fill="#0f171f"/>
<polygon points="275.0,130.0 286.0,135.5 275.0,141.0 264.0,135.5" fill="#16202c"/>
<polygon points="143.0,141.0 154.0,146.5 154.0,148.5 143.0,143.0" fill="#0c1118"/>
<polygon points="154.0,146.5 165.0,141.0 165.0,143.0 154.0,148.5" fill="#0f171f"/>
<polygon points="154.0,135.5 165.0,141.0 154.0,146.5 143.0,141.0" fill="#16202c"/>
<polygon points="165.0,138.8 176.0,144.3 176.0,148.5 165.0,143.0" fill="#122631"/>
<polygon points="176.0,144.3 187.0,138.8 187.0,143.0 176.0,148.5" fill="#173240"/>
<polygon points="176.0,133.3 187.0,138.8 176.0,144.3 165.0,138.8" fill="#21465a"/>
<polygon points="187.0,141.0 198.0,146.5 198.0,148.5 187.0,143.0" fill="#0c1118"/>
<polygon points="198.0,146.5 209.0,141.0 209.0,143.0 198.0,148.5" fill="#0f171f"/>
<polygon points="198.0,135.5 209.0,141.0 198.0,146.5 187.0,141.0" fill="#16202c"/>
<polygon points="209.0,141.0 220.0,146.5 220.0,148.5 209.0,143.0" fill="#0c1118"/>
<polygon points="220.0,146.5 231.0,141.0 231.0,143.0 220.0,148.5" fill="#0f171f"/>
<polygon points="220.0,135.5 231.0,141.0 220.0,146.5 209.0,141.0" fill="#16202c"/>
<polygon points="231.0,141.0 242.0,146.5 242.0,148.5 231.0,143.0" fill="#0c1118"/>
<polygon points="242.0,146.5 253.0,141.0 253.0,143.0 242.0,148.5" fill="#0f171f"/>
<polygon points="242.0,135.5 253.0,141.0 242.0,146.5 231.0,141.0" fill="#16202c"/>
<polygon points="253.0,141.0 264.0,146.5 264.0,148.5 253.0,143.0" fill="#0c1118"/>
<polygon points="264.0,146.5 275.0,141.0 275.0,143.0 264.0,148.5" fill="#0f171f"/>
<polygon points="264.0,135.5 275.0,141.0 264.0,146.5 253.0,141.0" fill="#16202c"/>
<polygon points="275.0,141.0 286.0,146.5 286.0,148.5 275.0,143.0" fill="#0c1118"/>
<polygon points="286.0,146.5 297.0,141.0 297.0,143.0 286.0,148.5" fill="#0f171f"/>
<polygon points="286.0,135.5 297.0,141.0 286.0,146.5 275.0,141.0" fill="#16202c"/>
<polygon points="154.0,146.5 165.0,152.0 165.0,154.0 154.0,148.5" fill="#0c1118"/>
<polygon points="165.0,152.0 176.0,146.5 176.0,148.5 165.0,154.0" fill="#0f171f"/>
<polygon points="165.0,141.0 176.0,146.5 165.0,152.0 154.0,146.5" fill="#16202c"/>
<polygon points="176.0,146.5 187.0,152.0 187.0,154.0 176.0,148.5" fill="#0c1118"/>
<polygon points="187.0,152.0 198.0,146.5 198.0,148.5 187.0,154.0" fill="#0f171f"/>
<polygon points="187.0,141.0 198.0,146.5 187.0,152.0 176.0,146.5" fill="#16202c"/>
<polygon points="198.0,146.5 209.0,152.0 209.0,154.0 198.0,148.5" fill="#0c1118"/>
<polygon points="209.0,152.0 220.0,146.5 220.0,148.5 209.0,154.0" fill="#0f171f"/>
<polygon points="209.0,141.0 220.0,146.5 209.0,152.0 198.0,146.5" fill="#16202c"/>
<polygon points="220.0,146.5 231.0,152.0 231.0,154.0 220.0,148.5" fill="#0c1118"/>
<polygon points="231.0,152.0 242.0,146.5 242.0,148.5 231.0,154.0" fill="#0f171f"/>
<polygon points="231.0,141.0 242.0,146.5 231.0,152.0 220.0,146.5" fill="#16202c"/>
<polygon points="242.0,146.5 253.0,152.0 253.0,154.0 242.0,148.5" fill="#0c1118"/>
<polygon points="253.0,152.0 264.0,146.5 264.0,148.5 253.0,154.0" fill="#0f171f"/>
<polygon points="253.0,141.0 264.0,146.5 253.0,152.0 242.0,146.5" fill="#16202c"/>
<polygon points="264.0,146.5 275.0,152.0 275.0,154.0 264.0,148.5" fill="#0c1118"/>
<polygon points="275.0,152.0 286.0,146.5 286.0,148.5 275.0,154.0" fill="#0f171f"/>
<polygon points="275.0,141.0 286.0,146.5 275.0,152.0 264.0,146.5" fill="#16202c"/>
<polygon points="286.0,146.5 297.0,152.0 297.0,154.0 286.0,148.5" fill="#0c1118"/>
<polygon points="297.0,152.0 308.0,146.5 308.0,148.5 297.0,154.0" fill="#0f171f"/>
<polygon points="297.0,141.0 308.0,146.5 297.0,152.0 286.0,146.5" fill="#16202c"/>
<polygon points="165.0,152.0 176.0,157.5 176.0,159.5 165.0,154.0" fill="#0c1118"/>
<polygon points="176.0,157.5 187.0,152.0 187.0,154.0 176.0,159.5" fill="#0f171f"/>
<polygon points="176.0,146.5 187.0,152.0 176.0,157.5 165.0,152.0" fill="#16202c"/>
<polygon points="187.0,152.0 198.0,157.5 198.0,159.5 187.0,154.0" fill="#0c1118"/>
<polygon points="198.0,157.5 209.0,152.0 209.0,154.0 198.0,159.5" fill="#0f171f"/>
<polygon points="198.0,146.5 209.0,152.0 198.0,157.5 187.0,152.0" fill="#16202c"/>
<polygon points="209.0,152.0 220.0,157.5 220.0,159.5 209.0,154.0" fill="#0c1118"/>
<polygon points="220.0,157.5 231.0,152.0 231.0,154.0 220.0,159.5" fill="#0f171f"/>
<polygon points="220.0,146.5 231.0,152.0 220.0,157.5 209.0,152.0" fill="#16202c"/>
<polygon points="231.0,152.0 242.0,157.5 242.0,159.5 231.0,154.0" fill="#0c1118"/>
<polygon points="242.0,157.5 253.0,152.0 253.0,154.0 242.0,159.5" fill="#0f171f"/>
<polygon points="242.0,146.5 253.0,152.0 242.0,157.5 231.0,152.0" fill="#16202c"/>
<polygon points="253.0,152.0 264.0,157.5 264.0,159.5 253.0,154.0" fill="#0c1118"/>
<polygon points="264.0,157.5 275.0,152.0 275.0,154.0 264.0,159.5" fill="#0f171f"/>
<polygon points="264.0,146.5 275.0,152.0 264.0,157.5 253.0,152.0" fill="#16202c"/>
<polygon points="275.0,152.0 286.0,157.5 286.0,159.5 275.0,154.0" fill="#0c1118"/>
<polygon points="286.0,157.5 297.0,152.0 297.0,154.0 286.0,159.5" fill="#0f171f"/>
<polygon points="286.0,146.5 297.0,152.0 286.0,157.5 275.0,152.0" fill="#16202c"/>
<polygon points="297.0,152.0 308.0,157.5 308.0,159.5 297.0,154.0" fill="#0c1118"/>
<polygon points="308.0,157.5 319.0,152.0 319.0,154.0 308.0,159.5" fill="#0f171f"/>
<polygon points="308.0,146.5 319.0,152.0 308.0,157.5 297.0,152.0" fill="#16202c"/>
<polygon points="176.0,157.5 187.0,163.0 187.0,165.0 176.0,159.5" fill="#0c1118"/>
<polygon points="187.0,163.0 198.0,157.5 198.0,159.5 187.0,165.0" fill="#0f171f"/>
<polygon points="187.0,152.0 198.0,157.5 187.0,163.0 176.0,157.5" fill="#16202c"/>
<polygon points="198.0,157.5 209.0,163.0 209.0,165.0 198.0,159.5" fill="#0c1118"/>
<polygon points="209.0,163.0 220.0,157.5 220.0,159.5 209.0,165.0" fill="#0f171f"/>
<polygon points="209.0,152.0 220.0,157.5 209.0,163.0 198.0,157.5" fill="#16202c"/>
<polygon points="220.0,157.5 231.0,163.0 231.0,165.0 220.0,159.5" fill="#0c1118"/>
<polygon points="231.0,163.0 242.0,157.5 242.0,159.5 231.0,165.0" fill="#0f171f"/>
<polygon points="231.0,152.0 242.0,157.5 231.0,163.0 220.0,157.5" fill="#16202c"/>
<polygon points="242.0,157.5 253.0,163.0 253.0,165.0 242.0,159.5" fill="#0c1118"/>
<polygon points="253.0,163.0 264.0,157.5 264.0,159.5 253.0,165.0" fill="#0f171f"/>
<polygon points="253.0,152.0 264.0,157.5 253.0,163.0 242.0,157.5" fill="#16202c"/>
<polygon points="264.0,157.5 275.0,163.0 275.0,165.0 264.0,159.5" fill="#0c1118"/>
<polygon points="275.0,163.0 286.0,157.5 286.0,159.5 275.0,165.0" fill="#0f171f"/>
<polygon points="275.0,152.0 286.0,157.5 275.0,163.0 264.0,157.5" fill="#16202c"/>
<polygon points="286.0,157.5 297.0,163.0 297.0,165.0 286.0,159.5" fill="#0c1118"/>
<polygon points="297.0,163.0 308.0,157.5 308.0,159.5 297.0,165.0" fill="#0f171f"/>
<polygon points="297.0,152.0 308.0,157.5 297.0,163.0 286.0,157.5" fill="#16202c"/>
<polygon points="308.0,157.5 319.0,163.0 319.0,165.0 308.0,159.5" fill="#0c1118"/>
<polygon points="319.0,163.0 330.0,157.5 330.0,159.5 319.0,165.0" fill="#0f171f"/>
<polygon points="319.0,152.0 330.0,157.5 319.0,163.0 308.0,157.5" fill="#16202c"/>
<polygon points="187.0,163.0 198.0,168.5 198.0,170.5 187.0,165.0" fill="#0c1118"/>
<polygon points="198.0,168.5 209.0,163.0 209.0,165.0 198.0,170.5" fill="#0f171f"/>
<polygon points="198.0,157.5 209.0,163.0 198.0,168.5 187.0,163.0" fill="#16202c"/>
<polygon points="209.0,163.0 220.0,168.5 220.0,170.5 209.0,165.0" fill="#0c1118"/>
<polygon points="220.0,168.5 231.0,163.0 231.0,165.0 220.0,170.5" fill="#0f171f"/>
<polygon points="220.0,157.5 231.0,163.0 220.0,168.5 209.0,163.0" fill="#16202c"/>
<polygon points="231.0,163.0 242.0,168.5 242.0,170.5 231.0,165.0" fill="#0c1118"/>
<polygon points="242.0,168.5 253.0,163.0 253.0,165.0 242.0,170.5" fill="#0f171f"/>
<polygon points="242.0,157.5 253.0,163.0 242.0,168.5 231.0,163.0" fill="#16202c"/>
<polygon points="253.0,163.0 264.0,168.5 264.0,170.5 253.0,165.0" fill="#0c1118"/>
<polygon points="264.0,168.5 275.0,163.0 275.0,165.0 264.0,170.5" fill="#0f171f"/>
<polygon points="264.0,157.5 275.0,163.0 264.0,168.5 253.0,163.0" fill="#16202c"/>
<polygon points="275.0,163.0 286.0,168.5 286.0,170.5 275.0,165.0" fill="#0c1118"/>
<polygon points="286.0,168.5 297.0,163.0 297.0,165.0 286.0,170.5" fill="#0f171f"/>
<polygon points="286.0,157.5 297.0,163.0 286.0,168.5 275.0,163.0" fill="#16202c"/>
<polygon points="297.0,163.0 308.0,168.5 308.0,170.5 297.0,165.0" fill="#0c1118"/>
<polygon points="308.0,168.5 319.0,163.0 319.0,165.0 308.0,170.5" fill="#0f171f"/>
<polygon points="308.0,157.5 319.0,163.0 308.0,168.5 297.0,163.0" fill="#16202c"/>
<polygon points="319.0,163.0 330.0,168.5 330.0,170.5 319.0,165.0" fill="#0c1118"/>
<polygon points="330.0,168.5 341.0,163.0 341.0,165.0 330.0,170.5" fill="#0f171f"/>
<polygon points="330.0,157.5 341.0,163.0 330.0,168.5 319.0,163.0" fill="#16202c"/>
<polygon points="198.0,168.5 209.0,174.0 209.0,176.0 198.0,170.5" fill="#0c1118"/>
<polygon points="209.0,174.0 220.0,168.5 220.0,170.5 209.0,176.0" fill="#0f171f"/>
<polygon points="209.0,163.0 220.0,168.5 209.0,174.0 198.0,168.5" fill="#16202c"/>
<polygon points="220.0,168.5 231.0,174.0 231.0,176.0 220.0,170.5" fill="#0c1118"/>
<polygon points="231.0,174.0 242.0,168.5 242.0,170.5 231.0,176.0" fill="#0f171f"/>
<polygon points="231.0,163.0 242.0,168.5 231.0,174.0 220.0,168.5" fill="#16202c"/>
<polygon points="242.0,168.5 253.0,174.0 253.0,176.0 242.0,170.5" fill="#0c1118"/>
<polygon points="253.0,174.0 264.0,168.5 264.0,170.5 253.0,176.0" fill="#0f171f"/>
<polygon points="253.0,163.0 264.0,168.5 253.0,174.0 242.0,168.5" fill="#16202c"/>
<polygon points="264.0,168.5 275.0,174.0 275.0,176.0 264.0,170.5" fill="#0c1118"/>
<polygon points="275.0,174.0 286.0,168.5 286.0,170.5 275.0,176.0" fill="#0f171f"/>
<polygon points="275.0,163.0 286.0,168.5 275.0,174.0 264.0,168.5" fill="#16202c"/>
<polygon points="286.0,168.5 297.0,174.0 297.0,176.0 286.0,170.5" fill="#0c1118"/>
<polygon points="297.0,174.0 308.0,168.5 308.0,170.5 297.0,176.0" fill="#0f171f"/>
<polygon points="297.0,163.0 308.0,168.5 297.0,174.0 286.0,168.5" fill="#16202c"/>
<polygon points="308.0,168.5 319.0,174.0 319.0,176.0 308.0,170.5" fill="#0c1118"/>
<polygon points="319.0,174.0 330.0,168.5 330.0,170.5 319.0,176.0" fill="#0f171f"/>
<polygon points="319.0,163.0 330.0,168.5 319.0,174.0 308.0,168.5" fill="#16202c"/>
<polygon points="330.0,168.5 341.0,174.0 341.0,176.0 330.0,170.5" fill="#0c1118"/>
<polygon points="341.0,174.0 352.0,168.5 352.0,170.5 341.0,176.0" fill="#0f171f"/>
<polygon points="341.0,163.0 352.0,168.5 341.0,174.0 330.0,168.5" fill="#16202c"/>
<polygon points="209.0,174.0 220.0,179.5 220.0,181.5 209.0,176.0" fill="#0c1118"/>
<polygon points="220.0,179.5 231.0,174.0 231.0,176.0 220.0,181.5" fill="#0f171f"/>
<polygon points="220.0,168.5 231.0,174.0 220.0,179.5 209.0,174.0" fill="#16202c"/>
<polygon points="231.0,174.0 242.0,179.5 242.0,181.5 231.0,176.0" fill="#0c1118"/>
<polygon points="242.0,179.5 253.0,174.0 253.0,176.0 242.0,181.5" fill="#0f171f"/>
<polygon points="242.0,168.5 253.0,174.0 242.0,179.5 231.0,174.0" fill="#16202c"/>
<polygon points="253.0,174.0 264.0,179.5 264.0,181.5 253.0,176.0" fill="#0c1118"/>
<polygon points="264.0,179.5 275.0,174.0 275.0,176.0 264.0,181.5" fill="#0f171f"/>
<polygon points="264.0,168.5 275.0,174.0 264.0,179.5 253.0,174.0" fill="#16202c"/>
<polygon points="275.0,174.0 286.0,179.5 286.0,181.5 275.0,176.0" fill="#0c1118"/>
<polygon points="286.0,179.5 297.0,174.0 297.0,176.0 286.0,181.5" fill="#0f171f"/>
<polygon points="286.0,168.5 297.0,174.0 286.0,179.5 275.0,174.0" fill="#16202c"/>
<polygon points="297.0,174.0 308.0,179.5 308.0,181.5 297.0,176.0" fill="#0c1118"/>
<polygon points="308.0,179.5 319.0,174.0 319.0,176.0 308.0,181.5" fill="#0f171f"/>
<polygon points="308.0,168.5 319.0,174.0 308.0,179.5 297.0,174.0" fill="#16202c"/>
<polygon points="319.0,174.0 330.0,179.5 330.0,181.5 319.0,176.0" fill="#0c1118"/>
<polygon points="330.0,179.5 341.0,174.0 341.0,176.0 330.0,181.5" fill="#0f171f"/>
<polygon points="330.0,168.5 341.0,174.0 330.0,179.5 319.0,174.0" fill="#16202c"/>
<polygon points="341.0,174.0 352.0,179.5 352.0,181.5 341.0,176.0" fill="#0c1118"/>
<polygon points="352.0,179.5 363.0,174.0 363.0,176.0 352.0,181.5" fill="#0f171f"/>
<polygon points="352.0,168.5 363.0,174.0 352.0,179.5 341.0,174.0" fill="#16202c"/>
<polygon points="220.0,179.5 231.0,185.0 231.0,187.0 220.0,181.5" fill="#0c1118"/>
<polygon points="231.0,185.0 242.0,179.5 242.0,181.5 231.0,187.0" fill="#0f171f"/>
<polygon points="231.0,174.0 242.0,179.5 231.0,185.0 220.0,179.5" fill="#16202c"/>
<polygon points="242.0,179.5 253.0,185.0 253.0,187.0 242.0,181.5" fill="#0c1118"/>
<polygon points="253.0,185.0 264.0,179.5 264.0,181.5 253.0,187.0" fill="#0f171f"/>
<polygon points="253.0,174.0 264.0,179.5 253.0,185.0 242.0,179.5" fill="#16202c"/>
<polygon points="264.0,179.5 275.0,185.0 275.0,187.0 264.0,181.5" fill="#0c1118"/>
<polygon points="275.0,185.0 286.0,179.5 286.0,181.5 275.0,187.0" fill="#0f171f"/>
<polygon points="275.0,174.0 286.0,179.5 275.0,185.0 264.0,179.5" fill="#16202c"/>
<polygon points="286.0,179.5 297.0,185.0 297.0,187.0 286.0,181.5" fill="#0c1118"/>
<polygon points="297.0,185.0 308.0,179.5 308.0,181.5 297.0,187.0" fill="#0f171f"/>
<polygon points="297.0,174.0 308.0,179.5 297.0,185.0 286.0,179.5" fill="#16202c"/>
<polygon points="308.0,179.5 319.0,185.0 319.0,187.0 308.0,181.5" fill="#0c1118"/>
<polygon points="319.0,185.0 330.0,179.5 330.0,181.5 319.0,187.0" fill="#0f171f"/>
<polygon points="319.0,174.0 330.0,179.5 319.0,185.0 308.0,179.5" fill="#16202c"/>
<polygon points="330.0,179.5 341.0,185.0 341.0,187.0 330.0,181.5" fill="#0c1118"/>
<polygon points="341.0,185.0 352.0,179.5 352.0,181.5 341.0,187.0" fill="#0f171f"/>
<polygon points="341.0,174.0 352.0,179.5 341.0,185.0 330.0,179.5" fill="#16202c"/>
<polygon points="352.0,179.5 363.0,185.0 363.0,187.0 352.0,181.5" fill="#0c1118"/>
<polygon points="363.0,185.0 374.0,179.5 374.0,181.5 363.0,187.0" fill="#0f171f"/>
<polygon points="363.0,174.0 374.0,179.5 363.0,185.0 352.0,179.5" fill="#16202c"/>
<polygon points="231.0,185.0 242.0,190.5 242.0,192.5 231.0,187.0" fill="#0c1118"/>
<polygon points="242.0,190.5 253.0,185.0 253.0,187.0 242.0,192.5" fill="#0f171f"/>
<polygon points="242.0,179.5 253.0,185.0 242.0,190.5 231.0,185.0" fill="#16202c"/>
<polygon points="253.0,185.0 264.0,190.5 264.0,192.5 253.0,187.0" fill="#0c1118"/>
<polygon points="264.0,190.5 275.0,185.0 275.0,187.0 264.0,192.5" fill="#0f171f"/>
<polygon points="264.0,179.5 275.0,185.0 264.0,190.5 253.0,185.0" fill="#16202c"/>
<polygon points="275.0,185.0 286.0,190.5 286.0,192.5 275.0,187.0" fill="#0c1118"/>
<polygon points="286.0,190.5 297.0,185.0 297.0,187.0 286.0,192.5" fill="#0f171f"/>
<polygon points="286.0,179.5 297.0,185.0 286.0,190.5 275.0,185.0" fill="#16202c"/>
<polygon points="297.0,185.0 308.0,190.5 308.0,192.5 297.0,187.0" fill="#0c1118"/>
<polygon points="308.0,190.5 319.0,185.0 319.0,187.0 308.0,192.5" fill="#0f171f"/>
<polygon points="308.0,179.5 319.0,185.0 308.0,190.5 297.0,185.0" fill="#16202c"/>
<polygon points="319.0,185.0 330.0,190.5 330.0,192.5 319.0,187.0" fill="#0c1118"/>
<polygon points="330.0,190.5 341.0,185.0 341.0,187.0 330.0,192.5" fill="#0f171f"/>
<polygon points="330.0,179.5 341.0,185.0 330.0,190.5 319.0,185.0" fill="#16202c"/>
<polygon points="341.0,185.0 352.0,190.5 352.0,192.5 341.0,187.0" fill="#0c1118"/>
<polygon points="352.0,190.5 363.0,185.0 363.0,187.0 352.0,192.5" fill="#0f171f"/>
<polygon points="352.0,179.5 363.0,185.0 352.0,190.5 341.0,185.0" fill="#16202c"/>
<polygon points="363.0,185.0 374.0,190.5 374.0,192.5 363.0,187.0" fill="#0c1118"/>
<polygon points="374.0,190.5 385.0,185.0 385.0,187.0 374.0,192.5" fill="#0f171f"/>
<polygon points="374.0,179.5 385.0,185.0 374.0,190.5 363.0,185.0" fill="#16202c"/>
<polygon points="242.0,190.5 253.0,196.0 253.0,198.0 242.0,192.5" fill="#0c1118"/>
<polygon points="253.0,196.0 264.0,190.5 264.0,192.5 253.0,198.0" fill="#0f171f"/>
<polygon points="253.0,185.0 264.0,190.5 253.0,196.0 242.0,190.5" fill="#16202c"/>
<polygon points="264.0,190.5 275.0,196.0 275.0,198.0 264.0,192.5" fill="#0c1118"/>
<polygon points="275.0,196.0 286.0,190.5 286.0,192.5 275.0,198.0" fill="#0f171f"/>
<polygon points="275.0,185.0 286.0,190.5 275.0,196.0 264.0,190.5" fill="#16202c"/>
<polygon points="286.0,190.5 297.0,196.0 297.0,198.0 286.0,192.5" fill="#0c1118"/>
<polygon points="297.0,196.0 308.0,190.5 308.0,192.5 297.0,198.0" fill="#0f171f"/>
<polygon points="297.0,185.0 308.0,190.5 297.0,196.0 286.0,190.5" fill="#16202c"/>
<polygon points="308.0,190.5 319.0,196.0 319.0,198.0 308.0,192.5" fill="#0c1118"/>
<polygon points="319.0,196.0 330.0,190.5 330.0,192.5 319.0,198.0" fill="#0f171f"/>
<polygon points="319.0,185.0 330.0,190.5 319.0,196.0 308.0,190.5" fill="#16202c"/>
<polygon points="330.0,190.5 341.0,196.0 341.0,198.0 330.0,192.5" fill="#0c1118"/>
<polygon points="341.0,196.0 352.0,190.5 352.0,192.5 341.0,198.0" fill="#0f171f"/>
<polygon points="341.0,185.0 352.0,190.5 341.0,196.0 330.0,190.5" fill="#16202c"/>
<polygon points="352.0,190.5 363.0,196.0 363.0,198.0 352.0,192.5" fill="#0c1118"/>
<polygon points="363.0,196.0 374.0,190.5 374.0,192.5 363.0,198.0" fill="#0f171f"/>
<polygon points="363.0,185.0 374.0,190.5 363.0,196.0 352.0,190.5" fill="#16202c"/>
<polygon points="374.0,190.5 385.0,196.0 385.0,198.0 374.0,192.5" fill="#0c1118"/>
<polygon points="385.0,196.0 396.0,190.5 396.0,192.5 385.0,198.0" fill="#0f171f"/>
<polygon points="385.0,185.0 396.0,190.5 385.0,196.0 374.0,190.5" fill="#16202c"/>
<polygon points="253.0,196.0 264.0,201.5 264.0,203.5 253.0,198.0" fill="#0c1118"/>
<polygon points="264.0,201.5 275.0,196.0 275.0,198.0 264.0,203.5" fill="#0f171f"/>
<polygon points="264.0,190.5 275.0,196.0 264.0,201.5 253.0,196.0" fill="#16202c"/>
<polygon points="275.0,196.0 286.0,201.5 286.0,203.5 275.0,198.0" fill="#0c1118"/>
<polygon points="286.0,201.5 297.0,196.0 297.0,198.0 286.0,203.5" fill="#0f171f"/>
<polygon points="286.0,190.5 297.0,196.0 286.0,201.5 275.0,196.0" fill="#16202c"/>
<polygon points="297.0,196.0 308.0,201.5 308.0,203.5 297.0,198.0" fill="#0c1118"/>
<polygon points="308.0,201.5 319.0,196.0 319.0,198.0 308.0,203.5" fill="#0f171f"/>
<polygon points="308.0,190.5 319.0,196.0 308.0,201.5 297.0,196.0" fill="#16202c"/>
<polygon points="319.0,196.0 330.0,201.5 330.0,203.5 319.0,198.0" fill="#0c1118"/>
<polygon points="330.0,201.5 341.0,196.0 341.0,198.0 330.0,203.5" fill="#0f171f"/>
<polygon points="330.0,190.5 341.0,196.0 330.0,201.5 319.0,196.0" fill="#16202c"/>
<polygon points="341.0,196.0 352.0,201.5 352.0,203.5 341.0,198.0" fill="#0c1118"/>
<polygon points="352.0,201.5 363.0,196.0 363.0,198.0 352.0,203.5" fill="#0f171f"/>
<polygon points="352.0,190.5 363.0,196.0 352.0,201.5 341.0,196.0" fill="#16202c"/>
<polygon points="363.0,196.0 374.0,201.5 374.0,203.5 363.0,198.0" fill="#0c1118"/>
<polygon points="374.0,201.5 385.0,196.0 385.0,198.0 374.0,203.5" fill="#0f171f"/>
<polygon points="374.0,190.5 385.0,196.0 374.0,201.5 363.0,196.0" fill="#16202c"/>
<polygon points="385.0,196.0 396.0,201.5 396.0,203.5 385.0,198.0" fill="#0c1118"/>
<polygon points="396.0,201.5 407.0,196.0 407.0,198.0 396.0,203.5" fill="#0f171f"/>
<polygon points="396.0,190.5 407.0,196.0 396.0,201.5 385.0,196.0" fill="#16202c"/>
<polygon points="264.0,201.5 275.0,207.0 275.0,209.0 264.0,203.5" fill="#0c1118"/>
<polygon points="275.0,207.0 286.0,201.5 286.0,203.5 275.0,209.0" fill="#0f171f"/>
<polygon points="275.0,196.0 286.0,201.5 275.0,207.0 264.0,201.5" fill="#16202c"/>
<polygon points="286.0,201.5 297.0,207.0 297.0,209.0 286.0,203.5" fill="#0c1118"/>
<polygon points="297.0,207.0 308.0,201.5 308.0,203.5 297.0,209.0" fill="#0f171f"/>
<polygon points="297.0,196.0 308.0,201.5 297.0,207.0 286.0,201.5" fill="#16202c"/>
<polygon points="308.0,201.5 319.0,207.0 319.0,209.0 308.0,203.5" fill="#0c1118"/>
<polygon points="319.0,207.0 330.0,201.5 330.0,203.5 319.0,209.0" fill="#0f171f"/>
<polygon points="319.0,196.0 330.0,201.5 319.0,207.0 308.0,201.5" fill="#16202c"/>
<polygon points="330.0,201.5 341.0,207.0 341.0,209.0 330.0,203.5" fill="#0c1118"/>
<polygon points="341.0,207.0 352.0,201.5 352.0,203.5 341.0,209.0" fill="#0f171f"/>
<polygon points="341.0,196.0 352.0,201.5 341.0,207.0 330.0,201.5" fill="#16202c"/>
<polygon points="352.0,201.5 363.0,207.0 363.0,209.0 352.0,203.5" fill="#0c1118"/>
<polygon points="363.0,207.0 374.0,201.5 374.0,203.5 363.0,209.0" fill="#0f171f"/>
<polygon points="363.0,196.0 374.0,201.5 363.0,207.0 352.0,201.5" fill="#16202c"/>
<polygon points="374.0,201.5 385.0,207.0 385.0,209.0 374.0,203.5" fill="#0c1118"/>
<polygon points="385.0,207.0 396.0,201.5 396.0,203.5 385.0,209.0" fill="#0f171f"/>
<polygon points="385.0,196.0 396.0,201.5 385.0,207.0 374.0,201.5" fill="#16202c"/>
<polygon points="396.0,201.5 407.0,207.0 407.0,209.0 396.0,203.5" fill="#0c1118"/>
<polygon points="407.0,207.0 418.0,201.5 418.0,203.5 407.0,209.0" fill="#0f171f"/>
<polygon points="407.0,196.0 418.0,201.5 407.0,207.0 396.0,201.5" fill="#16202c"/>
<polygon points="275.0,207.0 286.0,212.5 286.0,214.5 275.0,209.0" fill="#0c1118"/>
<polygon points="286.0,212.5 297.0,207.0 297.0,209.0 286.0,214.5" fill="#0f171f"/>
<polygon points="286.0,201.5 297.0,207.0 286.0,212.5 275.0,207.0" fill="#16202c"/>
<polygon points="297.0,207.0 308.0,212.5 308.0,214.5 297.0,209.0" fill="#0c1118"/>
<polygon points="308.0,212.5 319.0,207.0 319.0,209.0 308.0,214.5" fill="#0f171f"/>
<polygon points="308.0,201.5 319.0,207.0 308.0,212.5 297.0,207.0" fill="#16202c"/>
<polygon points="319.0,207.0 330.0,212.5 330.0,214.5 319.0,209.0" fill="#0c1118"/>
<polygon points="330.0,212.5 341.0,207.0 341.0,209.0 330.0,214.5" fill="#0f171f"/>
<polygon points="330.0,201.5 341.0,207.0 330.0,212.5 319.0,207.0" fill="#16202c"/>
<polygon points="341.0,207.0 352.0,212.5 352.0,214.5 341.0,209.0" fill="#0c1118"/>
<polygon points="352.0,212.5 363.0,207.0 363.0,209.0 352.0,214.5" fill="#0f171f"/>
<polygon points="352.0,201.5 363.0,207.0 352.0,212.5 341.0,207.0" fill="#16202c"/>
<polygon points="363.0,207.0 374.0,212.5 374.0,214.5 363.0,209.0" fill="#0c1118"/>
<polygon points="374.0,212.5 385.0,207.0 385.0,209.0 374.0,214.5" fill="#0f171f"/>
<polygon points="374.0,201.5 385.0,207.0 374.0,212.5 363.0,207.0" fill="#16202c"/>
<polygon points="385.0,207.0 396.0,212.5 396.0,214.5 385.0,209.0" fill="#0c1118"/>
<polygon points="396.0,212.5 407.0,207.0 407.0,209.0 396.0,214.5" fill="#0f171f"/>
<polygon points="396.0,201.5 407.0,207.0 396.0,212.5 385.0,207.0" fill="#16202c"/>
<polygon points="407.0,207.0 418.0,212.5 418.0,214.5 407.0,209.0" fill="#0c1118"/>
<polygon points="418.0,212.5 429.0,207.0 429.0,209.0 418.0,214.5" fill="#0f171f"/>
<polygon points="418.0,201.5 429.0,207.0 418.0,212.5 407.0,207.0" fill="#16202c"/>
<polygon points="286.0,212.5 297.0,218.0 297.0,220.0 286.0,214.5" fill="#0c1118"/>
<polygon points="297.0,218.0 308.0,212.5 308.0,214.5 297.0,220.0" fill="#0f171f"/>
<polygon points="297.0,207.0 308.0,212.5 297.0,218.0 286.0,212.5" fill="#16202c"/>
<polygon points="308.0,212.5 319.0,218.0 319.0,220.0 308.0,214.5" fill="#0c1118"/>
<polygon points="319.0,218.0 330.0,212.5 330.0,214.5 319.0,220.0" fill="#0f171f"/>
<polygon points="319.0,207.0 330.0,212.5 319.0,218.0 308.0,212.5" fill="#16202c"/>
<polygon points="330.0,212.5 341.0,218.0 341.0,220.0 330.0,214.5" fill="#0c1118"/>
<polygon points="341.0,218.0 352.0,212.5 352.0,214.5 341.0,220.0" fill="#0f171f"/>
<polygon points="341.0,207.0 352.0,212.5 341.0,218.0 330.0,212.5" fill="#16202c"/>
<polygon points="352.0,212.5 363.0,218.0 363.0,220.0 352.0,214.5" fill="#0c1118"/>
<polygon points="363.0,218.0 374.0,212.5 374.0,214.5 363.0,220.0" fill="#0f171f"/>
<polygon points="363.0,207.0 374.0,212.5 363.0,218.0 352.0,212.5" fill="#16202c"/>
<polygon points="374.0,212.5 385.0,218.0 385.0,220.0 374.0,214.5" fill="#0c1118"/>
<polygon points="385.0,218.0 396.0,212.5 396.0,214.5 385.0,220.0" fill="#0f171f"/>
<polygon points="385.0,207.0 396.0,212.5 385.0,218.0 374.0,212.5" fill="#16202c"/>
<polygon points="396.0,212.5 407.0,218.0 407.0,220.0 396.0,214.5" fill="#0c1118"/>
<polygon points="407.0,218.0 418.0,212.5 418.0,214.5 407.0,220.0" fill="#0f171f"/>
<polygon points="407.0,207.0 418.0,212.5 407.0,218.0 396.0,212.5" fill="#16202c"/>
<polygon points="418.0,212.5 429.0,218.0 429.0,220.0 418.0,214.5" fill="#0c1118"/>
<polygon points="429.0,218.0 440.0,212.5 440.0,214.5 429.0,220.0" fill="#0f171f"/>
<polygon points="429.0,207.0 440.0,212.5 429.0,218.0 418.0,212.5" fill="#16202c"/>
<polygon points="297.0,218.0 308.0,223.5 308.0,225.5 297.0,220.0" fill="#0c1118"/>
<polygon points="308.0,223.5 319.0,218.0 319.0,220.0 308.0,225.5" fill="#0f171f"/>
<polygon points="308.0,212.5 319.0,218.0 308.0,223.5 297.0,218.0" fill="#16202c"/>
<polygon points="319.0,218.0 330.0,223.5 330.0,225.5 319.0,220.0" fill="#0c1118"/>
<polygon points="330.0,223.5 341.0,218.0 341.0,220.0 330.0,225.5" fill="#0f171f"/>
<polygon points="330.0,212.5 341.0,218.0 330.0,223.5 319.0,218.0" fill="#16202c"/>
<polygon points="341.0,218.0 352.0,223.5 352.0,225.5 341.0,220.0" fill="#0c1118"/>
<polygon points="352.0,223.5 363.0,218.0 363.0,220.0 352.0,225.5" fill="#0f171f"/>
<polygon points="352.0,212.5 363.0,218.0 352.0,223.5 341.0,218.0" fill="#16202c"/>
<polygon points="363.0,218.0 374.0,223.5 374.0,225.5 363.0,220.0" fill="#0c1118"/>
<polygon points="374.0,223.5 385.0,218.0 385.0,220.0 374.0,225.5" fill="#0f171f"/>
<polygon points="374.0,212.5 385.0,218.0 374.0,223.5 363.0,218.0" fill="#16202c"/>
<polygon points="385.0,218.0 396.0,223.5 396.0,225.5 385.0,220.0" fill="#0c1118"/>
<polygon points="396.0,223.5 407.0,218.0 407.0,220.0 396.0,225.5" fill="#0f171f"/>
<polygon points="396.0,212.5 407.0,218.0 396.0,223.5 385.0,218.0" fill="#16202c"/>
<polygon points="407.0,218.0 418.0,223.5 418.0,225.5 407.0,220.0" fill="#0c1118"/>
<polygon points="418.0,223.5 429.0,218.0 429.0,220.0 418.0,225.5" fill="#0f171f"/>
<polygon points="418.0,212.5 429.0,218.0 418.0,223.5 407.0,218.0" fill="#16202c"/>
<polygon points="429.0,218.0 440.0,223.5 440.0,225.5 429.0,220.0" fill="#0c1118"/>
<polygon points="440.0,223.5 451.0,218.0 451.0,220.0 440.0,225.5" fill="#0f171f"/>
<polygon points="440.0,212.5 451.0,218.0 440.0,223.5 429.0,218.0" fill="#16202c"/>
<polygon points="308.0,223.5 319.0,229.0 319.0,231.0 308.0,225.5" fill="#0c1118"/>
<polygon points="319.0,229.0 330.0,223.5 330.0,225.5 319.0,231.0" fill="#0f171f"/>
<polygon points="319.0,218.0 330.0,223.5 319.0,229.0 308.0,223.5" fill="#16202c"/>
<polygon points="330.0,223.5 341.0,229.0 341.0,231.0 330.0,225.5" fill="#0c1118"/>
<polygon points="341.0,229.0 352.0,223.5 352.0,225.5 341.0,231.0" fill="#0f171f"/>
<polygon points="341.0,218.0 352.0,223.5 341.0,229.0 330.0,223.5" fill="#16202c"/>
<polygon points="352.0,223.5 363.0,229.0 363.0,231.0 352.0,225.5" fill="#0c1118"/>
<polygon points="363.0,229.0 374.0,223.5 374.0,225.5 363.0,231.0" fill="#0f171f"/>
<polygon points="363.0,218.0 374.0,223.5 363.0,229.0 352.0,223.5" fill="#16202c"/>
<polygon points="374.0,223.5 385.0,229.0 385.0,231.0 374.0,225.5" fill="#0c1118"/>
<polygon points="385.0,229.0 396.0,223.5 396.0,225.5 385.0,231.0" fill="#0f171f"/>
<polygon points="385.0,218.0 396.0,223.5 385.0,229.0 374.0,223.5" fill="#16202c"/>
<polygon points="396.0,223.5 407.0,229.0 407.0,231.0 396.0,225.5" fill="#0c1118"/>
<polygon points="407.0,229.0 418.0,223.5 418.0,225.5 407.0,231.0" fill="#0f171f"/>
<polygon points="407.0,218.0 418.0,223.5 407.0,229.0 396.0,223.5" fill="#16202c"/>
<polygon points="418.0,223.5 429.0,229.0 429.0,231.0 418.0,225.5" fill="#0c1118"/>
<polygon points="429.0,229.0 440.0,223.5 440.0,225.5 429.0,231.0" fill="#0f171f"/>
<polygon points="429.0,218.0 440.0,223.5 429.0,229.0 418.0,223.5" fill="#16202c"/>
<polygon points="440.0,223.5 451.0,229.0 451.0,231.0 440.0,225.5" fill="#0c1118"/>
<polygon points="451.0,229.0 462.0,223.5 462.0,225.5 451.0,231.0" fill="#0f171f"/>
<polygon points="451.0,218.0 462.0,223.5 451.0,229.0 440.0,223.5" fill="#16202c"/>
<polygon points="319.0,229.0 330.0,234.5 330.0,236.5 319.0,231.0" fill="#0c1118"/>
<polygon points="330.0,234.5 341.0,229.0 341.0,231.0 330.0,236.5" fill="#0f171f"/>
<polygon points="330.0,223.5 341.0,229.0 330.0,234.5 319.0,229.0" fill="#16202c"/>
<polygon points="341.0,229.0 352.0,234.5 352.0,236.5 341.0,231.0" fill="#0c1118"/>
<polygon points="352.0,234.5 363.0,229.0 363.0,231.0 352.0,236.5" fill="#0f171f"/>
<polygon points="352.0,223.5 363.0,229.0 352.0,234.5 341.0,229.0" fill="#16202c"/>
<polygon points="363.0,229.0 374.0,234.5 374.0,236.5 363.0,231.0" fill="#0c1118"/>
<polygon points="374.0,234.5 385.0,229.0 385.0,231.0 374.0,236.5" fill="#0f171f"/>
<polygon points="374.0,223.5 385.0,229.0 374.0,234.5 363.0,229.0" fill="#16202c"/>
<polygon points="385.0,229.0 396.0,234.5 396.0,236.5 385.0,231.0" fill="#0c1118"/>
<polygon points="396.0,234.5 407.0,229.0 407.0,231.0 396.0,236.5" fill="#0f171f"/>
<polygon points="396.0,223.5 407.0,229.0 396.0,234.5 385.0,229.0" fill="#16202c"/>
<polygon points="407.0,229.0 418.0,234.5 418.0,236.5 407.0,231.0" fill="#0c1118"/>
<polygon points="418.0,234.5 429.0,229.0 429.0,231.0 418.0,236.5" fill="#0f171f"/>
<polygon points="418.0,223.5 429.0,229.0 418.0,234.5 407.0,229.0" fill="#16202c"/>
<polygon points="429.0,229.0 440.0,234.5 440.0,236.5 429.0,231.0" fill="#0c1118"/>
<polygon points="440.0,234.5 451.0,229.0 451.0,231.0 440.0,236.5" fill="#0f171f"/>
<polygon points="440.0,223.5 451.0,229.0 440.0,234.5 429.0,229.0" fill="#16202c"/>
<polygon points="451.0,229.0 462.0,234.5 462.0,236.5 451.0,231.0" fill="#0c1118"/>
<polygon points="462.0,234.5 473.0,229.0 473.0,231.0 462.0,236.5" fill="#0f171f"/>
<polygon points="462.0,223.5 473.0,229.0 462.0,234.5 451.0,229.0" fill="#16202c"/>
<polygon points="330.0,234.5 341.0,240.0 341.0,242.0 330.0,236.5" fill="#0c1118"/>
<polygon points="341.0,240.0 352.0,234.5 352.0,236.5 341.0,242.0" fill="#0f171f"/>
<polygon points="341.0,229.0 352.0,234.5 341.0,240.0 330.0,234.5" fill="#16202c"/>
<polygon points="352.0,234.5 363.0,240.0 363.0,242.0 352.0,236.5" fill="#0c1118"/>
<polygon points="363.0,240.0 374.0,234.5 374.0,236.5 363.0,242.0" fill="#0f171f"/>
<polygon points="363.0,229.0 374.0,234.5 363.0,240.0 352.0,234.5" fill="#16202c"/>
<polygon points="374.0,234.5 385.0,240.0 385.0,242.0 374.0,236.5" fill="#0c1118"/>
<polygon points="385.0,240.0 396.0,234.5 396.0,236.5 385.0,242.0" fill="#0f171f"/>
<polygon points="385.0,229.0 396.0,234.5 385.0,240.0 374.0,234.5" fill="#16202c"/>
<polygon points="396.0,234.5 407.0,240.0 407.0,242.0 396.0,236.5" fill="#0c1118"/>
<polygon points="407.0,240.0 418.0,234.5 418.0,236.5 407.0,242.0" fill="#0f171f"/>
<polygon points="407.0,229.0 418.0,234.5 407.0,240.0 396.0,234.5" fill="#16202c"/>
<polygon points="418.0,234.5 429.0,240.0 429.0,242.0 418.0,236.5" fill="#0c1118"/>
<polygon points="429.0,240.0 440.0,234.5 440.0,236.5 429.0,242.0" fill="#0f171f"/>
<polygon points="429.0,229.0 440.0,234.5 429.0,240.0 418.0,234.5" fill="#16202c"/>
<polygon points="440.0,234.5 451.0,240.0 451.0,242.0 440.0,236.5" fill="#0c1118"/>
<polygon points="451.0,240.0 462.0,234.5 462.0,236.5 451.0,242.0" fill="#0f171f"/>
<polygon points="451.0,229.0 462.0,234.5 451.0,240.0 440.0,234.5" fill="#16202c"/>
<polygon points="462.0,234.5 473.0,240.0 473.0,242.0 462.0,236.5" fill="#0c1118"/>
<polygon points="473.0,240.0 484.0,234.5 484.0,236.5 473.0,242.0" fill="#0f171f"/>
<polygon points="473.0,229.0 484.0,234.5 473.0,240.0 462.0,234.5" fill="#16202c"/>
<polygon points="341.0,240.0 352.0,245.5 352.0,247.5 341.0,242.0" fill="#0c1118"/>
<polygon points="352.0,245.5 363.0,240.0 363.0,242.0 352.0,247.5" fill="#0f171f"/>
<polygon points="352.0,234.5 363.0,240.0 352.0,245.5 341.0,240.0" fill="#16202c"/>
<polygon points="363.0,240.0 374.0,245.5 374.0,247.5 363.0,242.0" fill="#0c1118"/>
<polygon points="374.0,245.5 385.0,240.0 385.0,242.0 374.0,247.5" fill="#0f171f"/>
<polygon points="374.0,234.5 385.0,240.0 374.0,245.5 363.0,240.0" fill="#16202c"/>
<polygon points="385.0,240.0 396.0,245.5 396.0,247.5 385.0,242.0" fill="#0c1118"/>
<polygon points="396.0,245.5 407.0,240.0 407.0,242.0 396.0,247.5" fill="#0f171f"/>
<polygon points="396.0,234.5 407.0,240.0 396.0,245.5 385.0,240.0" fill="#16202c"/>
<polygon points="407.0,240.0 418.0,245.5 418.0,247.5 407.0,242.0" fill="#0c1118"/>
<polygon points="418.0,245.5 429.0,240.0 429.0,242.0 418.0,247.5" fill="#0f171f"/>
<polygon points="418.0,234.5 429.0,240.0 418.0,245.5 407.0,240.0" fill="#16202c"/>
<polygon points="429.0,240.0 440.0,245.5 440.0,247.5 429.0,242.0" fill="#0c1118"/>
<polygon points="440.0,245.5 451.0,240.0 451.0,242.0 440.0,247.5" fill="#0f171f"/>
<polygon points="440.0,234.5 451.0,240.0 440.0,245.5 429.0,240.0" fill="#16202c"/>
<polygon points="451.0,240.0 462.0,245.5 462.0,247.5 451.0,242.0" fill="#0c1118"/>
<polygon points="462.0,245.5 473.0,240.0 473.0,242.0 462.0,247.5" fill="#0f171f"/>
<polygon points="462.0,234.5 473.0,240.0 462.0,245.5 451.0,240.0" fill="#16202c"/>
<polygon points="473.0,240.0 484.0,245.5 484.0,247.5 473.0,242.0" fill="#0c1118"/>
<polygon points="484.0,245.5 495.0,240.0 495.0,242.0 484.0,247.5" fill="#0f171f"/>
<polygon points="484.0,234.5 495.0,240.0 484.0,245.5 473.0,240.0" fill="#16202c"/>
<polygon points="352.0,245.5 363.0,251.0 363.0,253.0 352.0,247.5" fill="#0c1118"/>
<polygon points="363.0,251.0 374.0,245.5 374.0,247.5 363.0,253.0" fill="#0f171f"/>
<polygon points="363.0,240.0 374.0,245.5 363.0,251.0 352.0,245.5" fill="#16202c"/>
<polygon points="374.0,245.5 385.0,251.0 385.0,253.0 374.0,247.5" fill="#0c1118"/>
<polygon points="385.0,251.0 396.0,245.5 396.0,247.5 385.0,253.0" fill="#0f171f"/>
<polygon points="385.0,240.0 396.0,245.5 385.0,251.0 374.0,245.5" fill="#16202c"/>
<polygon points="396.0,245.5 407.0,251.0 407.0,253.0 396.0,247.5" fill="#0c1118"/>
<polygon points="407.0,251.0 418.0,245.5 418.0,247.5 407.0,253.0" fill="#0f171f"/>
<polygon points="407.0,240.0 418.0,245.5 407.0,251.0 396.0,245.5" fill="#16202c"/>
<polygon points="418.0,245.5 429.0,251.0 429.0,253.0 418.0,247.5" fill="#0c1118"/>
<polygon points="429.0,251.0 440.0,245.5 440.0,247.5 429.0,253.0" fill="#0f171f"/>
<polygon points="429.0,240.0 440.0,245.5 429.0,251.0 418.0,245.5" fill="#16202c"/>
<polygon points="440.0,245.5 451.0,251.0 451.0,253.0 440.0,247.5" fill="#0c1118"/>
<polygon points="451.0,251.0 462.0,245.5 462.0,247.5 451.0,253.0" fill="#0f171f"/>
<polygon points="451.0,240.0 462.0,245.5 451.0,251.0 440.0,245.5" fill="#16202c"/>
<polygon points="462.0,245.5 473.0,251.0 473.0,253.0 462.0,247.5" fill="#0c1118"/>
<polygon points="473.0,251.0 484.0,245.5 484.0,247.5 473.0,253.0" fill="#0f171f"/>
<polygon points="473.0,240.0 484.0,245.5 473.0,251.0 462.0,245.5" fill="#16202c"/>
<polygon points="484.0,245.5 495.0,251.0 495.0,253.0 484.0,247.5" fill="#0c1118"/>
<polygon points="495.0,251.0 506.0,245.5 506.0,247.5 495.0,253.0" fill="#0f171f"/>
<polygon points="495.0,240.0 506.0,245.5 495.0,251.0 484.0,245.5" fill="#16202c"/>
<polygon points="363.0,251.0 374.0,256.5 374.0,258.5 363.0,253.0" fill="#0c1118"/>
<polygon points="374.0,256.5 385.0,251.0 385.0,253.0 374.0,258.5" fill="#0f171f"/>
<polygon points="374.0,245.5 385.0,251.0 374.0,256.5 363.0,251.0" fill="#16202c"/>
<polygon points="385.0,251.0 396.0,256.5 396.0,258.5 385.0,253.0" fill="#0c1118"/>
<polygon points="396.0,256.5 407.0,251.0 407.0,253.0 396.0,258.5" fill="#0f171f"/>
<polygon points="396.0,245.5 407.0,251.0 396.0,256.5 385.0,251.0" fill="#16202c"/>
<polygon points="407.0,251.0 418.0,256.5 418.0,258.5 407.0,253.0" fill="#0c1118"/>
<polygon points="418.0,256.5 429.0,251.0 429.0,253.0 418.0,258.5" fill="#0f171f"/>
<polygon points="418.0,245.5 429.0,251.0 418.0,256.5 407.0,251.0" fill="#16202c"/>
<polygon points="429.0,251.0 440.0,256.5 440.0,258.5 429.0,253.0" fill="#0c1118"/>
<polygon points="440.0,256.5 451.0,251.0 451.0,253.0 440.0,258.5" fill="#0f171f"/>
<polygon points="440.0,245.5 451.0,251.0 440.0,256.5 429.0,251.0" fill="#16202c"/>
<polygon points="451.0,251.0 462.0,256.5 462.0,258.5 451.0,253.0" fill="#0c1118"/>
<polygon points="462.0,256.5 473.0,251.0 473.0,253.0 462.0,258.5" fill="#0f171f"/>
<polygon points="462.0,245.5 473.0,251.0 462.0,256.5 451.0,251.0" fill="#16202c"/>
<polygon points="473.0,251.0 484.0,256.5 484.0,258.5 473.0,253.0" fill="#0c1118"/>
<polygon points="484.0,256.5 495.0,251.0 495.0,253.0 484.0,258.5" fill="#0f171f"/>
<polygon points="484.0,245.5 495.0,251.0 484.0,256.5 473.0,251.0" fill="#16202c"/>
<polygon points="495.0,251.0 506.0,256.5 506.0,258.5 495.0,253.0" fill="#0c1118"/>
<polygon points="506.0,256.5 517.0,251.0 517.0,253.0 506.0,258.5" fill="#0f171f"/>
<polygon points="506.0,245.5 517.0,251.0 506.0,256.5 495.0,251.0" fill="#16202c"/>
<polygon points="374.0,256.5 385.0,262.0 385.0,264.0 374.0,258.5" fill="#0c1118"/>
<polygon points="385.0,262.0 396.0,256.5 396.0,258.5 385.0,264.0" fill="#0f171f"/>
<polygon points="385.0,251.0 396.0,256.5 385.0,262.0 374.0,256.5" fill="#16202c"/>
<polygon points="396.0,256.5 407.0,262.0 407.0,264.0 396.0,258.5" fill="#0c1118"/>
<polygon points="407.0,262.0 418.0,256.5 418.0,258.5 407.0,264.0" fill="#0f171f"/>
<polygon points="407.0,251.0 418.0,256.5 407.0,262.0 396.0,256.5" fill="#16202c"/>
<polygon points="418.0,256.5 429.0,262.0 429.0,264.0 418.0,258.5" fill="#0c1118"/>
<polygon points="429.0,262.0 440.0,256.5 440.0,258.5 429.0,264.0" fill="#0f171f"/>
<polygon points="429.0,251.0 440.0,256.5 429.0,262.0 418.0,256.5" fill="#16202c"/>
<polygon points="440.0,256.5 451.0,262.0 451.0,264.0 440.0,258.5" fill="#0c1118"/>
<polygon points="451.0,262.0 462.0,256.5 462.0,258.5 451.0,264.0" fill="#0f171f"/>
<polygon points="451.0,251.0 462.0,256.5 451.0,262.0 440.0,256.5" fill="#16202c"/>
<polygon points="462.0,256.5 473.0,262.0 473.0,264.0 462.0,258.5" fill="#0c1118"/>
<polygon points="473.0,262.0 484.0,256.5 484.0,258.5 473.0,264.0" fill="#0f171f"/>
<polygon points="473.0,251.0 484.0,256.5 473.0,262.0 462.0,256.5" fill="#16202c"/>
<polygon points="484.0,256.5 495.0,262.0 495.0,264.0 484.0,258.5" fill="#0c1118"/>
<polygon points="495.0,262.0 506.0,256.5 506.0,258.5 495.0,264.0" fill="#0f171f"/>
<polygon points="495.0,251.0 506.0,256.5 495.0,262.0 484.0,256.5" fill="#16202c"/>
<polygon points="506.0,256.5 517.0,262.0 517.0,264.0 506.0,258.5" fill="#0c1118"/>
<polygon points="517.0,262.0 528.0,256.5 528.0,258.5 517.0,264.0" fill="#0f171f"/>
<polygon points="517.0,251.0 528.0,256.5 517.0,262.0 506.0,256.5" fill="#16202c"/>
<polygon points="385.0,262.0 396.0,267.5 396.0,269.5 385.0,264.0" fill="#0c1118"/>
<polygon points="396.0,267.5 407.0,262.0 407.0,264.0 396.0,269.5" fill="#0f171f"/>
<polygon points="396.0,256.5 407.0,262.0 396.0,267.5 385.0,262.0" fill="#16202c"/>
<polygon points="407.0,262.0 418.0,267.5 418.0,269.5 407.0,264.0" fill="#0c1118"/>
<polygon points="418.0,267.5 429.0,262.0 429.0,264.0 418.0,269.5" fill="#0f171f"/>
<polygon points="418.0,256.5 429.0,262.0 418.0,267.5 407.0,262.0" fill="#16202c"/>
<polygon points="429.0,262.0 440.0,267.5 440.0,269.5 429.0,264.0" fill="#0c1118"/>
<polygon points="440.0,267.5 451.0,262.0 451.0,264.0 440.0,269.5" fill="#0f171f"/>
<polygon points="440.0,256.5 451.0,262.0 440.0,267.5 429.0,262.0" fill="#16202c"/>
<polygon points="451.0,259.6 462.0,265.1 462.0,269.5 451.0,264.0" fill="#122631"/>
<polygon points="462.0,265.1 473.0,259.6 473.0,264.0 462.0,269.5" fill="#173240"/>
<polygon points="462.0,254.1 473.0,259.6 462.0,265.1 451.0,259.6" fill="#21465a"/>
<polygon points="473.0,262.0 484.0,267.5 484.0,269.5 473.0,264.0" fill="#0c1118"/>
<polygon points="484.0,267.5 495.0,262.0 495.0,264.0 484.0,269.5" fill="#0f171f"/>
<polygon points="484.0,256.5 495.0,262.0 484.0,267.5 473.0,262.0" fill="#16202c"/>
<polygon points="495.0,262.0 506.0,267.5 506.0,269.5 495.0,264.0" fill="#0c1118"/>
<polygon points="506.0,267.5 517.0,262.0 517.0,264.0 506.0,269.5" fill="#0f171f"/>
<polygon points="506.0,256.5 517.0,262.0 506.0,267.5 495.0,262.0" fill="#16202c"/>
<polygon points="517.0,262.0 528.0,267.5 528.0,269.5 517.0,264.0" fill="#0c1118"/>
<polygon points="528.0,267.5 539.0,262.0 539.0,264.0 528.0,269.5" fill="#0f171f"/>
<polygon points="528.0,256.5 539.0,262.0 528.0,267.5 517.0,262.0" fill="#16202c"/>
<polygon points="396.0,267.5 407.0,273.0 407.0,275.0 396.0,269.5" fill="#0c1118"/>
<polygon points="407.0,273.0 418.0,267.5 418.0,269.5 407.0,275.0" fill="#0f171f"/>
<polygon points="407.0,262.0 418.0,267.5 407.0,273.0 396.0,267.5" fill="#16202c"/>
<polygon points="418.0,267.5 429.0,273.0 429.0,275.0 418.0,269.5" fill="#0c1118"/>
<polygon points="429.0,273.0 440.0,267.5 440.0,269.5 429.0,275.0" fill="#0f171f"/>
<polygon points="429.0,262.0 440.0,267.5 429.0,273.0 418.0,267.5" fill="#16202c"/>
<polygon points="440.0,267.5 451.0,273.0 451.0,275.0 440.0,269.5" fill="#0c1118"/>
<polygon points="451.0,273.0 462.0,267.5 462.0,269.5 451.0,275.0" fill="#0f171f"/>
<polygon points="451.0,262.0 462.0,267.5 451.0,273.0 440.0,267.5" fill="#16202c"/>
<polygon points="462.0,267.5 473.0,273.0 473.0,275.0 462.0,269.5" fill="#0c1118"/>
<polygon points="473.0,273.0 484.0,267.5 484.0,269.5 473.0,275.0" fill="#0f171f"/>
<polygon points="473.0,262.0 484.0,267.5 473.0,273.0 462.0,267.5" fill="#16202c"/>
<polygon points="484.0,264.6 495.0,270.1 495.0,275.0 484.0,269.5" fill="#122631"/>
<polygon points="495.0,270.1 506.0,264.6 506.0,269.5 495.0,275.0" fill="#173240"/>
<polygon points="495.0,259.1 506.0,264.6 495.0,270.1 484.0,264.6" fill="#21465a"/>
<polygon points="506.0,267.5 517.0,273.0 517.0,275.0 506.0,269.5" fill="#0c1118"/>
<polygon points="517.0,273.0 528.0,267.5 528.0,269.5 517.0,275.0" fill="#0f171f"/>
<polygon points="517.0,262.0 528.0,267.5 517.0,273.0 506.0,267.5" fill="#16202c"/>
<polygon points="528.0,267.5 539.0,273.0 539.0,275.0 528.0,269.5" fill="#0c1118"/>
<polygon points="539.0,273.0 550.0,267.5 550.0,269.5 539.0,275.0" fill="#0f171f"/>
<polygon points="539.0,262.0 550.0,267.5 539.0,273.0 528.0,267.5" fill="#16202c"/>
<polygon points="407.0,273.0 418.0,278.5 418.0,280.5 407.0,275.0" fill="#0c1118"/>
<polygon points="418.0,278.5 429.0,273.0 429.0,275.0 418.0,280.5" fill="#0f171f"/>
<polygon points="418.0,267.5 429.0,273.0 418.0,278.5 407.0,273.0" fill="#16202c"/>
<polygon points="429.0,273.0 440.0,278.5 440.0,280.5 429.0,275.0" fill="#0c1118"/>
<polygon points="440.0,278.5 451.0,273.0 451.0,275.0 440.0,280.5" fill="#0f171f"/>
<polygon points="440.0,267.5 451.0,273.0 440.0,278.5 429.0,273.0" fill="#16202c"/>
<polygon points="451.0,273.0 462.0,278.5 462.0,280.5 451.0,275.0" fill="#0c1118"/>
<polygon points="462.0,278.5 473.0,273.0 473.0,275.0 462.0,280.5" fill="#0f171f"/>
<polygon points="462.0,267.5 473.0,273.0 462.0,278.5 451.0,273.0" fill="#16202c"/>
<polygon points="473.0,273.0 484.0,278.5 484.0,280.5 473.0,275.0" fill="#0c1118"/>
<polygon points="484.0,278.5 495.0,273.0 495.0,275.0 484.0,280.5" fill="#0f171f"/>
<polygon points="484.0,267.5 495.0,273.0 484.0,278.5 473.0,273.0" fill="#16202c"/>
<polygon points="495.0,273.0 506.0,278.5 506.0,280.5 495.0,275.0" fill="#0c1118"/>
<polygon points="506.0,278.5 517.0,273.0 517.0,275.0 506.0,280.5" fill="#0f171f"/>
<polygon points="506.0,267.5 517.0,273.0 506.0,278.5 495.0,273.0" fill="#16202c"/>
<polygon points="517.0,273.0 528.0,278.5 528.0,280.5 517.0,275.0" fill="#0c1118"/>
<polygon points="528.0,278.5 539.0,273.0 539.0,275.0 528.0,280.5" fill="#0f171f"/>
<polygon points="528.0,267.5 539.0,273.0 528.0,278.5 517.0,273.0" fill="#16202c"/>
<polygon points="539.0,270.8 550.0,276.3 550.0,280.5 539.0,275.0" fill="#122631"/>
<polygon points="550.0,276.3 561.0,270.8 561.0,275.0 550.0,280.5" fill="#173240"/>
<polygon points="550.0,265.3 561.0,270.8 550.0,276.3 539.0,270.8" fill="#21465a"/>
<polygon points="418.0,278.5 429.0,284.0 429.0,286.0 418.0,280.5" fill="#0c1118"/>
<polygon points="429.0,284.0 440.0,278.5 440.0,280.5 429.0,286.0" fill="#0f171f"/>
<polygon points="429.0,273.0 440.0,278.5 429.0,284.0 418.0,278.5" fill="#16202c"/>
<polygon points="440.0,278.5 451.0,284.0 451.0,286.0 440.0,280.5" fill="#0c1118"/>
<polygon points="451.0,284.0 462.0,278.5 462.0,280.5 451.0,286.0" fill="#0f171f"/>
<polygon points="451.0,273.0 462.0,278.5 451.0,284.0 440.0,278.5" fill="#16202c"/>
<polygon points="462.0,264.2 473.0,269.7 473.0,286.0 462.0,280.5" fill="#5b818c"/>
<polygon points="473.0,269.7 484.0,264.2 484.0,280.5 473.0,286.0" fill="#77a9b7"/>
<polygon points="473.0,258.7 484.0,264.2 473.0,269.7 462.0,264.2" fill="#a6ecff"/>
<polygon points="484.0,278.5 495.0,284.0 495.0,286.0 484.0,280.5" fill="#0c1118"/>
<polygon points="495.0,284.0 506.0,278.5 506.0,280.5 495.0,286.0" fill="#0f171f"/>
<polygon points="495.0,273.0 506.0,278.5 495.0,284.0 484.0,278.5" fill="#16202c"/>
<polygon points="506.0,278.5 517.0,284.0 517.0,286.0 506.0,280.5" fill="#0c1118"/>
<polygon points="517.0,284.0 528.0,278.5 528.0,280.5 517.0,286.0" fill="#0f171f"/>
<polygon points="517.0,273.0 528.0,278.5 517.0,284.0 506.0,278.5" fill="#16202c"/>
<polygon points="528.0,278.5 539.0,284.0 539.0,286.0 528.0,280.5" fill="#0c1118"/>
<polygon points="539.0,284.0 550.0,278.5 550.0,280.5 539.0,286.0" fill="#0f171f"/>
<polygon points="539.0,273.0 550.0,278.5 539.0,284.0 528.0,278.5" fill="#16202c"/>
<polygon points="550.0,278.5 561.0,284.0 561.0,286.0 550.0,280.5" fill="#0c1118"/>
<polygon points="561.0,284.0 572.0,278.5 572.0,280.5 561.0,286.0" fill="#0f171f"/>
<polygon points="561.0,273.0 572.0,278.5 561.0,284.0 550.0,278.5" fill="#16202c"/>
<polygon points="429.0,284.0 440.0,289.5 440.0,291.5 429.0,286.0" fill="#0c1118"/>
<polygon points="440.0,289.5 451.0,284.0 451.0,286.0 440.0,291.5" fill="#0f171f"/>
<polygon points="440.0,278.5 451.0,284.0 440.0,289.5 429.0,284.0" fill="#16202c"/>
<polygon points="451.0,276.7 462.0,282.2 462.0,291.5 451.0,286.0" fill="#2f5b6a"/>
<polygon points="462.0,282.2 473.0,276.7 473.0,286.0 462.0,291.5" fill="#3d778b"/>
<polygon points="462.0,271.2 473.0,276.7 462.0,282.2 451.0,276.7" fill="#56a6c2"/>
<polygon points="473.0,284.0 484.0,289.5 484.0,291.5 473.0,286.0" fill="#0c1118"/>
<polygon points="484.0,289.5 495.0,284.0 495.0,286.0 484.0,291.5" fill="#0f171f"/>
<polygon points="484.0,278.5 495.0,284.0 484.0,289.5 473.0,284.0" fill="#16202c"/>
<polygon points="495.0,284.0 506.0,289.5 506.0,291.5 495.0,286.0" fill="#0c1118"/>
<polygon points="506.0,289.5 517.0,284.0 517.0,286.0 506.0,291.5" fill="#0f171f"/>
<polygon points="506.0,278.5 517.0,284.0 506.0,289.5 495.0,284.0" fill="#16202c"/>
<polygon points="517.0,280.1 528.0,285.6 528.0,291.5 517.0,286.0" fill="#122631"/>
<polygon points="528.0,285.6 539.0,280.1 539.0,286.0 528.0,291.5" fill="#173240"/>
<polygon points="528.0,274.6 539.0,280.1 528.0,285.6 517.0,280.1" fill="#21465a"/>
<polygon points="539.0,280.6 550.0,286.1 550.0,291.5 539.0,286.0" fill="#122631"/>
<polygon points="550.0,286.1 561.0,280.6 561.0,286.0 550.0,291.5" fill="#173240"/>
<polygon points="550.0,275.1 561.0,280.6 550.0,286.1 539.0,280.6" fill="#21465a"/>
<polygon points="561.0,284.0 572.0,289.5 572.0,291.5 561.0,286.0" fill="#0c1118"/>
<polygon points="572.0,289.5 583.0,284.0 583.0,286.0 572.0,291.5" fill="#0f171f"/>
<polygon points="572.0,278.5 583.0,284.0 572.0,289.5 561.0,284.0" fill="#16202c"/>
<polygon points="440.0,289.5 451.0,295.0 451.0,297.0 440.0,291.5" fill="#0c1118"/>
<polygon points="451.0,295.0 462.0,289.5 462.0,291.5 451.0,297.0" fill="#0f171f"/>
<polygon points="451.0,284.0 462.0,289.5 451.0,295.0 440.0,289.5" fill="#16202c"/>
<polygon points="462.0,289.5 473.0,295.0 473.0,297.0 462.0,291.5" fill="#0c1118"/>
<polygon points="473.0,295.0 484.0,289.5 484.0,291.5 473.0,297.0" fill="#0f171f"/>
<polygon points="473.0,284.0 484.0,289.5 473.0,295.0 462.0,289.5" fill="#16202c"/>
<polygon points="484.0,289.5 495.0,295.0 495.0,297.0 484.0,291.5" fill="#0c1118"/>
<polygon points="495.0,295.0 506.0,289.5 506.0,291.5 495.0,297.0" fill="#0f171f"/>
<polygon points="495.0,284.0 506.0,289.5 495.0,295.0 484.0,289.5" fill="#16202c"/>
<polygon points="506.0,253.5 517.0,259.0 517.0,297.0 506.0,291.5" fill="#5b818c"/>
<polygon points="517.0,259.0 528.0,253.5 528.0,291.5 517.0,297.0" fill="#77a9b7"/>
<polygon points="517.0,248.0 528.0,253.5 517.0,259.0 506.0,253.5" fill="#a6ecff"/>
<polygon points="528.0,287.0 539.0,292.5 539.0,297.0 528.0,291.5" fill="#122631"/>
<polygon points="539.0,292.5 550.0,287.0 550.0,291.5 539.0,297.0" fill="#173240"/>
<polygon points="539.0,281.5 550.0,287.0 539.0,292.5 528.0,287.0" fill="#21465a"/>
<polygon points="550.0,281.2 561.0,286.7 561.0,297.0 550.0,291.5" fill="#5b818c"/>
<polygon points="561.0,286.7 572.0,281.2 572.0,291.5 561.0,297.0" fill="#77a9b7"/>
<polygon points="561.0,275.7 572.0,281.2 561.0,286.7 550.0,281.2" fill="#a6ecff"/>
<polygon points="451.0,295.0 462.0,300.5 462.0,302.5 451.0,297.0" fill="#0c1118"/>
<polygon points="462.0,300.5 473.0,295.0 473.0,297.0 462.0,302.5" fill="#0f171f"/>
<polygon points="462.0,289.5 473.0,295.0 462.0,300.5 451.0,295.0" fill="#16202c"/>
<polygon points="473.0,295.0 484.0,300.5 484.0,302.5 473.0,297.0" fill="#0c1118"/>
<polygon points="484.0,300.5 495.0,295.0 495.0,297.0 484.0,302.5" fill="#0f171f"/>
<polygon points="484.0,289.5 495.0,295.0 484.0,300.5 473.0,295.0" fill="#16202c"/>
<polygon points="495.0,288.8 506.0,294.3 506.0,302.5 495.0,297.0" fill="#2f5b6a"/>
<polygon points="506.0,294.3 517.0,288.8 517.0,297.0 506.0,302.5" fill="#3d778b"/>
<polygon points="506.0,283.3 517.0,288.8 506.0,294.3 495.0,288.8" fill="#56a6c2"/>
<polygon points="517.0,291.8 528.0,297.3 528.0,302.5 517.0,297.0" fill="#122631"/>
<polygon points="528.0,297.3 539.0,291.8 539.0,297.0 528.0,302.5" fill="#173240"/>
<polygon points="528.0,286.3 539.0,291.8 528.0,297.3 517.0,291.8" fill="#21465a"/>
<polygon points="539.0,291.2 550.0,296.7 550.0,302.5 539.0,297.0" fill="#122631"/>
<polygon points="550.0,296.7 561.0,291.2 561.0,297.0 550.0,302.5" fill="#173240"/>
<polygon points="550.0,285.7 561.0,291.2 550.0,296.7 539.0,291.2" fill="#21465a"/>
<polygon points="462.0,300.5 473.0,306.0 473.0,308.0 462.0,302.5" fill="#0c1118"/>
<polygon points="473.0,306.0 484.0,300.5 484.0,302.5 473.0,308.0" fill="#0f171f"/>
<polygon points="473.0,295.0 484.0,300.5 473.0,306.0 462.0,300.5" fill="#16202c"/>
<polygon points="484.0,290.2 495.0,295.7 495.0,308.0 484.0,302.5" fill="#5b818c"/>
<polygon points="495.0,295.7 506.0,290.2 506.0,302.5 495.0,308.0" fill="#77a9b7"/>
<polygon points="495.0,284.7 506.0,290.2 495.0,295.7 484.0,290.2" fill="#a6ecff"/>
<polygon points="506.0,291.5 517.0,297.0 517.0,308.0 506.0,302.5" fill="#5b818c"/>
<polygon points="517.0,297.0 528.0,291.5 528.0,302.5 517.0,308.0" fill="#77a9b7"/>
<polygon points="517.0,286.0 528.0,291.5 517.0,297.0 506.0,291.5" fill="#a6ecff"/>
<polygon points="473.0,306.0 484.0,311.5 484.0,313.5 473.0,308.0" fill="#0c1118"/>
<polygon points="484.0,311.5 495.0,306.0 495.0,308.0 484.0,313.5" fill="#0f171f"/>
<polygon points="484.0,300.5 495.0,306.0 484.0,311.5 473.0,306.0" fill="#16202c"/>
<polygon points="495.0,302.9 506.0,308.4 506.0,313.5 495.0,308.0" fill="#122631"/>
<polygon points="506.0,308.4 517.0,302.9 517.0,308.0 506.0,313.5" fill="#173240"/>
<polygon points="506.0,297.4 517.0,302.9 506.0,308.4 495.0,302.9" fill="#21465a"/>
<polygon points="484.0,311.5 495.0,317.0 495.0,319.0 484.0,313.5" fill="#0c1118"/>
<polygon points="495.0,317.0 506.0,311.5 506.0,313.5 495.0,319.0" fill="#0f171f"/>
<polygon points="495.0,306.0 506.0,311.5 495.0,317.0 484.0,311.5" fill="#16202c"/>
  </g>
</svg>