<svg xmlns="http://www.w3.org/2000/svg" viewBox="0 0 1200 300" width="1200" height="300">
<rect width="1200" height="300" fill="#0a0a0a"/>
<g stroke="#565b64" stroke-width="2"><line x1="16" y1="16" x2="42" y2="16"/><line x1="16" y1="16" x2="16" y2="42"/><line x1="1184" y1="16" x2="1158" y2="16"/><line x1="1184" y1="16" x2="1184" y2="42"/><line x1="16" y1="284" x2="42" y2="284"/><line x1="16" y1="284" x2="16" y2="258"/><line x1="1184" y1="284" x2="1158" y2="284"/><line x1="1184" y1="284" x2="1184" y2="258"/></g>
<path d="M50 350V250H100V350ZM100 250V200H250V250ZM250 50H100V0H250ZM100 50V100H50V50ZM250 200V50H300V200ZM100 400V350H250V400ZM250 350V300H300V350Z" fill="#7d828c" fill-opacity="1" transform="translate(64.00 74.00) scale(0.02364 -0.02364)"/><path d="M50 350V50H100V350ZM100 50V0H250V50ZM250 350V50H300V350ZM100 400V350H250V400Z" fill="#7d828c" fill-opacity="1" transform="translate(75.27 74.00) scale(0.02364 -0.02364)"/><path d="M50 400V0H100V200H250V250H100V350H300V400Z" fill="#7d828c" fill-opacity="1" transform="translate(86.55 74.00) scale(0.02364 -0.02364)"/><path d="M50 400V350H150V0H200V350H300V400Z" fill="#7d828c" fill-opacity="1" transform="translate(97.82 74.00) scale(0.02364 -0.02364)"/><path d="M50 400V150H100V400ZM100 150V0H150V150ZM250 400V150H300V400ZM200 150V0H250V150ZM150 250V150H200V250Z" fill="#7d828c" fill-opacity="1" transform="translate(109.09 74.00) scale(0.02364 -0.02364)"/><path d="M50 300V0H100V150H250V0H300V300H250V200H100V300ZM150 400V350H200V400ZM100 350V300H150V350ZM200 350V300H250V350Z" fill="#7d828c" fill-opacity="1" transform="translate(120.36 74.00) scale(0.02364 -0.02364)"/><path d="M50 400V0H100V150H200V100H250V200H100V350H250V400ZM250 350V200H300V350ZM250 100V0H300V100Z" fill="#7d828c" fill-opacity="1" transform="translate(131.64 74.00) scale(0.02364 -0.02364)"/><path d="M50 400V0H300V50H100V200H250V250H100V350H300V400Z" fill="#7d828c" fill-opacity="1" transform="translate(142.91 74.00) scale(0.02364 -0.02364)"/><path d="M50 400V0H250V50H100V350H250V400ZM250 350V50H300V350Z" fill="#7d828c" fill-opacity="1" transform="translate(165.45 74.00) scale(0.02364 -0.02364)"/><path d="M50 400V0H300V50H100V200H250V250H100V350H300V400Z" fill="#7d828c" fill-opacity="1" transform="translate(176.73 74.00) scale(0.02364 -0.02364)"/><path d="M150 50V150H100V50ZM150 50V0H200V50ZM50 400V150H100V400ZM250 400V150H300V400ZM200 150V50H250V150Z" fill="#7d828c" fill-opacity="1" transform="translate(188.00 74.00) scale(0.02364 -0.02364)"/><path d="M50 400V0H300V50H100V200H250V250H100V350H300V400Z" fill="#7d828c" fill-opacity="1" transform="translate(199.27 74.00) scale(0.02364 -0.02364)"/><path d="M50 400V0H300V50H100V400Z" fill="#7d828c" fill-opacity="1" transform="translate(210.55 74.00) scale(0.02364 -0.02364)"/><path d="M50 350V50H100V350ZM100 50V0H250V50ZM250 350V50H300V350ZM100 400V350H250V400Z" fill="#7d828c" fill-opacity="1" transform="translate(221.82 74.00) scale(0.02364 -0.02364)"/><path d="M50 400V0H100V150H250V200H100V350H250V400ZM250 350V200H300V350Z" fill="#7d828c" fill-opacity="1" transform="translate(233.09 74.00) scale(0.02364 -0.02364)"/><path d="M50 400V0H300V50H100V200H250V250H100V350H300V400Z" fill="#7d828c" fill-opacity="1" transform="translate(244.36 74.00) scale(0.02364 -0.02364)"/><path d="M50 400V0H100V150H200V100H250V200H100V350H250V400ZM250 350V200H300V350ZM250 100V0H300V100Z" fill="#7d828c" fill-opacity="1" transform="translate(255.64 74.00) scale(0.02364 -0.02364)"/>
<path d="M50 400V0H250V50H100V200H250V250H100V350H250V400ZM250 200V50H300V200ZM250 350V250H300V350Z" fill="#7d828c" fill-opacity="1" transform="translate(942.82 74.00) scale(0.02364 -0.02364)"/><path d="M50 400V50H100V400ZM100 50V0H250V50ZM250 400V50H300V400Z" fill="#7d828c" fill-opacity="1" transform="translate(953.09 74.00) scale(0.02364 -0.02364)"/><path d="M50 400V0H300V50H100V200H250V250H100V350H300V400Z" fill="#7d828c" fill-opacity="1" transform="translate(963.36 74.00) scale(0.02364 -0.02364)"/><path d="M50 400V0H100V250H150V300H100V400ZM250 150V0H300V400H250V200H200V150ZM200 200V250H150V200Z" fill="#7d828c" fill-opacity="1" transform="translate(973.64 74.00) scale(0.02364 -0.02364)"/><path d="M50 350V50H100V350ZM100 50V0H250V50ZM250 350V50H300V350ZM100 400V350H250V400Z" fill="#7d828c" fill-opacity="1" transform="translate(983.91 74.00) scale(0.02364 -0.02364)"/><path d="M50 350V250H100V350ZM100 250V200H250V250ZM250 50H100V0H250ZM100 50V100H50V50ZM250 200V50H300V200ZM100 400V350H250V400ZM250 350V300H300V350Z" fill="#7d828c" fill-opacity="1" transform="translate(994.18 74.00) scale(0.02364 -0.02364)"/><path d="M50 300V0H100V150H250V0H300V300H250V200H100V300ZM150 400V350H200V400ZM100 350V300H150V350ZM200 350V300H250V350Z" fill="#7d828c" fill-opacity="1" transform="translate(1014.73 74.00) scale(0.02364 -0.02364)"/><path d="M150 50H50V0H300V50H200V350H300V400H50V350H150Z" fill="#7d828c" fill-opacity="1" transform="translate(1025.00 74.00) scale(0.02364 -0.02364)"/><path d="M50 400V0H100V150H200V100H250V200H100V350H250V400ZM250 350V200H300V350ZM250 100V0H300V100Z" fill="#7d828c" fill-opacity="1" transform="translate(1035.27 74.00) scale(0.02364 -0.02364)"/><path d="M50 400V0H300V50H100V200H250V250H100V350H300V400Z" fill="#7d828c" fill-opacity="1" transform="translate(1045.55 74.00) scale(0.02364 -0.02364)"/><path d="M50 350V250H100V350ZM100 250V200H250V250ZM250 50H100V0H250ZM100 50V100H50V50ZM250 200V50H300V200ZM100 400V350H250V400ZM250 350V300H300V350Z" fill="#7d828c" fill-opacity="1" transform="translate(1055.82 74.00) scale(0.02364 -0.02364)"/><path d="M350 200H0V150H350Z" fill="#7d828c" fill-opacity="1" transform="translate(1076.36 74.00) scale(0.02364 -0.02364)"/><path d="M50 100V0H300V50H100V100ZM250 350V400H100V350ZM250 350V250H300V350ZM100 150V100H150V150ZM50 350V300H100V350ZM200 250V200H250V250ZM150 200V150H200V200Z" fill="#7d828c" fill-opacity="1" transform="translate(1096.91 74.00) scale(0.02364 -0.02364)"/><path d="M50 350V50H100V150H150V200H100V350ZM100 50V0H250V50ZM100 400V350H250V400ZM250 350V300H200V250H250V50H300V350ZM150 250V200H200V250Z" fill="#7d828c" fill-opacity="1" transform="translate(1107.18 74.00) scale(0.02364 -0.02364)"/><path d="M50 100V0H300V50H100V100ZM250 350V400H100V350ZM250 350V250H300V350ZM100 150V100H150V150ZM50 350V300H100V350ZM200 250V200H250V250ZM150 200V150H200V200Z" fill="#7d828c" fill-opacity="1" transform="translate(1117.45 74.00) scale(0.02364 -0.02364)"/><path d="M100 400V350H250V400ZM50 350V50H100V200H250V250H100V350ZM250 200V50H300V200ZM100 50V0H250V50ZM250 350V300H300V350Z" fill="#7d828c" fill-opacity="1" transform="translate(1127.73 74.00) scale(0.02364 -0.02364)"/>
<path d="M50 400V0H100V250H150V300H100V400ZM250 150V0H300V400H250V200H200V150ZM200 200V250H150V200Z" fill="#ededed" fill-opacity="1" transform="translate(60.00 182.00) scale(0.11273 -0.11273)"/><path d="M150 50H50V0H300V50H200V350H300V400H50V350H150Z" fill="#ededed" fill-opacity="1" transform="translate(101.45 182.00) scale(0.11273 -0.11273)"/><path d="M50 350V50H100V350ZM100 50V0H250V50ZM250 100V50H300V100ZM100 400V350H250V400ZM250 350V300H300V350Z" fill="#ededed" fill-opacity="1" transform="translate(142.91 182.00) scale(0.11273 -0.11273)"/><path d="M50 350V50H100V350ZM100 50V0H250V50ZM250 350V50H300V350ZM100 400V350H250V400Z" fill="#ededed" fill-opacity="1" transform="translate(184.36 182.00) scale(0.11273 -0.11273)"/><path d="M50 400V0H300V50H100V400Z" fill="#ededed" fill-opacity="1" transform="translate(225.82 182.00) scale(0.11273 -0.11273)"/><path d="M50 300V0H100V150H250V0H300V300H250V200H100V300ZM150 400V350H200V400ZM100 350V300H150V350ZM200 350V300H250V350Z" fill="#ededed" fill-opacity="1" transform="translate(267.27 182.00) scale(0.11273 -0.11273)"/><path d="M50 350V250H100V350ZM100 250V200H250V250ZM250 50H100V0H250ZM100 50V100H50V50ZM250 200V50H300V200ZM100 400V350H250V400ZM250 350V300H300V350Z" fill="#ededed" fill-opacity="1" transform="translate(308.73 182.00) scale(0.11273 -0.11273)"/><path d="M50 350V250H100V350ZM100 250V200H250V250ZM250 50H100V0H250ZM100 50V100H50V50ZM250 200V50H300V200ZM100 400V350H250V400ZM250 350V300H300V350Z" fill="#ededed" fill-opacity="1" transform="translate(391.64 182.00) scale(0.11273 -0.11273)"/><path d="M50 400V350H150V0H200V350H300V400Z" fill="#ededed" fill-opacity="1" transform="translate(433.09 182.00) scale(0.11273 -0.11273)"/><path d="M50 400V0H300V50H100V200H250V250H100V350H300V400Z" fill="#ededed" fill-opacity="1" transform="translate(474.55 182.00) scale(0.11273 -0.11273)"/><path d="M50 400V0H100V200H250V250H100V350H300V400Z" fill="#ededed" fill-opacity="1" transform="translate(516.00 182.00) scale(0.11273 -0.11273)"/><path d="M50 350V50H100V350ZM100 50V0H250V50ZM250 350V50H300V350ZM100 400V350H250V400Z" fill="#ededed" fill-opacity="1" transform="translate(557.45 182.00) scale(0.11273 -0.11273)"/><path d="M50 400V0H100V250H150V300H100V400ZM250 150V0H300V400H250V200H200V150ZM200 200V250H150V200Z" fill="#ededed" fill-opacity="1" transform="translate(598.91 182.00) scale(0.11273 -0.11273)"/><path d="M150 50H50V0H300V50H200V350H300V400H50V350H150Z" fill="#ededed" fill-opacity="1" transform="translate(640.36 182.00) scale(0.11273 -0.11273)"/>
<path d="M50 400V0H100V250H150V300H100V400ZM250 250V0H300V400H250V300H200V250ZM150 250V150H200V250Z" fill="#ededed" fill-opacity="0.85" transform="translate(64.00 250.00) scale(0.02364 -0.02364)"/><path d="M50 350V50H100V350ZM100 50V0H250V50ZM250 350V50H300V350ZM100 400V350H250V400Z" fill="#ededed" fill-opacity="0.85" transform="translate(74.27 250.00) scale(0.02364 -0.02364)"/><path d="M50 400V0H250V50H100V200H250V250H100V350H250V400ZM250 200V50H300V200ZM250 350V250H300V350Z" fill="#ededed" fill-opacity="0.85" transform="translate(84.55 250.00) scale(0.02364 -0.02364)"/><path d="M150 50H50V0H300V50H200V350H300V400H50V350H150Z" fill="#ededed" fill-opacity="0.85" transform="translate(94.82 250.00) scale(0.02364 -0.02364)"/><path d="M50 400V0H300V50H100V400Z" fill="#ededed" fill-opacity="0.85" transform="translate(105.09 250.00) scale(0.02364 -0.02364)"/><path d="M50 400V0H300V50H100V200H250V250H100V350H300V400Z" fill="#ededed" fill-opacity="0.85" transform="translate(115.36 250.00) scale(0.02364 -0.02364)"/><path d="M150 250V150H200V250Z" fill="#ededed" fill-opacity="0.85" transform="translate(135.91 250.00) scale(0.02364 -0.02364)"/><path d="M50 400V150H100V400ZM100 150V0H150V150ZM250 400V150H300V400ZM200 150V0H250V150ZM150 250V150H200V250Z" fill="#ededed" fill-opacity="0.85" transform="translate(156.45 250.00) scale(0.02364 -0.02364)"/><path d="M50 400V0H300V50H100V200H250V250H100V350H300V400Z" fill="#ededed" fill-opacity="0.85" transform="translate(166.73 250.00) scale(0.02364 -0.02364)"/><path d="M50 400V0H250V50H100V200H250V250H100V350H250V400ZM250 200V50H300V200ZM250 350V250H300V350Z" fill="#ededed" fill-opacity="0.85" transform="translate(177.00 250.00) scale(0.02364 -0.02364)"/><path d="M150 250V150H200V250Z" fill="#ededed" fill-opacity="0.85" transform="translate(197.55 250.00) scale(0.02364 -0.02364)"/><path d="M50 400V0H300V50H100V200H250V250H100V350H300V400Z" fill="#ededed" fill-opacity="0.85" transform="translate(218.09 250.00) scale(0.02364 -0.02364)"/><path d="M50 400V0H100V250H150V300H100V400ZM250 150V0H300V400H250V200H200V150ZM200 200V250H150V200Z" fill="#ededed" fill-opacity="0.85" transform="translate(228.36 250.00) scale(0.02364 -0.02364)"/><path d="M50 400V0H250V50H100V350H250V400ZM250 350V50H300V350Z" fill="#ededed" fill-opacity="0.85" transform="translate(238.64 250.00) scale(0.02364 -0.02364)"/><path d="M350 200H0V150H350Z" fill="#ededed" fill-opacity="0.85" transform="translate(248.91 250.00) scale(0.02364 -0.02364)"/><path d="M50 400V350H150V0H200V350H300V400Z" fill="#ededed" fill-opacity="0.85" transform="translate(259.18 250.00) scale(0.02364 -0.02364)"/><path d="M50 350V50H100V350ZM100 50V0H250V50ZM250 350V50H300V350ZM100 400V350H250V400Z" fill="#ededed" fill-opacity="0.85" transform="translate(269.45 250.00) scale(0.02364 -0.02364)"/><path d="M350 200H0V150H350Z" fill="#ededed" fill-opacity="0.85" transform="translate(279.73 250.00) scale(0.02364 -0.02364)"/><path d="M50 400V0H300V50H100V200H250V250H100V350H300V400Z" fill="#ededed" fill-opacity="0.85" transform="translate(290.00 250.00) scale(0.02364 -0.02364)"/><path d="M50 400V0H100V250H150V300H100V400ZM250 150V0H300V400H250V200H200V150ZM200 200V250H150V200Z" fill="#ededed" fill-opacity="0.85" transform="translate(300.27 250.00) scale(0.02364 -0.02364)"/><path d="M50 400V0H250V50H100V350H250V400ZM250 350V50H300V350Z" fill="#ededed" fill-opacity="0.85" transform="translate(310.55 250.00) scale(0.02364 -0.02364)"/>
<path d="M50 400V0H100V250H150V300H100V400ZM250 250V0H300V400H250V300H200V250ZM150 250V150H200V250Z" fill="#7d828c" fill-opacity="1" transform="translate(932.55 250.00) scale(0.02364 -0.02364)"/><path d="M50 350V50H100V350ZM100 50V0H250V50ZM250 350V50H300V350ZM100 400V350H250V400Z" fill="#7d828c" fill-opacity="1" transform="translate(942.82 250.00) scale(0.02364 -0.02364)"/><path d="M50 400V50H100V400ZM100 50V0H250V50ZM250 400V50H300V400Z" fill="#7d828c" fill-opacity="1" transform="translate(953.09 250.00) scale(0.02364 -0.02364)"/><path d="M50 400V0H100V250H150V300H100V400ZM250 150V0H300V400H250V200H200V150ZM200 200V250H150V200Z" fill="#7d828c" fill-opacity="1" transform="translate(963.36 250.00) scale(0.02364 -0.02364)"/><path d="M50 400V350H150V0H200V350H300V400Z" fill="#7d828c" fill-opacity="1" transform="translate(973.64 250.00) scale(0.02364 -0.02364)"/><path d="M50 300V0H100V150H250V0H300V300H250V200H100V300ZM150 400V350H200V400ZM100 350V300H150V350ZM200 350V300H250V350Z" fill="#7d828c" fill-opacity="1" transform="translate(983.91 250.00) scale(0.02364 -0.02364)"/><path d="M150 50H50V0H300V50H200V350H300V400H50V350H150Z" fill="#7d828c" fill-opacity="1" transform="translate(994.18 250.00) scale(0.02364 -0.02364)"/><path d="M50 400V0H100V250H150V300H100V400ZM250 150V0H300V400H250V200H200V150ZM200 200V250H150V200Z" fill="#7d828c" fill-opacity="1" transform="translate(1004.45 250.00) scale(0.02364 -0.02364)"/><path d="M50 350V250H100V350ZM100 250V200H250V250ZM250 50H100V0H250ZM100 50V100H50V50ZM250 200V50H300V200ZM100 400V350H250V400ZM250 350V300H300V350Z" fill="#7d828c" fill-opacity="1" transform="translate(1014.73 250.00) scale(0.02364 -0.02364)"/><path d="M150 50H50V0H300V50H200V350H300V400H50V350H150Z" fill="#7d828c" fill-opacity="1" transform="translate(1035.27 250.00) scale(0.02364 -0.02364)"/><path d="M50 400V0H100V250H150V300H100V400ZM250 150V0H300V400H250V200H200V150ZM200 200V250H150V200Z" fill="#7d828c" fill-opacity="1" transform="translate(1045.55 250.00) scale(0.02364 -0.02364)"/><path d="M50 400V0H250V50H100V200H250V250H100V350H250V400ZM250 200V50H300V200ZM250 350V250H300V350Z" fill="#7d828c" fill-opacity="1" transform="translate(1066.09 250.00) scale(0.02364 -0.02364)"/><path d="M50 400V0H300V50H100V200H250V250H100V350H300V400Z" fill="#7d828c" fill-opacity="1" transform="translate(1076.36 250.00) scale(0.02364 -0.02364)"/><path d="M50 400V350H150V0H200V350H300V400Z" fill="#7d828c" fill-opacity="1" transform="translate(1086.64 250.00) scale(0.02364 -0.02364)"/><path d="M50 400V150H100V400ZM100 150V0H150V150ZM250 400V150H300V400ZM200 150V0H250V150ZM150 250V150H200V250Z" fill="#7d828c" fill-opacity="1" transform="translate(1096.91 250.00) scale(0.02364 -0.02364)"/><path d="M50 400V0H300V50H100V200H250V250H100V350H300V400Z" fill="#7d828c" fill-opacity="1" transform="translate(1107.18 250.00) scale(0.02364 -0.02364)"/><path d="M50 400V0H300V50H100V200H250V250H100V350H300V400Z" fill="#7d828c" fill-opacity="1" transform="translate(1117.45 250.00) scale(0.02364 -0.02364)"/><path d="M50 400V0H100V250H150V300H100V400ZM250 150V0H300V400H250V200H200V150ZM200 200V250H150V200Z" fill="#7d828c" fill-opacity="1" transform="translate(1127.73 250.00) scale(0.02364 -0.02364)"/>
<rect x="556" y="150" width="26" height="32" fill="#ededed"><animate attributeName="opacity" values="1;1;0;0" dur="1.1s" repeatCount="indefinite"/></rect>
<line x1="62" y1="220" x2="1138" y2="220" stroke="#2f343b" stroke-width="1.5"/>
</svg>