<svg xmlns="http://www.w3.org/2000/svg" viewBox="0 0 1200 360" width="1200" height="360" font-family="'Trebuchet MS','Segoe UI',Verdana,sans-serif">
  <defs>
    <linearGradient id="sky" x1="0" y1="0" x2="0" y2="1">
      <stop offset="0%" stop-color="#150a30"/>
      <stop offset="45%" stop-color="#2a1b4d"/>
      <stop offset="78%" stop-color="#3b2a5e"/>
      <stop offset="100%" stop-color="#5a3a63"/>
    </linearGradient>
    <radialGradient id="moon" cx="50%" cy="50%" r="50%">
      <stop offset="0%" stop-color="#fdf3ff" stop-opacity="0.95"/>
      <stop offset="35%" stop-color="#e9d8ff" stop-opacity="0.5"/>
      <stop offset="100%" stop-color="#e9d8ff" stop-opacity="0"/>
    </radialGradient>
    <linearGradient id="title" x1="0" y1="0" x2="0" y2="1">
      <stop offset="0%" stop-color="#f4fbff"/>
      <stop offset="100%" stop-color="#a6e3ff"/>
    </linearGradient>
    <radialGradient id="vig" cx="50%" cy="45%" r="75%">
      <stop offset="62%" stop-color="#000" stop-opacity="0"/>
      <stop offset="100%" stop-color="#000" stop-opacity="0.5"/>
    </radialGradient>
    <filter id="glow" x="-50%" y="-50%" width="200%" height="200%"><feGaussianBlur stdDeviation="2.5" result="b"/><feMerge><feMergeNode in="b"/><feMergeNode in="SourceGraphic"/></feMerge></filter>
  </defs>

  <rect width="1200" height="360" fill="url(#sky)"/>
  <circle cx="930" cy="92" r="120" fill="url(#moon)"/>
  <circle cx="930" cy="92" r="26" fill="#fbf2ff"/>

  <g><rect x="658" y="55" width="2" height="2" fill="#e8eaff"><animate attributeName="opacity" values="0.2;1;0.2" dur="3.9s" repeatCount="indefinite"/></rect>
    <rect x="738" y="40" width="2" height="2" fill="#e8eaff"><animate attributeName="opacity" values="0.2;1;0.2" dur="3.0s" repeatCount="indefinite"/></rect>
    <rect x="899" y="105" width="2" height="2" fill="#e8eaff"><animate attributeName="opacity" values="0.2;1;0.2" dur="3.2s" repeatCount="indefinite"/></rect>
    <rect x="563" y="88" width="2" height="2" fill="#e8eaff"><animate attributeName="opacity" values="0.2;1;0.2" dur="2.8s" repeatCount="indefinite"/></rect>
    <rect x="222" y="69" width="2" height="2" fill="#e8eaff"><animate attributeName="opacity" values="0.2;1;0.2" dur="2.7s" repeatCount="indefinite"/></rect>
    <rect x="580" y="38" width="2" height="2" fill="#e8eaff"><animate attributeName="opacity" values="0.2;1;0.2" dur="3.2s" repeatCount="indefinite"/></rect>
    <rect x="266" y="99" width="2" height="2" fill="#e8eaff"><animate attributeName="opacity" values="0.2;1;0.2" dur="3.1s" repeatCount="indefinite"/></rect>
    <rect x="287" y="55" width="2" height="2" fill="#e8eaff"><animate attributeName="opacity" values="0.2;1;0.2" dur="3.3s" repeatCount="indefinite"/></rect>
    <rect x="945" y="20" width="2" height="2" fill="#e8eaff"><animate attributeName="opacity" values="0.2;1;0.2" dur="3.8s" repeatCount="indefinite"/></rect>
    <rect x="570" y="120" width="2" height="2" fill="#e8eaff"><animate attributeName="opacity" values="0.2;1;0.2" dur="3.8s" repeatCount="indefinite"/></rect>
    <rect x="547" y="117" width="2" height="2" fill="#e8eaff"><animate attributeName="opacity" values="0.2;1;0.2" dur="4.0s" repeatCount="indefinite"/></rect>
    <rect x="1001" y="25" width="2" height="2" fill="#e8eaff"><animate attributeName="opacity" values="0.2;1;0.2" dur="3.1s" repeatCount="indefinite"/></rect>
    <rect x="203" y="55" width="2" height="2" fill="#e8eaff"><animate attributeName="opacity" values="0.2;1;0.2" dur="2.7s" repeatCount="indefinite"/></rect>
    <rect x="340" y="99" width="2" height="2" fill="#e8eaff"><animate attributeName="opacity" values="0.2;1;0.2" dur="3.7s" repeatCount="indefinite"/></rect></g>

  <!-- montañas pixel (escalonadas) -->
  <polygon points="0,360 0,250 0,228 22,228 22,206 44,206 44,206 66,206 66,184 88,184 88,206 110,206 110,228 132,228 132,250 154,250 154,250 176,250 176,228 198,228 198,206 220,206 220,228 242,228 242,206 264,206 264,228 286,228 286,250 308,250 308,228 330,228 330,250 352,250 352,250 374,250 374,228 396,228 396,206 418,206 418,206 440,206 440,184 462,184 462,162 484,162 484,150 506,150 506,150 528,150 528,172 550,172 550,150 572,150 572,172 594,172 594,150 616,150 616,150 638,150 638,172 660,172 660,194 682,194 682,172 704,172 704,172 726,172 726,150 748,150 748,150 770,150 770,172 792,172 792,172 814,172 814,150 836,150 836,172 858,172 858,150 880,150 880,150 902,150 902,150 924,150 924,150 946,150 946,150 968,150 968,172 990,172 990,150 1012,150 1012,150 1034,150 1034,150 1056,150 1056,172 1078,172 1078,194 1100,194 1100,172 1122,172 1122,194 1144,194 1144,172 1166,172 1166,194 1188,194 1188,216 1200,216 1200,360"  fill="#3a2c66" opacity="0.85"/>
  <polygon points="0,360 0,290 0,272 18,272 18,254 36,254 36,236 54,236 54,236 72,236 72,218 90,218 90,218 108,218 108,218 126,218 126,200 144,200 144,200 162,200 162,200 180,200 180,218 198,218 198,236 216,236 216,236 234,236 234,254 252,254 252,254 270,254 270,236 288,236 288,218 306,218 306,218 324,218 324,236 342,236 342,236 360,236 360,254 378,254 378,272 396,272 396,254 414,254 414,236 432,236 432,218 450,218 450,200 468,200 468,200 486,200 486,200 504,200 504,200 522,200 522,200 540,200 540,200 558,200 558,200 576,200 576,200 594,200 594,218 612,218 612,236 630,236 630,236 648,236 648,236 666,236 666,236 684,236 684,254 702,254 702,236 720,236 720,254 738,254 738,272 756,272 756,254 774,254 774,272 792,272 792,272 810,272 810,290 828,290 828,290 846,290 846,290 864,290 864,290 882,290 882,290 900,290 900,290 918,290 918,290 936,290 936,272 954,272 954,272 972,272 972,254 990,254 990,254 1008,254 1008,272 1026,272 1026,272 1044,272 1044,272 1062,272 1062,290 1080,290 1080,290 1098,290 1098,272 1116,272 1116,290 1134,290 1134,290 1152,290 1152,272 1170,272 1170,272 1188,272 1188,254 1200,254 1200,360"   fill="#2a1f4d"/>
  <polygon points="0,360 0,330 0,314 16,314 16,298 32,298 32,298 48,298 48,314 64,314 64,298 80,298 80,282 96,282 96,298 112,298 112,298 128,298 128,282 144,282 144,266 160,266 160,282 176,282 176,298 192,298 192,314 208,314 208,298 224,298 224,282 240,282 240,266 256,266 256,282 272,282 272,266 288,266 288,250 304,250 304,250 320,250 320,250 336,250 336,250 352,250 352,250 368,250 368,250 384,250 384,266 400,266 400,282 416,282 416,298 432,298 432,314 448,314 448,330 464,330 464,314 480,314 480,314 496,314 496,298 512,298 512,282 528,282 528,266 544,266 544,282 560,282 560,266 576,266 576,266 592,266 592,282 608,282 608,282 624,282 624,298 640,298 640,314 656,314 656,314 672,314 672,330 688,330 688,314 704,314 704,314 720,314 720,298 736,298 736,298 752,298 752,282 768,282 768,282 784,282 784,266 800,266 800,250 816,250 816,250 832,250 832,250 848,250 848,250 864,250 864,250 880,250 880,266 896,266 896,282 912,282 912,266 928,266 928,266 944,266 944,250 960,250 960,266 976,266 976,250 992,250 992,250 1008,250 1008,250 1024,250 1024,266 1040,266 1040,282 1056,282 1056,266 1072,266 1072,250 1088,250 1088,250 1104,250 1104,266 1120,266 1120,266 1136,266 1136,266 1152,266 1152,250 1168,250 1168,250 1184,250 1184,250 1200,250 1200,360" fill="#171232"/>

  <!-- nieve cuadrada -->
  <g>
    <rect x="593" y="-6" width="2" height="2" fill="#dbeafe" opacity="0.67"><animate attributeName="y" values="-6;366" dur="8.1s" begin="-2.5s" repeatCount="indefinite"/><animate attributeName="x" values="593;606;593;580;593" dur="7.3s" begin="-2.5s" repeatCount="indefinite"/></rect>
    <rect x="266" y="-6" width="2" height="2" fill="#dbeafe" opacity="0.78"><animate attributeName="y" values="-6;366" dur="10.1s" begin="-0.1s" repeatCount="indefinite"/><animate attributeName="x" values="266;274;266;258;266" dur="9.1s" begin="-0.1s" repeatCount="indefinite"/></rect>
    <rect x="216" y="-6" width="2" height="2" fill="#dbeafe" opacity="0.51"><animate attributeName="y" values="-6;366" dur="15.9s" begin="-7.9s" repeatCount="indefinite"/><animate attributeName="x" values="216;234;216;198;216" dur="14.3s" begin="-7.9s" repeatCount="indefinite"/></rect>
    <rect x="883" y="-6" width="3" height="3" fill="#dbeafe" opacity="0.52"><animate attributeName="y" values="-6;366" dur="14.2s" begin="-2.9s" repeatCount="indefinite"/><animate attributeName="x" values="883;896;883;870;883" dur="12.8s" begin="-2.9s" repeatCount="indefinite"/></rect>
    <rect x="352" y="-6" width="4" height="4" fill="#dbeafe" opacity="0.75"><animate attributeName="y" values="-6;366" dur="9.7s" begin="-7.1s" repeatCount="indefinite"/><animate attributeName="x" values="352;365;352;339;352" dur="8.7s" begin="-7.1s" repeatCount="indefinite"/></rect>
    <rect x="1171" y="-6" width="3" height="3" fill="#dbeafe" opacity="0.54"><animate attributeName="y" values="-6;366" dur="13.3s" begin="-4.2s" repeatCount="indefinite"/><animate attributeName="x" values="1171;1186;1171;1156;1171" dur="12.0s" begin="-4.2s" repeatCount="indefinite"/></rect>
    <rect x="363" y="-6" width="3" height="3" fill="#dbeafe" opacity="0.79"><animate attributeName="y" values="-6;366" dur="12.7s" begin="-5.7s" repeatCount="indefinite"/><animate attributeName="x" values="363;373;363;353;363" dur="11.4s" begin="-5.7s" repeatCount="indefinite"/></rect>
    <rect x="365" y="-6" width="4" height="4" fill="#dbeafe" opacity="0.59"><animate attributeName="y" values="-6;366" dur="10.6s" begin="-8.6s" repeatCount="indefinite"/><animate attributeName="x" values="365;374;365;356;365" dur="9.5s" begin="-8.6s" repeatCount="indefinite"/></rect>
    <rect x="168" y="-6" width="2" height="2" fill="#dbeafe" opacity="0.92"><animate attributeName="y" values="-6;366" dur="11.4s" begin="-6.5s" repeatCount="indefinite"/><animate attributeName="x" values="168;180;168;156;168" dur="10.3s" begin="-6.5s" repeatCount="indefinite"/></rect>
    <rect x="677" y="-6" width="2" height="2" fill="#dbeafe" opacity="0.64"><animate attributeName="y" values="-6;366" dur="11.0s" begin="-3.2s" repeatCount="indefinite"/><animate attributeName="x" values="677;697;677;657;677" dur="9.9s" begin="-3.2s" repeatCount="indefinite"/></rect>
    <rect x="931" y="-6" width="4" height="4" fill="#dbeafe" opacity="0.78"><animate attributeName="y" values="-6;366" dur="9.7s" begin="-1.5s" repeatCount="indefinite"/><animate attributeName="x" values="931;940;931;922;931" dur="8.7s" begin="-1.5s" repeatCount="indefinite"/></rect>
    <rect x="1009" y="-6" width="2" height="2" fill="#dbeafe" opacity="0.84"><animate attributeName="y" values="-6;366" dur="10.6s" begin="-1.5s" repeatCount="indefinite"/><animate attributeName="x" values="1009;1018;1009;1000;1009" dur="9.5s" begin="-1.5s" repeatCount="indefinite"/></rect>
    <rect x="784" y="-6" width="2" height="2" fill="#dbeafe" opacity="0.78"><animate attributeName="y" values="-6;366" dur="11.6s" begin="-0.4s" repeatCount="indefinite"/><animate attributeName="x" values="784;798;784;770;784" dur="10.4s" begin="-0.4s" repeatCount="indefinite"/></rect>
    <rect x="47" y="-6" width="2" height="2" fill="#dbeafe" opacity="0.94"><animate attributeName="y" values="-6;366" dur="14.5s" begin="-10.0s" repeatCount="indefinite"/><animate attributeName="x" values="47;67;47;27;47" dur="13.1s" begin="-10.0s" repeatCount="indefinite"/></rect>
    <rect x="116" y="-6" width="4" height="4" fill="#dbeafe" opacity="0.54"><animate attributeName="y" values="-6;366" dur="15.6s" begin="-6.9s" repeatCount="indefinite"/><animate attributeName="x" values="116;124;116;108;116" dur="14.0s" begin="-6.9s" repeatCount="indefinite"/></rect>
    <rect x="772" y="-6" width="3" height="3" fill="#dbeafe" opacity="0.71"><animate attributeName="y" values="-6;366" dur="9.5s" begin="-0.7s" repeatCount="indefinite"/><animate attributeName="x" values="772;783;772;761;772" dur="8.6s" begin="-0.7s" repeatCount="indefinite"/></rect>
    <rect x="940" y="-6" width="3" height="3" fill="#dbeafe" opacity="0.74"><animate attributeName="y" values="-6;366" dur="9.7s" begin="-1.0s" repeatCount="indefinite"/><animate attributeName="x" values="940;950;940;930;940" dur="8.7s" begin="-1.0s" repeatCount="indefinite"/></rect>
    <rect x="1113" y="-6" width="4" height="4" fill="#dbeafe" opacity="0.69"><animate attributeName="y" values="-6;366" dur="14.5s" begin="-3.7s" repeatCount="indefinite"/><animate attributeName="x" values="1113;1121;1113;1105;1113" dur="13.1s" begin="-3.7s" repeatCount="indefinite"/></rect>
    <rect x="910" y="-6" width="3" height="3" fill="#dbeafe" opacity="0.57"><animate attributeName="y" values="-6;366" dur="13.3s" begin="-5.5s" repeatCount="indefinite"/><animate attributeName="x" values="910;927;910;893;910" dur="12.0s" begin="-5.5s" repeatCount="indefinite"/></rect>
    <rect x="845" y="-6" width="2" height="2" fill="#dbeafe" opacity="0.79"><animate attributeName="y" values="-6;366" dur="13.5s" begin="-11.2s" repeatCount="indefinite"/><animate attributeName="x" values="845;856;845;834;845" dur="12.2s" begin="-11.2s" repeatCount="indefinite"/></rect>
    <rect x="1117" y="-6" width="3" height="3" fill="#dbeafe" opacity="0.89"><animate attributeName="y" values="-6;366" dur="11.4s" begin="-3.4s" repeatCount="indefinite"/><animate attributeName="x" values="1117;1134;1117;1100;1117" dur="10.3s" begin="-3.4s" repeatCount="indefinite"/></rect>
    <rect x="1126" y="-6" width="2" height="2" fill="#dbeafe" opacity="0.78"><animate attributeName="y" values="-6;366" dur="14.6s" begin="-1.6s" repeatCount="indefinite"/><animate attributeName="x" values="1126;1139;1126;1113;1126" dur="13.1s" begin="-1.6s" repeatCount="indefinite"/></rect>
    <rect x="1145" y="-6" width="3" height="3" fill="#dbeafe" opacity="0.54"><animate attributeName="y" values="-6;366" dur="10.0s" begin="-9.5s" repeatCount="indefinite"/><animate attributeName="x" values="1145;1161;1145;1129;1145" dur="9.0s" begin="-9.5s" repeatCount="indefinite"/></rect>
    <rect x="1109" y="-6" width="2" height="2" fill="#dbeafe" opacity="0.71"><animate attributeName="y" values="-6;366" dur="9.9s" begin="-5.6s" repeatCount="indefinite"/><animate attributeName="x" values="1109;1124;1109;1094;1109" dur="8.9s" begin="-5.6s" repeatCount="indefinite"/></rect>
    <rect x="557" y="-6" width="2" height="2" fill="#dbeafe" opacity="0.93"><animate attributeName="y" values="-6;366" dur="10.7s" begin="-0.3s" repeatCount="indefinite"/><animate attributeName="x" values="557;576;557;538;557" dur="9.6s" begin="-0.3s" repeatCount="indefinite"/></rect>
    <rect x="822" y="-6" width="2" height="2" fill="#dbeafe" opacity="0.79"><animate attributeName="y" values="-6;366" dur="14.3s" begin="-0.4s" repeatCount="indefinite"/><animate attributeName="x" values="822;841;822;803;822" dur="12.9s" begin="-0.4s" repeatCount="indefinite"/></rect>
    <rect x="865" y="-6" width="2" height="2" fill="#dbeafe" opacity="0.77"><animate attributeName="y" values="-6;366" dur="11.4s" begin="-3.2s" repeatCount="indefinite"/><animate attributeName="x" values="865;881;865;849;865" dur="10.3s" begin="-3.2s" repeatCount="indefinite"/></rect>
    <rect x="1138" y="-6" width="2" height="2" fill="#dbeafe" opacity="0.9"><animate attributeName="y" values="-6;366" dur="12.2s" begin="-3.6s" repeatCount="indefinite"/><animate attributeName="x" values="1138;1147;1138;1129;1138" dur="11.0s" begin="-3.6s" repeatCount="indefinite"/></rect>
    <rect x="463" y="-6" width="2" height="2" fill="#dbeafe" opacity="0.85"><animate attributeName="y" values="-6;366" dur="14.9s" begin="-7.4s" repeatCount="indefinite"/><animate attributeName="x" values="463;481;463;445;463" dur="13.4s" begin="-7.4s" repeatCount="indefinite"/></rect>
    <rect x="935" y="-6" width="4" height="4" fill="#dbeafe" opacity="0.68"><animate attributeName="y" values="-6;366" dur="11.3s" begin="-7.7s" repeatCount="indefinite"/><animate attributeName="x" values="935;955;935;915;935" dur="10.2s" begin="-7.7s" repeatCount="indefinite"/></rect>
  </g>

  <!-- nombre con glitch RGB-split + glow -->
  <g font-size="72" font-weight="700" letter-spacing="3" text-anchor="middle">
    <text x="597" y="170" fill="#ff4d8d" opacity="0.55">Nicolas Stefoni
      <animate attributeName="x" values="597;594;599;597" dur="3.5s" repeatCount="indefinite"/>
    </text>
    <text x="603" y="170" fill="#3fe0ff" opacity="0.55">Nicolas Stefoni
      <animate attributeName="x" values="603;606;601;603" dur="3.5s" repeatCount="indefinite"/>
    </text>
    <text x="600" y="170" fill="url(#title)" filter="url(#glow)">Nicolas Stefoni</text>
  </g>
  <text x="600" y="208" text-anchor="middle" font-size="19" fill="#cdbfe6" letter-spacing="5">software developer&#160;&#160;·&#160;&#160;mobile&#160;·&#160;web&#160;&#160;·&#160;&#160;mountains in between</text>

  <rect width="1200" height="360" fill="url(#vig)"/>
</svg>