<svg xmlns="http://www.w3.org/2000/svg" width="880" height="380" viewBox="0 0 880 380" role="img">
<title>NICOLAS STEFONI — jitterscope</title>
<desc>Live network jitter measured from CI, rendered as the profile hero.</desc>
<rect width="880" height="380" fill="#232e36" rx="6"/>
<g stroke="rgba(237,232,220,0.25)" stroke-width="1">
<path d="M18 32V18h14" fill="none"/>
<path d="M848 18h14v14" fill="none"/>
<path d="M862 348v14h-14" fill="none"/>
<path d="M32 362h-14v-14" fill="none"/>
</g>
<text x="48" y="58" font-family="ui-monospace,'SF Mono','Cascadia Mono','JetBrains Mono','Roboto Mono',Menlo,Consolas,monospace" font-size="11" font-weight="400" letter-spacing="2.5" fill="#93a0a8" text-anchor="start">SOFTWARE DEVELOPER</text>
<text x="832" y="58" font-family="ui-monospace,'SF Mono','Cascadia Mono','JetBrains Mono','Roboto Mono',Menlo,Consolas,monospace" font-size="11" font-weight="400" letter-spacing="2.5" fill="#93a0a8" text-anchor="end">BUENOS AIRES · 34.6°S 58.4°W</text>
<g opacity="0.4"><g fill="#ff4530"><animateTransform attributeName="transform" type="translate" calcMode="discrete" dur="7.3s" repeatCount="indefinite" values="0 0;0 0;0 0;-0.33 -0.67;0 0;0 0;0.37 -0.23;0 0;0 0;-1.17 -0.17;0 0;0 0;0.48 0.43;0 0"/><text x="46" y="128" font-family="ui-monospace,'SF Mono','Cascadia Mono','JetBrains Mono','Roboto Mono',Menlo,Consolas,monospace" font-size="46" font-weight="500" letter-spacing="10">NICOLAS STEFONI</text></g></g>
<g opacity="0.4"><g fill="#5da8a4"><animateTransform attributeName="transform" type="translate" calcMode="discrete" dur="5.9s" repeatCount="indefinite" values="0 0;0 0;0 0;0.16 -0.17;0 0;0 0;-0.05 -0.58;0 0;0 0;-1.06 -0.70;0 0;0 0;-0.38 -0.42;0 0"/><text x="50" y="128" font-family="ui-monospace,'SF Mono','Cascadia Mono','JetBrains Mono','Roboto Mono',Menlo,Consolas,monospace" font-size="46" font-weight="500" letter-spacing="10">NICOLAS STEFONI</text></g></g>
<text x="48" y="128" font-family="ui-monospace,'SF Mono','Cascadia Mono','JetBrains Mono','Roboto Mono',Menlo,Consolas,monospace" font-size="46" font-weight="500" letter-spacing="10" fill="#ede8dc">NICOLAS STEFONI</text>
<line x1="48" y1="152" x2="832" y2="152" stroke="rgba(237,232,220,0.25)" stroke-width="1"/>
<text x="48" y="174" font-family="ui-monospace,'SF Mono','Cascadia Mono','JetBrains Mono','Roboto Mono',Menlo,Consolas,monospace" font-size="11" font-weight="400" letter-spacing="2.5" fill="#93a0a8" text-anchor="start">MOBILE · WEB · END-TO-END</text>
<text x="832" y="174" font-family="ui-monospace,'SF Mono','Cascadia Mono','JetBrains Mono','Roboto Mono',Menlo,Consolas,monospace" font-size="11" font-weight="400" letter-spacing="2.5" fill="#93a0a8" text-anchor="end">MOUNTAINS IN BETWEEN</text>
<line x1="48" y1="282.31114768027203" x2="832" y2="282.31114768027203" stroke="rgba(237,232,220,0.13)" stroke-width="0.5" stroke-dasharray="1 5"/><text x="42" y="285.31114768027203" font-family="ui-monospace,'SF Mono','Cascadia Mono','JetBrains Mono','Roboto Mono',Menlo,Consolas,monospace" font-size="9" font-weight="400" letter-spacing="0.5" fill="rgba(233,231,224,0.34)" text-anchor="end">23</text><line x1="48" y1="265" x2="832" y2="265" stroke="rgba(237,232,220,0.13)" stroke-width="0.5" stroke-dasharray="1 5"/><text x="42" y="268" font-family="ui-monospace,'SF Mono','Cascadia Mono','JetBrains Mono','Roboto Mono',Menlo,Consolas,monospace" font-size="9" font-weight="400" letter-spacing="0.5" fill="rgba(233,231,224,0.34)" text-anchor="end">27</text><line x1="48" y1="247.68885231972797" x2="832" y2="247.68885231972797" stroke="rgba(237,232,220,0.13)" stroke-width="0.5" stroke-dasharray="1 5"/><text x="42" y="250.68885231972797" font-family="ui-monospace,'SF Mono','Cascadia Mono','JetBrains Mono','Roboto Mono',Menlo,Consolas,monospace" font-size="9" font-weight="400" letter-spacing="0.5" fill="rgba(233,231,224,0.34)" text-anchor="end">31</text>
<path d="M48.0 244.8L64.7 244.8L81.4 244.8L98.0 244.8L114.7 244.8L131.4 244.8L148.1 244.8L164.8 244.8L181.4 244.8L198.1 244.8L214.8 244.8L231.5 247.0L248.2 247.0L264.9 230.4L281.5 230.4L298.2 230.4L314.9 230.4L331.6 230.4L348.3 230.4L364.9 230.4L381.6 230.4L398.3 230.4L415.0 230.4L431.7 230.4L448.3 242.6L465.0 242.6L481.7 242.6L498.4 242.6L515.1 262.7L531.7 262.7L548.4 262.7L565.1 262.7L581.8 258.8L598.5 258.8L615.1 257.2L631.8 257.2L648.5 257.2L665.2 257.2L681.9 257.2L698.6 257.2L715.2 257.2L731.9 257.2L748.6 257.2L765.3 257.2L782.0 257.2L798.6 261.9L815.3 261.9L832.0 261.9L832.0 296.4L815.3 296.4L798.6 296.4L782.0 296.4L765.3 296.4L748.6 296.4L731.9 296.4L715.2 296.4L698.6 296.4L681.9 296.4L665.2 292.7L648.5 292.7L631.8 292.7L615.1 289.2L598.5 293.9L581.8 293.9L565.1 293.9L548.4 293.9L531.7 293.9L515.1 293.9L498.4 293.9L481.7 293.9L465.0 293.9L448.3 293.9L431.7 293.9L415.0 292.9L398.3 292.9L381.6 289.9L364.9 290.8L348.3 294.4L331.6 294.4L314.9 299.6L298.2 299.6L281.5 299.6L264.9 299.6L248.2 299.6L231.5 299.6L214.8 299.6L198.1 299.6L181.4 299.6L164.8 299.6L148.1 299.6L131.4 288.2L114.7 279.6L98.0 279.6L81.4 279.6L64.7 279.6L48.0 279.6Z" fill="rgba(232,137,60,0.08)"/>
<path d="M48.0 279.6L64.7 277.8L81.4 267.5L98.0 264.6L114.7 266.8L131.4 244.8L148.1 254.9L164.8 247.0L181.4 260.9L198.1 277.9L214.8 288.2L231.5 299.6L248.2 280.7L264.9 294.4L281.5 290.8L298.2 278.4L314.9 250.0M348.3 230.4L364.9 267.4L381.6 256.4L398.3 271.5L415.0 242.6L431.7 273.2L448.3 289.9L465.0 287.9L481.7 292.9L498.4 292.7L515.1 293.9L531.7 289.2L548.4 282.7L565.1 262.7L581.8 266.0L598.5 274.2L615.1 263.0L631.8 263.1L648.5 264.4L665.2 258.8L681.9 268.0L698.6 257.2L715.2 292.7L731.9 291.3L748.6 270.3L765.3 296.4L782.0 290.2M815.3 261.9L832.0 264.5" fill="none" stroke="#ede8dc" stroke-width="1.1" stroke-linejoin="round"/>
<rect x="330.6" y="324" width="2" height="5" fill="#ff4530" opacity="0.8"/><rect x="797.6" y="324" width="2" height="5" fill="#ff4530" opacity="0.8"/>
<circle cx="832.0" cy="264.5" r="2.4" fill="#e8893c">
<animate attributeName="r" values="2;3.4;2" dur="2.2s" repeatCount="indefinite"/>
<animate attributeName="opacity" values="1;0.45;1" dur="2.2s" repeatCount="indefinite"/>
</circle>
<g><line x1="0" y1="206" x2="0" y2="322" stroke="#e8893c" stroke-width="0.7" opacity="0.45" transform="translate(48 0)">
<animateTransform attributeName="transform" type="translate" from="48 0" to="832 0" dur="11s" repeatCount="indefinite"/>
</line></g>
<text x="48" y="348" font-family="ui-monospace,'SF Mono','Cascadia Mono','JetBrains Mono','Roboto Mono',Menlo,Consolas,monospace" font-size="10" font-weight="400" letter-spacing="2.5" fill="#93a0a8" text-anchor="start">JITTERSCOPE · 48 SAMPLES · GITHUB CI · LAST PROBE 2026-06-10 23:27 UTC</text>
<g><text x="664" y="348" font-family="ui-monospace,'SF Mono','Cascadia Mono','JetBrains Mono','Roboto Mono',Menlo,Consolas,monospace" font-size="10" font-weight="400" letter-spacing="2.5" fill="#93a0a8" text-anchor="start">ENTROPY</text>
<rect x="738" y="340" width="90" height="6" fill="none" stroke="rgba(237,232,220,0.25)" stroke-width="0.6"/>
<rect x="738" y="340" width="18.8" height="6" fill="#e8893c">
<animate attributeName="opacity" values="1;0.55;1" dur="3.1s" repeatCount="indefinite"/>
</rect>
<text x="836" y="348" font-family="ui-monospace,'SF Mono','Cascadia Mono','JetBrains Mono','Roboto Mono',Menlo,Consolas,monospace" font-size="10" font-weight="400" letter-spacing="0.5" fill="#e8893c" text-anchor="end">.21</text></g>
<text x="832" y="320" font-family="ui-monospace,'SF Mono','Cascadia Mono','JetBrains Mono','Roboto Mono',Menlo,Consolas,monospace" font-size="9" font-weight="400" letter-spacing="1.5" fill="rgba(233,231,224,0.34)" text-anchor="end">P50 26MS · JIT 2.6MS</text>
</svg>