<svg xmlns="http://www.w3.org/2000/svg" width="880" height="380" viewBox="0 0 880 380" role="img">
<title>NICOLAS STEFONI — jitterscope</title>
<desc>Live network jitter measured from CI, rendered as the profile hero.</desc>
<rect width="880" height="380" fill="#232e36" rx="6"/>
<g stroke="rgba(237,232,220,0.25)" stroke-width="1">
<path d="M18 32V18h14" fill="none"/>
<path d="M848 18h14v14" fill="none"/>
<path d="M862 348v14h-14" fill="none"/>
<path d="M32 362h-14v-14" fill="none"/>
</g>
<text x="48" y="58" font-family="ui-monospace,'SF Mono','Cascadia Mono','JetBrains Mono','Roboto Mono',Menlo,Consolas,monospace" font-size="11" font-weight="400" letter-spacing="2.5" fill="#93a0a8" text-anchor="start">SOFTWARE DEVELOPER</text>
<text x="832" y="58" font-family="ui-monospace,'SF Mono','Cascadia Mono','JetBrains Mono','Roboto Mono',Menlo,Consolas,monospace" font-size="11" font-weight="400" letter-spacing="2.5" fill="#93a0a8" text-anchor="end">BUENOS AIRES · 34.6°S 58.4°W</text>
<g opacity="0.4"><g fill="#ff4530"><animateTransform attributeName="transform" type="translate" calcMode="discrete" dur="7.3s" repeatCount="indefinite" values="0 0;0 0;0 0;-0.12 0.62;0 0;0 0;-1.14 0.18;0 0;0 0;0.09 -0.03;0 0;0 0;-0.06 -0.49;0 0"/><text x="46" y="128" font-family="ui-monospace,'SF Mono','Cascadia Mono','JetBrains Mono','Roboto Mono',Menlo,Consolas,monospace" font-size="46" font-weight="500" letter-spacing="10">NICOLAS STEFONI</text></g></g>
<g opacity="0.4"><g fill="#5da8a4"><animateTransform attributeName="transform" type="translate" calcMode="discrete" dur="5.9s" repeatCount="indefinite" values="0 0;0 0;0 0;-0.86 -0.07;0 0;0 0;0.17 0.10;0 0;0 0;-0.10 0.23;0 0;0 0;-0.93 0.64;0 0"/><text x="50" y="128" font-family="ui-monospace,'SF Mono','Cascadia Mono','JetBrains Mono','Roboto Mono',Menlo,Consolas,monospace" font-size="46" font-weight="500" letter-spacing="10">NICOLAS STEFONI</text></g></g>
<text x="48" y="128" font-family="ui-monospace,'SF Mono','Cascadia Mono','JetBrains Mono','Roboto Mono',Menlo,Consolas,monospace" font-size="46" font-weight="500" letter-spacing="10" fill="#ede8dc">NICOLAS STEFONI</text>
<line x1="48" y1="152" x2="832" y2="152" stroke="rgba(237,232,220,0.25)" stroke-width="1"/>
<text x="48" y="174" font-family="ui-monospace,'SF Mono','Cascadia Mono','JetBrains Mono','Roboto Mono',Menlo,Consolas,monospace" font-size="11" font-weight="400" letter-spacing="2.5" fill="#93a0a8" text-anchor="start">MOBILE · WEB · END-TO-END</text>
<text x="832" y="174" font-family="ui-monospace,'SF Mono','Cascadia Mono','JetBrains Mono','Roboto Mono',Menlo,Consolas,monospace" font-size="11" font-weight="400" letter-spacing="2.5" fill="#93a0a8" text-anchor="end">MOUNTAINS IN BETWEEN</text>
<line x1="48" y1="286.3709677419355" x2="832" y2="286.3709677419355" stroke="rgba(237,232,220,0.13)" stroke-width="0.5" stroke-dasharray="1 5"/><text x="42" y="289.3709677419355" font-family="ui-monospace,'SF Mono','Cascadia Mono','JetBrains Mono','Roboto Mono',Menlo,Consolas,monospace" font-size="9" font-weight="400" letter-spacing="0.5" fill="rgba(233,231,224,0.34)" text-anchor="end">38</text><line x1="48" y1="265" x2="832" y2="265" stroke="rgba(237,232,220,0.13)" stroke-width="0.5" stroke-dasharray="1 5"/><text x="42" y="268" font-family="ui-monospace,'SF Mono','Cascadia Mono','JetBrains Mono','Roboto Mono',Menlo,Consolas,monospace" font-size="9" font-weight="400" letter-spacing="0.5" fill="rgba(233,231,224,0.34)" text-anchor="end">72</text><line x1="48" y1="243.6290322580645" x2="832" y2="243.6290322580645" stroke="rgba(237,232,220,0.13)" stroke-width="0.5" stroke-dasharray="1 5"/><text x="42" y="246.6290322580645" font-family="ui-monospace,'SF Mono','Cascadia Mono','JetBrains Mono','Roboto Mono',Menlo,Consolas,monospace" font-size="9" font-weight="400" letter-spacing="0.5" fill="rgba(233,231,224,0.34)" text-anchor="end">106</text>
<path d="M48.0 265.2L64.7 265.2L81.4 222.3L98.0 222.3L114.7 222.3L131.4 222.3L148.1 222.3L164.8 222.3L181.4 222.3L198.1 222.3L214.8 222.3L231.5 222.3L248.2 222.3L264.9 275.1L281.5 275.1L298.2 275.1L314.9 275.1L331.6 284.3L348.3 238.9L364.9 238.9L381.6 238.9L398.3 238.9L415.0 238.9L431.7 238.9L448.3 238.9L465.0 238.9L481.7 238.9L498.4 238.9L515.1 238.9L531.7 265.9L548.4 265.9L565.1 265.9L581.8 265.9L598.5 265.9L615.1 259.8L631.8 259.8L648.5 259.8L665.2 259.8L681.9 259.8L698.6 259.8L715.2 259.8L731.9 259.8L748.6 259.8L765.3 259.8L782.0 259.8L798.6 272.9L815.3 272.9L832.0 272.9L832.0 306.1L815.3 306.1L798.6 307.6L782.0 307.6L765.3 307.6L748.6 307.6L731.9 307.6L715.2 307.6L698.6 307.6L681.9 307.6L665.2 307.6L648.5 307.6L631.8 307.6L615.1 307.1L598.5 307.2L581.8 307.2L565.1 307.2L548.4 307.2L531.7 307.7L515.1 307.7L498.4 307.7L481.7 307.7L465.0 307.7L448.3 307.7L431.7 307.7L415.0 307.7L398.3 307.7L381.6 307.7L364.9 307.7L348.3 307.7L331.6 307.7L314.9 307.7L298.2 307.7L281.5 307.4L264.9 307.4L248.2 307.4L231.5 307.4L214.8 307.4L198.1 307.4L181.4 307.4L164.8 307.4L148.1 307.4L131.4 307.4L114.7 307.4L98.0 307.4L81.4 306.5L64.7 306.5L48.0 306.5Z" fill="rgba(232,137,60,0.08)"/>
<path d="M48.0 306.5L64.7 302.6L81.4 306.1L98.0 265.2L114.7 306.3L131.4 302.4L148.1 305.7L164.8 222.3L181.4 307.4L198.1 304.5L214.8 305.4L231.5 275.1L248.2 307.4L264.9 304.6L281.5 306.3L298.2 284.3L314.9 307.2L331.6 305.1L348.3 305.9L364.9 288.1L381.6 307.7L398.3 304.6L415.0 305.0L431.7 238.9L448.3 307.7L465.0 304.6L481.7 304.7L498.4 280.8L515.1 307.2L531.7 302.0L548.4 305.8L565.1 265.9L581.8 307.1L598.5 305.1L615.1 305.3L631.8 277.2L648.5 306.9L665.2 304.5L681.9 305.8L698.6 259.8L715.2 307.6L731.9 303.7L748.6 306.1L765.3 285.1L782.0 305.2L798.6 305.0L815.3 305.6L832.0 272.9" fill="none" stroke="#ede8dc" stroke-width="1.1" stroke-linejoin="round"/>

<circle cx="832.0" cy="272.9" r="2.4" fill="#e8893c">
<animate attributeName="r" values="2;3.4;2" dur="2.2s" repeatCount="indefinite"/>
<animate attributeName="opacity" values="1;0.45;1" dur="2.2s" repeatCount="indefinite"/>
</circle>
<g><line x1="0" y1="206" x2="0" y2="322" stroke="#e8893c" stroke-width="0.7" opacity="0.45" transform="translate(48 0)">
<animateTransform attributeName="transform" type="translate" from="48 0" to="832 0" dur="11s" repeatCount="indefinite"/>
</line></g>
<text x="48" y="348" font-family="ui-monospace,'SF Mono','Cascadia Mono','JetBrains Mono','Roboto Mono',Menlo,Consolas,monospace" font-size="10" font-weight="400" letter-spacing="2.5" fill="#93a0a8" text-anchor="start">JITTERSCOPE · 48 SAMPLES · GITHUB CI · LAST PROBE 2026-06-10 23:30 UTC</text>
<g><text x="664" y="348" font-family="ui-monospace,'SF Mono','Cascadia Mono','JetBrains Mono','Roboto Mono',Menlo,Consolas,monospace" font-size="10" font-weight="400" letter-spacing="2.5" fill="#93a0a8" text-anchor="start">ENTROPY</text>
<rect x="738" y="340" width="90" height="6" fill="none" stroke="rgba(237,232,220,0.25)" stroke-width="0.6"/>
<rect x="738" y="340" width="90.0" height="6" fill="#ff4530">
<animate attributeName="opacity" values="1;0.55;1" dur="3.1s" repeatCount="indefinite"/>
</rect>
<text x="836" y="348" font-family="ui-monospace,'SF Mono','Cascadia Mono','JetBrains Mono','Roboto Mono',Menlo,Consolas,monospace" font-size="10" font-weight="400" letter-spacing="0.5" fill="#ff4530" text-anchor="end">.00</text></g>
<text x="832" y="320" font-family="ui-monospace,'SF Mono','Cascadia Mono','JetBrains Mono','Roboto Mono',Menlo,Consolas,monospace" font-size="9" font-weight="400" letter-spacing="1.5" fill="rgba(233,231,224,0.34)" text-anchor="end">CONTRIB 713 · REPOS 3 · P50 9MS · JIT 27.2MS</text>
</svg>