<svg xmlns="http://www.w3.org/2000/svg" width="880" height="380" viewBox="0 0 880 380" role="img">
<title>NICOLAS STEFONI — jitterscope</title>
<desc>Live network jitter measured from CI, rendered as the profile hero.</desc>
<rect width="880" height="380" fill="#232e36" rx="6"/>
<g stroke="rgba(237,232,220,0.25)" stroke-width="1">
<path d="M18 32V18h14" fill="none"/>
<path d="M848 18h14v14" fill="none"/>
<path d="M862 348v14h-14" fill="none"/>
<path d="M32 362h-14v-14" fill="none"/>
</g>
<text x="48" y="58" font-family="ui-monospace,'SF Mono','Cascadia Mono','JetBrains Mono','Roboto Mono',Menlo,Consolas,monospace" font-size="11" font-weight="400" letter-spacing="2.5" fill="#93a0a8" text-anchor="start">SOFTWARE DEVELOPER</text>
<text x="832" y="58" font-family="ui-monospace,'SF Mono','Cascadia Mono','JetBrains Mono','Roboto Mono',Menlo,Consolas,monospace" font-size="11" font-weight="400" letter-spacing="2.5" fill="#93a0a8" text-anchor="end">BUENOS AIRES · 34.6°S 58.4°W</text>
<g opacity="0.4"><g fill="#ff4530"><animateTransform attributeName="transform" type="translate" calcMode="discrete" dur="7.3s" repeatCount="indefinite" values="0 0;0 0;0 0;0.49 0.59;0 0;0 0;-0.58 0.54;0 0;0 0;0.04 0.07;0 0;0 0;-0.48 -0.21;0 0"/><text x="46" y="128" font-family="ui-monospace,'SF Mono','Cascadia Mono','JetBrains Mono','Roboto Mono',Menlo,Consolas,monospace" font-size="46" font-weight="500" letter-spacing="10">NICOLAS STEFONI</text></g></g>
<g opacity="0.4"><g fill="#5da8a4"><animateTransform attributeName="transform" type="translate" calcMode="discrete" dur="5.9s" repeatCount="indefinite" values="0 0;0 0;0 0;-0.41 0.64;0 0;0 0;-0.03 0.43;0 0;0 0;1.27 0.35;0 0;0 0;-0.51 0.61;0 0"/><text x="50" y="128" font-family="ui-monospace,'SF Mono','Cascadia Mono','JetBrains Mono','Roboto Mono',Menlo,Consolas,monospace" font-size="46" font-weight="500" letter-spacing="10">NICOLAS STEFONI</text></g></g>
<text x="48" y="128" font-family="ui-monospace,'SF Mono','Cascadia Mono','JetBrains Mono','Roboto Mono',Menlo,Consolas,monospace" font-size="46" font-weight="500" letter-spacing="10" fill="#ede8dc">NICOLAS STEFONI</text>
<line x1="48" y1="152" x2="832" y2="152" stroke="rgba(237,232,220,0.25)" stroke-width="1"/>
<text x="48" y="174" font-family="ui-monospace,'SF Mono','Cascadia Mono','JetBrains Mono','Roboto Mono',Menlo,Consolas,monospace" font-size="11" font-weight="400" letter-spacing="2.5" fill="#93a0a8" text-anchor="start">MOBILE · WEB · END-TO-END</text>
<text x="832" y="174" font-family="ui-monospace,'SF Mono','Cascadia Mono','JetBrains Mono','Roboto Mono',Menlo,Consolas,monospace" font-size="11" font-weight="400" letter-spacing="2.5" fill="#93a0a8" text-anchor="end">MOUNTAINS IN BETWEEN</text>
<line x1="48" y1="286.3709677419355" x2="832" y2="286.3709677419355" stroke="rgba(237,232,220,0.13)" stroke-width="0.5" stroke-dasharray="1 5"/><text x="42" y="289.3709677419355" font-family="ui-monospace,'SF Mono','Cascadia Mono','JetBrains Mono','Roboto Mono',Menlo,Consolas,monospace" font-size="9" font-weight="400" letter-spacing="0.5" fill="rgba(233,231,224,0.34)" text-anchor="end">46</text><line x1="48" y1="265" x2="832" y2="265" stroke="rgba(237,232,220,0.13)" stroke-width="0.5" stroke-dasharray="1 5"/><text x="42" y="268" font-family="ui-monospace,'SF Mono','Cascadia Mono','JetBrains Mono','Roboto Mono',Menlo,Consolas,monospace" font-size="9" font-weight="400" letter-spacing="0.5" fill="rgba(233,231,224,0.34)" text-anchor="end">88</text><line x1="48" y1="243.6290322580645" x2="832" y2="243.6290322580645" stroke="rgba(237,232,220,0.13)" stroke-width="0.5" stroke-dasharray="1 5"/><text x="42" y="246.6290322580645" font-family="ui-monospace,'SF Mono','Cascadia Mono','JetBrains Mono','Roboto Mono',Menlo,Consolas,monospace" font-size="9" font-weight="400" letter-spacing="0.5" fill="rgba(233,231,224,0.34)" text-anchor="end">131</text>
<path d="M48.0 289.1L64.7 289.1L81.4 285.7L98.0 285.7L114.7 285.7L131.4 285.7L148.1 285.7L164.8 285.7L181.4 285.7L198.1 285.7L214.8 277.5L231.5 277.5L248.2 277.5L264.9 277.5L281.5 277.5L298.2 277.5L314.9 277.5L331.6 277.5L348.3 277.5L364.9 277.5L381.6 277.5L398.3 285.2L415.0 278.1L431.7 278.1L448.3 278.1L465.0 278.1L481.7 278.1L498.4 278.1L515.1 278.1L531.7 278.1L548.4 278.1L565.1 278.1L581.8 278.1L598.5 284.8L615.1 265.1L631.8 265.1L648.5 265.1L665.2 265.1L681.9 265.1L698.6 265.1L715.2 265.1L731.9 265.1L748.6 222.3L765.3 222.3L782.0 222.3L798.6 222.3L815.3 222.3L832.0 222.3L832.0 307.6L815.3 307.6L798.6 307.6L782.0 307.6L765.3 307.6L748.6 307.6L731.9 307.7L715.2 307.7L698.6 307.7L681.9 307.7L665.2 307.7L648.5 307.7L631.8 307.7L615.1 307.7L598.5 307.7L581.8 307.7L565.1 307.7L548.4 307.5L531.7 307.7L515.1 307.7L498.4 307.7L481.7 307.7L465.0 307.7L448.3 307.7L431.7 307.7L415.0 307.7L398.3 307.7L381.6 307.7L364.9 307.7L348.3 307.7L331.6 307.7L314.9 307.7L298.2 307.7L281.5 307.6L264.9 307.6L248.2 307.6L231.5 307.6L214.8 307.4L198.1 307.4L181.4 307.4L164.8 307.4L148.1 307.4L131.4 307.4L114.7 307.4L98.0 307.4L81.4 307.2L64.7 307.2L48.0 307.2Z" fill="rgba(232,137,60,0.08)"/>
<path d="M48.0 307.2L64.7 304.5L81.4 305.9L98.0 289.1L114.7 306.9L131.4 304.8L148.1 306.2L164.8 285.7L181.4 307.4L198.1 303.4L214.8 305.1L231.5 294.1L248.2 307.4L264.9 304.1L281.5 306.2L298.2 277.5L314.9 307.6L331.6 304.8L348.3 306.2L364.9 285.2L381.6 307.7L398.3 304.3L415.0 305.8L431.7 292.7L448.3 307.7L465.0 304.9L481.7 305.7L498.4 278.1L515.1 307.5L531.7 305.3L548.4 306.0L565.1 284.8L581.8 305.6L598.5 304.8L615.1 306.3L631.8 287.2L648.5 307.7L665.2 304.3L681.9 306.6L698.6 265.1L715.2 307.6L731.9 304.7L748.6 306.3L765.3 287.6L782.0 307.6L798.6 305.0L815.3 305.7L832.0 222.3" fill="none" stroke="#ede8dc" stroke-width="1.1" stroke-linejoin="round"/>

<circle cx="832.0" cy="222.3" r="2.4" fill="#e8893c">
<animate attributeName="r" values="2;3.4;2" dur="2.2s" repeatCount="indefinite"/>
<animate attributeName="opacity" values="1;0.45;1" dur="2.2s" repeatCount="indefinite"/>
</circle>
<g><line x1="0" y1="206" x2="0" y2="322" stroke="#e8893c" stroke-width="0.7" opacity="0.45" transform="translate(48 0)">
<animateTransform attributeName="transform" type="translate" from="48 0" to="832 0" dur="11s" repeatCount="indefinite"/>
</line></g>
<text x="48" y="348" font-family="ui-monospace,'SF Mono','Cascadia Mono','JetBrains Mono','Roboto Mono',Menlo,Consolas,monospace" font-size="10" font-weight="400" letter-spacing="2.5" fill="#93a0a8" text-anchor="start">JITTERSCOPE · 48 SAMPLES · GITHUB CI · LAST PROBE 2026-06-10 23:30 UTC</text>
<g><text x="664" y="348" font-family="ui-monospace,'SF Mono','Cascadia Mono','JetBrains Mono','Roboto Mono',Menlo,Consolas,monospace" font-size="10" font-weight="400" letter-spacing="2.5" fill="#93a0a8" text-anchor="start">ENTROPY</text>
<rect x="738" y="340" width="90" height="6" fill="none" stroke="rgba(237,232,220,0.25)" stroke-width="0.6"/>
<rect x="738" y="340" width="90.0" height="6" fill="#ff4530">
<animate attributeName="opacity" values="1;0.55;1" dur="3.1s" repeatCount="indefinite"/>
</rect>
<text x="836" y="348" font-family="ui-monospace,'SF Mono','Cascadia Mono','JetBrains Mono','Roboto Mono',Menlo,Consolas,monospace" font-size="10" font-weight="400" letter-spacing="0.5" fill="#ff4530" text-anchor="end">.00</text></g>
<text x="832" y="320" font-family="ui-monospace,'SF Mono','Cascadia Mono','JetBrains Mono','Roboto Mono',Menlo,Consolas,monospace" font-size="9" font-weight="400" letter-spacing="1.5" fill="rgba(233,231,224,0.34)" text-anchor="end">CONTRIB 713 · REPOS 3 · P50 9MS · JIT 32.2MS</text>
</svg>